<svg width="20" height="20" viewBox="0 0 20 20" fill="none" xmlns="http://www.w3.org/2000/svg">
<path fill-rule="evenodd" clip-rule="evenodd" d="M10.0003 1.66663C14.6027 1.66663 18.3337 5.39759 18.3337 9.99996C18.3337 14.6023 14.6027 18.3333 10.0003 18.3333C5.39795 18.3333 1.66699 14.6023 1.66699 9.99996C1.66699 5.39759 5.39795 1.66663 10.0003 1.66663ZM10.0003 3.33329C6.31843 3.33329 3.33366 6.31806 3.33366 9.99996C3.33366 13.6819 6.31843 16.6666 10.0003 16.6666C13.6822 16.6666 16.667 13.6819 16.667 9.99996C16.667 6.31806 13.6822 3.33329 10.0003 3.33329ZM10.0003 12.5C10.4606 12.5 10.8337 12.8731 10.8337 13.3333C10.8337 13.7935 10.4606 14.1666 10.0003 14.1666C9.54009 14.1666 9.16699 13.7935 9.16699 13.3333C9.16699 12.8731 9.54009 12.5 10.0003 12.5ZM10.0003 5.83329C10.4606 5.83329 10.8337 6.20639 10.8337 6.66663V9.99996C10.8337 10.4602 10.4606 10.8333 10.0003 10.8333C9.54009 10.8333 9.16699 10.4602 9.16699 9.99996V6.66663C9.16699 6.20639 9.54009 5.83329 10.0003 5.83329Z" fill="#E5167A"/>
</svg>
