<svg width="24" height="25" viewBox="0 0 24 25" fill="none" xmlns="http://www.w3.org/2000/svg">
<g opacity="0.6">
<path d="M19 6.65039H16V5.65039C16 4.85474 15.6839 4.09168 15.1213 3.52907C14.5587 2.96646 13.7956 2.65039 13 2.65039H11C10.2044 2.65039 9.44129 2.96646 8.87868 3.52907C8.31607 4.09168 8 4.85474 8 5.65039V6.65039H5C4.20435 6.65039 3.44129 6.96646 2.87868 7.52907C2.31607 8.09168 2 8.85474 2 9.65039V18.6504C2 19.446 2.31607 20.2091 2.87868 20.7717C3.44129 21.3343 4.20435 21.6504 5 21.6504H19C19.7956 21.6504 20.5587 21.3343 21.1213 20.7717C21.6839 20.2091 22 19.446 22 18.6504V9.65039C22 8.85474 21.6839 8.09168 21.1213 7.52907C20.5587 6.96646 19.7956 6.65039 19 6.65039ZM10 5.65039C10 5.38517 10.1054 5.13082 10.2929 4.94328C10.4804 4.75575 10.7348 4.65039 11 4.65039H13C13.2652 4.65039 13.5196 4.75575 13.7071 4.94328C13.8946 5.13082 14 5.38517 14 5.65039V6.65039H10V5.65039ZM20 18.6504C20 18.9156 19.8946 19.17 19.7071 19.3575C19.5196 19.545 19.2652 19.6504 19 19.6504H5C4.73478 19.6504 4.48043 19.545 4.29289 19.3575C4.10536 19.17 4 18.9156 4 18.6504V13.1504C6.54626 14.1605 9.26069 14.6797 12 14.6804C14.7392 14.6787 17.4535 14.1596 20 13.1504V18.6504ZM20 10.9604C17.4784 12.0682 14.7542 12.6402 12 12.6402C9.24579 12.6402 6.5216 12.0682 4 10.9604V9.65039C4 9.38517 4.10536 9.13082 4.29289 8.94328C4.48043 8.75575 4.73478 8.65039 5 8.65039H19C19.2652 8.65039 19.5196 8.75575 19.7071 8.94328C19.8946 9.13082 20 9.38517 20 9.65039V10.9604Z" fill="#274052"/>
</g>
</svg>
