<svg width="54" height="54" viewBox="0 0 54 54" fill="none" xmlns="http://www.w3.org/2000/svg">
<path fill-rule="evenodd" clip-rule="evenodd" d="M10.5502 8.75001L11.6216 8.76927C14.9842 8.8853 19.6176 9.5718 23.7419 12.0809C24.0531 12.2702 24.3923 12.4276 24.75 12.5531V47.25H11.25C7.52208 47.25 4.5 44.2279 4.5 40.5V15.062C4.5 11.8265 6.90796 8.74441 10.5502 8.75001ZM43.4498 8.75001C46.9572 8.74462 49.3199 11.6024 49.4902 14.7033L49.5 15.062V40.5C49.5 44.0948 46.6899 47.0332 43.1466 47.2385L42.75 47.25H29.25V12.5531C29.6077 12.4276 29.9469 12.2702 30.2581 12.0809C34.3824 9.5718 39.0158 8.8853 42.3784 8.76927L43.4498 8.75001Z" fill="#040921"/>
</svg>
