<svg width="24" height="24" viewBox="0 0 24 24" fill="none" xmlns="http://www.w3.org/2000/svg">
<g opacity="0.7">
<path fill-rule="evenodd" clip-rule="evenodd" d="M17 2C17.5523 2 18 2.44772 18 3V4H19C20.6569 4 22 5.34314 22 7V17C22 18.6569 20.6569 20 19 20H5C3.34315 20 2 18.6569 2 17V7C2 5.34314 3.34315 4 5 4H6V3C6 2.44772 6.44771 2 7 2C7.55229 2 8 2.44772 8 3V4H16V3C16 2.44772 16.4477 2 17 2ZM20 10H4V17C4 17.5128 4.38604 17.9355 4.88338 17.9933L5 18H19C19.5128 18 19.9355 17.614 19.9933 17.1166L20 17V10ZM17 14C17.5523 14 18 14.4477 18 15C18 15.5523 17.5523 16 17 16C16.4477 16 16 15.5523 16 15C16 14.4477 16.4477 14 17 14Z" fill="#274052"/>
</g>
</svg>
