<svg width="18" height="18" viewBox="0 0 18 18" fill="none" xmlns="http://www.w3.org/2000/svg">
<path d="M9 13.125C9.9375 13.125 10.7345 12.797 11.391 12.141C12.047 11.4845 12.375 10.6875 12.375 9.75C12.375 8.8125 12.047 8.0155 11.391 7.359C10.7345 6.703 9.9375 6.375 9 6.375C8.0625 6.375 7.2655 6.703 6.609 7.359C5.953 8.0155 5.625 8.8125 5.625 9.75C5.625 10.6875 5.953 11.4845 6.609 12.141C7.2655 12.797 8.0625 13.125 9 13.125ZM9 12.375L8.175 10.575L6.375 9.75L8.175 8.925L9 7.125L9.825 8.925L11.625 9.75L9.825 10.575L9 12.375ZM3 15.75C2.5875 15.75 2.2345 15.6033 1.941 15.3097C1.647 15.0157 1.5 14.6625 1.5 14.25V5.25C1.5 4.8375 1.647 4.4845 1.941 4.191C2.2345 3.897 2.5875 3.75 3 3.75H5.3625L6.75 2.25H11.25L12.6375 3.75H15C15.4125 3.75 15.7657 3.897 16.0597 4.191C16.3533 4.4845 16.5 4.8375 16.5 5.25V14.25C16.5 14.6625 16.3533 15.0157 16.0597 15.3097C15.7657 15.6033 15.4125 15.75 15 15.75H3ZM15 14.25V5.25H11.9625L10.5938 3.75H7.40625L6.0375 5.25H3V14.25H15Z" fill="#274052"/>
</svg>
