<svg width="18" height="18" viewBox="0 0 18 18" fill="none" xmlns="http://www.w3.org/2000/svg">
<path fill-rule="evenodd" clip-rule="evenodd" d="M13.7715 13.7729C14.0644 13.48 14.0644 13.0052 13.7715 12.7123L10.0597 9.00048L13.7725 5.28766C14.0654 4.99476 14.0654 4.51989 13.7725 4.227C13.4796 3.9341 13.0047 3.9341 12.7118 4.227L8.99901 7.93981L5.28619 4.22699C4.9933 3.9341 4.51842 3.9341 4.22553 4.22699C3.93264 4.51989 3.93264 4.99476 4.22553 5.28765L7.93835 9.00047L4.22655 12.7123C3.93365 13.0052 3.93365 13.48 4.22655 13.7729C4.51944 14.0658 4.99432 14.0658 5.28721 13.7729L8.99901 10.0611L12.7108 13.7729C13.0037 14.0658 13.4786 14.0658 13.7715 13.7729Z" fill="white"/>
</svg>
