<svg width="14" height="14" viewBox="0 0 14 14" fill="none" xmlns="http://www.w3.org/2000/svg">
<path fill-rule="evenodd" clip-rule="evenodd" d="M13.7044 13.0208C14.0949 12.6303 14.0949 11.9971 13.7044 11.6066L8.75534 6.65754L13.7058 1.70711C14.0963 1.31659 14.0963 0.68342 13.7058 0.292896C13.3152 -0.0976287 12.6821 -0.0976286 12.2916 0.292895L7.34113 5.24332L2.3907 0.292893C2.00018 -0.0976306 1.36701 -0.0976316 0.976487 0.292893C0.585963 0.683417 0.585963 1.31658 0.976487 1.70711L5.92691 6.65753L0.977845 11.6066C0.587321 11.9971 0.587321 12.6303 0.977846 13.0208C1.36837 13.4113 2.00154 13.4113 2.39206 13.0208L7.34113 8.07175L12.2902 13.0208C12.6807 13.4113 13.3139 13.4113 13.7044 13.0208Z" fill="#040921"/>
</svg>
