<svg width="54" height="54" viewBox="0 0 54 54" fill="none" xmlns="http://www.w3.org/2000/svg">
<path d="M29.25 18V9C29.25 8.3625 29.466 7.82775 29.898 7.39575C30.3285 6.96525 30.8625 6.75 31.5 6.75H45C45.6375 6.75 46.1715 6.96525 46.602 7.39575C47.034 7.82775 47.25 8.3625 47.25 9V18C47.25 18.6375 47.034 19.1715 46.602 19.602C46.1715 20.034 45.6375 20.25 45 20.25H31.5C30.8625 20.25 30.3285 20.034 29.898 19.602C29.466 19.1715 29.25 18.6375 29.25 18ZM6.75 27V9C6.75 8.3625 6.966 7.82775 7.398 7.39575C7.8285 6.96525 8.3625 6.75 9 6.75H22.5C23.1375 6.75 23.6723 6.96525 24.1042 7.39575C24.5347 7.82775 24.75 8.3625 24.75 9V27C24.75 27.6375 24.5347 28.1715 24.1042 28.602C23.6723 29.034 23.1375 29.25 22.5 29.25H9C8.3625 29.25 7.8285 29.034 7.398 28.602C6.966 28.1715 6.75 27.6375 6.75 27ZM29.25 45V27C29.25 26.3625 29.466 25.8277 29.898 25.3958C30.3285 24.9653 30.8625 24.75 31.5 24.75H45C45.6375 24.75 46.1715 24.9653 46.602 25.3958C47.034 25.8277 47.25 26.3625 47.25 27V45C47.25 45.6375 47.034 46.1715 46.602 46.602C46.1715 47.034 45.6375 47.25 45 47.25H31.5C30.8625 47.25 30.3285 47.034 29.898 46.602C29.466 46.1715 29.25 45.6375 29.25 45ZM6.75 45V36C6.75 35.3625 6.966 34.8277 7.398 34.3958C7.8285 33.9653 8.3625 33.75 9 33.75H22.5C23.1375 33.75 23.6723 33.9653 24.1042 34.3958C24.5347 34.8277 24.75 35.3625 24.75 36V45C24.75 45.6375 24.5347 46.1715 24.1042 46.602C23.6723 47.034 23.1375 47.25 22.5 47.25H9C8.3625 47.25 7.8285 47.034 7.398 46.602C6.966 46.1715 6.75 45.6375 6.75 45Z" fill="black"/>
</svg>
