<svg width="24" height="25" viewBox="0 0 24 25" fill="none" xmlns="http://www.w3.org/2000/svg">
<g opacity="0.6">
<path d="M13 8.15039V4.15039C13 3.86706 13.096 3.62939 13.288 3.43739C13.4793 3.24606 13.7167 3.15039 14 3.15039H20C20.2833 3.15039 20.5207 3.24606 20.712 3.43739C20.904 3.62939 21 3.86706 21 4.15039V8.15039C21 8.43372 20.904 8.67106 20.712 8.86239C20.5207 9.05439 20.2833 9.15039 20 9.15039H14C13.7167 9.15039 13.4793 9.05439 13.288 8.86239C13.096 8.67106 13 8.43372 13 8.15039ZM3 12.1504V4.15039C3 3.86706 3.096 3.62939 3.288 3.43739C3.47933 3.24606 3.71667 3.15039 4 3.15039H10C10.2833 3.15039 10.521 3.24606 10.713 3.43739C10.9043 3.62939 11 3.86706 11 4.15039V12.1504C11 12.4337 10.9043 12.6711 10.713 12.8624C10.521 13.0544 10.2833 13.1504 10 13.1504H4C3.71667 13.1504 3.47933 13.0544 3.288 12.8624C3.096 12.6711 3 12.4337 3 12.1504ZM13 20.1504V12.1504C13 11.8671 13.096 11.6294 13.288 11.4374C13.4793 11.2461 13.7167 11.1504 14 11.1504H20C20.2833 11.1504 20.5207 11.2461 20.712 11.4374C20.904 11.6294 21 11.8671 21 12.1504V20.1504C21 20.4337 20.904 20.6711 20.712 20.8624C20.5207 21.0544 20.2833 21.1504 20 21.1504H14C13.7167 21.1504 13.4793 21.0544 13.288 20.8624C13.096 20.6711 13 20.4337 13 20.1504ZM3 20.1504V16.1504C3 15.8671 3.096 15.6294 3.288 15.4374C3.47933 15.2461 3.71667 15.1504 4 15.1504H10C10.2833 15.1504 10.521 15.2461 10.713 15.4374C10.9043 15.6294 11 15.8671 11 16.1504V20.1504C11 20.4337 10.9043 20.6711 10.713 20.8624C10.521 21.0544 10.2833 21.1504 10 21.1504H4C3.71667 21.1504 3.47933 21.0544 3.288 20.8624C3.096 20.6711 3 20.4337 3 20.1504ZM5 11.1504H9V5.15039H5V11.1504ZM15 19.1504H19V13.1504H15V19.1504ZM15 7.15039H19V5.15039H15V7.15039ZM5 19.1504H9V17.1504H5V19.1504Z" fill="white"/>
</g>
</svg>
