<svg width="24" height="24" viewBox="0 0 24 24" fill="none" xmlns="http://www.w3.org/2000/svg">
<path d="M7.80227 14.5186C7.69194 14.6289 7.60441 14.7598 7.54467 14.9038C7.48493 15.0479 7.45416 15.2023 7.4541 15.3583C7.45405 15.5143 7.48471 15.6687 7.54435 15.8129C7.60399 15.957 7.69143 16.088 7.80168 16.1983C7.91193 16.3086 8.04283 16.3961 8.18691 16.4559C8.33099 16.5156 8.48542 16.5464 8.64139 16.5464C8.79736 16.5465 8.95182 16.5158 9.09594 16.4562C9.24006 16.3966 9.37102 16.3091 9.48135 16.1989L16.1989 9.48136C16.3092 9.37103 16.3967 9.24005 16.4564 9.0959C16.5161 8.95175 16.5469 8.79725 16.5469 8.64122C16.5469 8.4852 16.5161 8.3307 16.4564 8.18655C16.3967 8.0424 16.3092 7.91142 16.1989 7.80109C16.0885 7.69076 15.9576 7.60324 15.8134 7.54353C15.6693 7.48383 15.5148 7.45309 15.3587 7.45309C15.2027 7.45309 15.0482 7.48383 14.9041 7.54353C14.7599 7.60324 14.6289 7.69076 14.5186 7.80109L7.80227 14.5186Z" fill="#274052"/>
<path fill-rule="evenodd" clip-rule="evenodd" d="M5.28249 18.7175C6.16464 19.5997 7.21191 20.2994 8.36451 20.7769C9.5171 21.2543 10.7524 21.5 12 21.5C13.2476 21.5 14.4829 21.2543 15.6355 20.7769C16.7881 20.2994 17.8354 19.5997 18.7175 18.7175C19.5997 17.8354 20.2994 16.7881 20.7769 15.6355C21.2543 14.4829 21.5 13.2476 21.5 12C21.5 10.7524 21.2543 9.5171 20.7769 8.36451C20.2994 7.21191 19.5997 6.16464 18.7175 5.28249C16.9359 3.50089 14.5196 2.5 12 2.5C9.48044 2.5 7.06408 3.50089 5.28249 5.28249C3.50089 7.06408 2.5 9.48044 2.5 12C2.5 14.5196 3.50089 16.9359 5.28249 18.7175ZM17.0384 17.0384C15.7023 18.3747 13.8901 19.1255 12.0004 19.1256C10.1108 19.1257 8.29844 18.3751 6.96216 17.039C5.62589 15.7029 4.87511 13.8907 4.875 12.001C4.87489 10.1113 5.62545 8.29903 6.96157 6.96275C8.29769 5.62648 10.1099 4.8757 11.9996 4.87559C12.9352 4.87554 13.8618 5.05978 14.7262 5.41779C15.5907 5.7758 16.3762 6.30058 17.0378 6.96216C17.6995 7.62374 18.2244 8.40916 18.5825 9.27359C18.9406 10.138 19.1249 11.0645 19.125 12.0002C19.1251 12.9358 18.9408 13.8624 18.5828 14.7268C18.2248 15.5913 17.7 16.3768 17.0384 17.0384Z" fill="#274052"/>
</svg>
