<svg width="24" height="24" viewBox="0 0 24 24" fill="none" xmlns="http://www.w3.org/2000/svg">
<g opacity="0.6">
<path fill-rule="evenodd" clip-rule="evenodd" d="M12 4C14.6438 4 16.9865 5.38568 18.7483 6.86264C19.6845 7.64753 20.4925 8.48836 21.1367 9.23213L21.5032 9.66553C21.5609 9.73542 21.6169 9.80402 21.6711 9.8712L21.9754 10.2559L22.2361 10.5989L22.4514 10.893C22.9297 11.5584 22.9297 12.4416 22.4514 13.107L22.2361 13.4011L21.9754 13.7441L21.6712 14.1288C21.6169 14.196 21.5609 14.2646 21.5032 14.3345L21.1367 14.7679C20.4925 15.5116 19.6845 16.3525 18.7483 17.1374C16.9865 18.6143 14.6438 20 12 20C9.35633 20 7.01354 18.6143 5.25181 17.1374C4.3156 16.3525 3.50754 15.5116 2.86342 14.7679L2.4969 14.3345C2.43919 14.2646 2.38319 14.196 2.32893 14.1288L2.02465 13.7441L1.76401 13.4011L1.54872 13.107C1.07035 12.4416 1.07035 11.5584 1.54872 10.893L1.76401 10.5989L2.02465 10.2559L2.32893 9.8712C2.38319 9.80402 2.43919 9.73542 2.4969 9.66553L2.86342 9.23213C3.50754 8.48836 4.3156 7.64753 5.25181 6.86264C7.01354 5.38568 9.35633 4 12 4ZM12 6C10.0459 6 8.15313 7.04015 6.53673 8.39529C5.52801 9.24096 4.67632 10.1679 4.04428 10.9327L3.7217 11.3324L3.44494 11.691L3.21627 12L3.44494 12.309L3.7217 12.6676L4.04428 13.0673C4.67632 13.8321 5.52801 14.759 6.53673 15.6047C8.15313 16.9598 10.0459 18 12 18C13.9542 18 15.847 16.9598 17.4634 15.6047C18.2887 14.9128 19.0089 14.1665 19.5897 13.4991L19.9558 13.0673L20.2784 12.6676L20.5551 12.309L20.7838 12L20.5551 11.691L20.2784 11.3324L19.9558 10.9327L19.5897 10.5009C19.0089 9.83354 18.2887 9.0872 17.4634 8.39529C15.847 7.04015 13.9542 6 12 6ZM12 8C14.2092 8 16 9.79086 16 12C16 14.2091 14.2092 16 12 16C9.7909 16 8.00004 14.2091 8.00004 12C8.00004 9.79086 9.7909 8 12 8ZM12 10C10.8955 10 10 10.8954 10 12C10 13.1046 10.8955 14 12 14C13.1046 14 14 13.1046 14 12C14 10.8954 13.1046 10 12 10Z" fill="#566D7D"/>
</g>
</svg>
