<svg width="24" height="25" viewBox="0 0 24 25" fill="none" xmlns="http://www.w3.org/2000/svg">
<path d="M13 20.1716H6C5.73478 20.1716 5.48043 20.0663 5.29289 19.8787C5.10536 19.6912 5 19.4368 5 19.1716V5.17163C5 4.90641 5.10536 4.65206 5.29289 4.46452C5.48043 4.27699 5.73478 4.17163 6 4.17163H11V7.17163C11 7.96728 11.3161 8.73034 11.8787 9.29295C12.4413 9.85556 13.2044 10.1716 14 10.1716H17V12.1716C17 12.4368 17.1054 12.6912 17.2929 12.8787C17.4804 13.0663 17.7348 13.1716 18 13.1716C18.2652 13.1716 18.5196 13.0663 18.7071 12.8787C18.8946 12.6912 19 12.4368 19 12.1716V9.17163C19 9.17163 19 9.17163 19 9.11163C18.9896 9.01977 18.9695 8.92926 18.94 8.84163V8.75163C18.8919 8.64881 18.8278 8.5543 18.75 8.47163L12.75 2.47163C12.6673 2.39385 12.5728 2.32971 12.47 2.28163C12.4402 2.27739 12.4099 2.27739 12.38 2.28163C12.2784 2.22337 12.1662 2.18598 12.05 2.17163H6C5.20435 2.17163 4.44129 2.4877 3.87868 3.05031C3.31607 3.61292 3 4.37598 3 5.17163V19.1716C3 19.9673 3.31607 20.7303 3.87868 21.293C4.44129 21.8556 5.20435 22.1716 6 22.1716H13C13.2652 22.1716 13.5196 22.0663 13.7071 21.8787C13.8946 21.6912 14 21.4368 14 21.1716C14 20.9064 13.8946 20.6521 13.7071 20.4645C13.5196 20.277 13.2652 20.1716 13 20.1716ZM13 5.58163L15.59 8.17163H14C13.7348 8.17163 13.4804 8.06627 13.2929 7.87874C13.1054 7.6912 13 7.43685 13 7.17163V5.58163ZM8 8.17163C7.73478 8.17163 7.48043 8.27699 7.29289 8.46452C7.10536 8.65206 7 8.90641 7 9.17163C7 9.43685 7.10536 9.6912 7.29289 9.87874C7.48043 10.0663 7.73478 10.1716 8 10.1716H9C9.26522 10.1716 9.51957 10.0663 9.70711 9.87874C9.89464 9.6912 10 9.43685 10 9.17163C10 8.90641 9.89464 8.65206 9.70711 8.46452C9.51957 8.27699 9.26522 8.17163 9 8.17163H8ZM14 12.1716H8C7.73478 12.1716 7.48043 12.277 7.29289 12.4645C7.10536 12.6521 7 12.9064 7 13.1716C7 13.4368 7.10536 13.6912 7.29289 13.8787C7.48043 14.0663 7.73478 14.1716 8 14.1716H14C14.2652 14.1716 14.5196 14.0663 14.7071 13.8787C14.8946 13.6912 15 13.4368 15 13.1716C15 12.9064 14.8946 12.6521 14.7071 12.4645C14.5196 12.277 14.2652 12.1716 14 12.1716ZM20.71 17.4616L18.71 15.4616C18.6149 15.3706 18.5028 15.2992 18.38 15.2516C18.1365 15.1516 17.8635 15.1516 17.62 15.2516C17.4972 15.2992 17.3851 15.3706 17.29 15.4616L15.29 17.4616C15.1017 17.6499 14.9959 17.9053 14.9959 18.1716C14.9959 18.4379 15.1017 18.6933 15.29 18.8816C15.4783 19.0699 15.7337 19.1757 16 19.1757C16.2663 19.1757 16.5217 19.0699 16.71 18.8816L17 18.5816V21.1716C17 21.4368 17.1054 21.6912 17.2929 21.8787C17.4804 22.0663 17.7348 22.1716 18 22.1716C18.2652 22.1716 18.5196 22.0663 18.7071 21.8787C18.8946 21.6912 19 21.4368 19 21.1716V18.5816L19.29 18.8816C19.383 18.9754 19.4936 19.0498 19.6154 19.1005C19.7373 19.1513 19.868 19.1774 20 19.1774C20.132 19.1774 20.2627 19.1513 20.3846 19.1005C20.5064 19.0498 20.617 18.9754 20.71 18.8816C20.8037 18.7887 20.8781 18.6781 20.9289 18.5562C20.9797 18.4343 21.0058 18.3036 21.0058 18.1716C21.0058 18.0396 20.9797 17.9089 20.9289 17.7871C20.8781 17.6652 20.8037 17.5546 20.71 17.4616ZM12 18.1716C12.2652 18.1716 12.5196 18.0663 12.7071 17.8787C12.8946 17.6912 13 17.4368 13 17.1716C13 16.9064 12.8946 16.6521 12.7071 16.4645C12.5196 16.277 12.2652 16.1716 12 16.1716H8C7.73478 16.1716 7.48043 16.277 7.29289 16.4645C7.10536 16.6521 7 16.9064 7 17.1716C7 17.4368 7.10536 17.6912 7.29289 17.8787C7.48043 18.0663 7.73478 18.1716 8 18.1716H12Z" fill="#274052"/>
</svg>
