<svg width="24" height="25" viewBox="0 0 24 25" fill="none" xmlns="http://www.w3.org/2000/svg">
<path d="M12.71 10.9616C12.6149 10.8706 12.5028 10.7992 12.38 10.7516C12.1365 10.6516 11.8635 10.6516 11.62 10.7516C11.4972 10.7992 11.3851 10.8706 11.29 10.9616L9.29 12.9616C9.1017 13.1499 8.99591 13.4053 8.99591 13.6716C8.99591 13.9379 9.1017 14.1933 9.29 14.3816C9.4783 14.5699 9.7337 14.6757 10 14.6757C10.2663 14.6757 10.5217 14.5699 10.71 14.3816L11 14.0816V16.6716C11 16.9368 11.1054 17.1912 11.2929 17.3787C11.4804 17.5663 11.7348 17.6716 12 17.6716C12.2652 17.6716 12.5196 17.5663 12.7071 17.3787C12.8946 17.1912 13 16.9368 13 16.6716V14.0816L13.29 14.3816C13.383 14.4754 13.4936 14.5497 13.6154 14.6005C13.7373 14.6513 13.868 14.6774 14 14.6774C14.132 14.6774 14.2627 14.6513 14.3846 14.6005C14.5064 14.5497 14.617 14.4754 14.71 14.3816C14.8037 14.2887 14.8781 14.1781 14.9289 14.0562C14.9797 13.9343 15.0058 13.8036 15.0058 13.6716C15.0058 13.5396 14.9797 13.4089 14.9289 13.287C14.8781 13.1652 14.8037 13.0546 14.71 12.9616L12.71 10.9616ZM19 5.67162H12.72L12.4 4.67162C12.1926 4.08485 11.8077 3.57713 11.2989 3.21878C10.7901 2.86044 10.1824 2.66922 9.56 2.67162H5C4.20435 2.67162 3.44129 2.98769 2.87868 3.5503C2.31607 4.11291 2 4.87597 2 5.67162V18.6716C2 19.4673 2.31607 20.2303 2.87868 20.7929C3.44129 21.3556 4.20435 21.6716 5 21.6716H19C19.7956 21.6716 20.5587 21.3556 21.1213 20.7929C21.6839 20.2303 22 19.4673 22 18.6716V8.67162C22 7.87597 21.6839 7.11291 21.1213 6.5503C20.5587 5.98769 19.7956 5.67162 19 5.67162ZM20 18.6716C20 18.9368 19.8946 19.1912 19.7071 19.3787C19.5196 19.5663 19.2652 19.6716 19 19.6716H5C4.73478 19.6716 4.48043 19.5663 4.29289 19.3787C4.10536 19.1912 4 18.9368 4 18.6716V5.67162C4 5.40641 4.10536 5.15205 4.29289 4.96452C4.48043 4.77698 4.73478 4.67162 5 4.67162H9.56C9.76964 4.67108 9.97416 4.73644 10.1446 4.85846C10.3151 4.98049 10.4429 5.153 10.51 5.35162L11.05 6.99162C11.1171 7.19024 11.2449 7.36276 11.4154 7.48478C11.5858 7.6068 11.7904 7.67216 12 7.67162H19C19.2652 7.67162 19.5196 7.77698 19.7071 7.96452C19.8946 8.15205 20 8.40641 20 8.67162V18.6716Z" fill="#274052"/>
</svg>
