<svg width="24" height="25" viewBox="0 0 24 25" fill="none" xmlns="http://www.w3.org/2000/svg">
<g opacity="0.7">
<path fill-rule="evenodd" clip-rule="evenodd" d="M18.3626 19.325C18.7531 18.9345 18.7531 18.3013 18.3626 17.9108L13.4135 12.9617L18.364 8.01131C18.7545 7.62079 18.7545 6.98762 18.364 6.5971C17.9734 6.20657 17.3403 6.20657 16.9498 6.59709L11.9993 11.5475L7.0489 6.59709C6.65838 6.20657 6.02521 6.20657 5.63469 6.59709C5.24417 6.98762 5.24417 7.62078 5.63469 8.01131L10.5851 12.9617L5.63605 17.9108C5.24552 18.3013 5.24552 18.9345 5.63605 19.325C6.02657 19.7155 6.65974 19.7155 7.05026 19.325L11.9993 14.3759L16.9484 19.325C17.3389 19.7155 17.9721 19.7155 18.3626 19.325Z" fill="#040921"/>
</g>
</svg>
