<svg width="29" height="29" viewBox="0 0 29 29" fill="none" xmlns="http://www.w3.org/2000/svg">
<path d="M23.3041 6.25134C21.7442 5.52418 20.0553 4.9964 18.2961 4.69146C18.2806 4.69097 18.2653 4.69386 18.2511 4.69994C18.2369 4.70602 18.2242 4.71514 18.214 4.72665C18.0028 5.11368 17.7565 5.618 17.5923 6.00504C15.7264 5.72356 13.8287 5.72356 11.9627 6.00504C11.7985 5.60628 11.5522 5.11368 11.3294 4.72665C11.3176 4.70319 11.2825 4.69146 11.2473 4.69146C9.48801 4.9964 7.81085 5.52418 6.23924 6.25134C6.22751 6.25134 6.21578 6.26307 6.20405 6.2748C3.01393 11.0483 2.13429 15.6927 2.56825 20.2902C2.56825 20.3137 2.57997 20.3372 2.60343 20.3489C4.71455 21.897 6.74356 22.8353 8.74912 23.4569C8.78431 23.4686 8.81949 23.4569 8.83122 23.4335C9.30036 22.7884 9.72258 22.1082 10.0862 21.3927C10.1096 21.3458 10.0862 21.2989 10.0392 21.2872C9.37073 21.0291 8.73739 20.7242 8.11579 20.3723C8.06887 20.3489 8.06887 20.2785 8.10406 20.2433C8.23307 20.1495 8.36208 20.044 8.4911 19.9501C8.51455 19.9267 8.54974 19.9267 8.57319 19.9384C12.6078 21.7798 16.959 21.7798 20.9467 19.9384C20.9701 19.9267 21.0053 19.9267 21.0288 19.9501C21.1578 20.0557 21.2868 20.1495 21.4158 20.2551C21.4627 20.2902 21.4627 20.3606 21.4041 20.3841C20.7942 20.7477 20.1491 21.0409 19.4806 21.2989C19.4337 21.3106 19.422 21.3693 19.4337 21.4044C19.809 22.1199 20.2312 22.8001 20.6886 23.4452C20.7238 23.4569 20.759 23.4686 20.7942 23.4569C22.8115 22.8353 24.8405 21.897 26.9516 20.3489C26.9751 20.3372 26.9868 20.3137 26.9868 20.2902C27.5029 14.9773 26.1306 10.368 23.351 6.2748C23.3393 6.26307 23.3275 6.25134 23.3041 6.25134ZM10.696 17.4872C9.48801 17.4872 8.47937 16.373 8.47937 15.0007C8.47937 13.6285 9.46455 12.5143 10.696 12.5143C11.9392 12.5143 12.9244 13.6402 12.9127 15.0007C12.9127 16.373 11.9275 17.4872 10.696 17.4872ZM18.8707 17.4872C17.6627 17.4872 16.6541 16.373 16.6541 15.0007C16.6541 13.6285 17.6393 12.5143 18.8707 12.5143C20.114 12.5143 21.0991 13.6402 21.0874 15.0007C21.0874 16.373 20.114 17.4872 18.8707 17.4872Z" fill="#004832"/>
</svg>
