<svg width="29" height="29" viewBox="0 0 29 29" fill="none" xmlns="http://www.w3.org/2000/svg">
<path d="M19.9383 2.3457H8.20991C4.9712 2.3457 2.3457 4.9712 2.3457 8.20991V19.9383C2.3457 23.177 4.9712 25.8025 8.20991 25.8025H19.9383C23.177 25.8025 25.8025 23.177 25.8025 19.9383V8.20991C25.8025 4.9712 23.177 2.3457 19.9383 2.3457Z" stroke="#004832" stroke-width="2.34568" stroke-linecap="round" stroke-linejoin="round"/>
<path d="M18.7636 13.3353C18.9084 14.3113 18.7417 15.3082 18.2872 16.1841C17.8327 17.06 17.1136 17.7703 16.2322 18.2139C15.3508 18.6575 14.3519 18.812 13.3777 18.6552C12.4035 18.4984 11.5035 18.0384 10.8057 17.3407C10.108 16.6429 9.648 15.743 9.49123 14.7687C9.33446 13.7945 9.48888 12.7956 9.93252 11.9142C10.3762 11.0328 11.0864 10.3137 11.9623 9.85924C12.8382 9.40476 13.8351 9.23804 14.8112 9.38278C15.8068 9.53042 16.7286 9.99437 17.4403 10.7061C18.152 11.4178 18.616 12.3396 18.7636 13.3353Z" stroke="#004832" stroke-width="2.34568" stroke-linecap="round" stroke-linejoin="round"/>
<path d="M20.5234 7.62354H20.5352" stroke="#004832" stroke-width="2.34568" stroke-linecap="round" stroke-linejoin="round"/>
</svg>
