<svg width="29" height="29" viewBox="0 0 29 29" fill="none" xmlns="http://www.w3.org/2000/svg">
<path d="M25.9393 6.80239C25.0577 7.18485 24.1254 7.43768 23.1713 7.55301C24.1778 6.95172 24.9321 6.00578 25.2942 4.89066C24.3484 5.4537 23.313 5.85039 22.2331 6.0635C21.5112 5.28072 20.55 4.75965 19.5001 4.58203C18.4502 4.40441 17.3711 4.58028 16.432 5.08206C15.4928 5.58383 14.7467 6.38314 14.3108 7.35461C13.8749 8.32608 13.7737 9.41477 14.0232 10.4499C12.1108 10.3532 10.2401 9.85524 8.53271 8.98841C6.8253 8.12157 5.31934 6.90524 4.11267 5.41844C3.68944 6.15753 3.46704 6.99453 3.46761 7.84622C3.46611 8.63717 3.66021 9.41621 4.03263 10.114C4.40505 10.8118 4.94424 11.4066 5.60218 11.8456C4.83746 11.8248 4.08908 11.6196 3.42069 11.2475V11.3061C3.42643 12.4143 3.81476 13.4865 4.52002 14.3414C5.22527 15.1962 6.20415 15.7812 7.29107 15.9975C6.87267 16.1248 6.43827 16.1919 6.00095 16.1969C5.69822 16.1933 5.39626 16.1659 5.09786 16.1148C5.40738 17.0681 6.00637 17.9012 6.81147 18.4982C7.61657 19.0951 8.58774 19.4263 9.58984 19.4456C7.89767 20.7771 5.80846 21.5038 3.65526 21.5098C3.26322 21.5111 2.8715 21.4876 2.48242 21.4395C4.68083 22.8589 7.24277 23.6124 9.85959 23.6092C11.6654 23.628 13.4569 23.2867 15.1293 22.6054C16.8018 21.924 18.3217 20.9162 19.6003 19.6409C20.8789 18.3656 21.8906 16.8482 22.5762 15.1775C23.2618 13.5068 23.6077 11.7163 23.5936 9.91042C23.5936 9.71104 23.5936 9.49993 23.5936 9.28882C24.5139 8.60248 25.3076 7.7611 25.9393 6.80239Z" fill="#004832"/>
</svg>
