<svg width="22" height="23" viewBox="0 0 22 23" fill="none" xmlns="http://www.w3.org/2000/svg">
<path fill-rule="evenodd" clip-rule="evenodd" d="M20.7688 16.2095C20.7688 19.0151 18.5337 21.2958 15.7859 21.2958H5.99653C3.24864 21.2958 1.01172 19.0152 1.01172 16.2095V6.22247C1.01172 3.41882 3.24864 1.13635 5.99653 1.13635H15.7859C18.5337 1.13635 20.7688 3.41882 20.7688 6.22247V16.2095ZM15.7854 3.33168H5.99618C4.43285 3.33168 3.16249 4.62791 3.16249 6.22307V16.21C3.16249 17.8052 4.43279 19.1032 5.99618 19.1032H15.7854C17.347 19.1032 18.6193 17.8052 18.6193 16.21V6.22307C18.6191 4.62785 17.347 3.33168 15.7854 3.33168ZM5.80124 11.2179C5.80124 14.0801 8.0846 16.41 10.8897 16.41C13.6947 16.41 15.9782 14.0801 15.9782 11.2179C15.9782 8.35564 13.6965 6.0258 10.8897 6.0258C8.08466 6.0258 5.80124 8.35564 5.80124 11.2179ZM16.1427 7.09774C15.478 7.09774 14.9385 6.54741 14.9385 5.86922C14.9385 5.19262 15.478 4.6405 16.1427 4.6405C16.8056 4.6405 17.347 5.19262 17.347 5.86922C17.347 6.54741 16.8056 7.09774 16.1427 7.09774ZM7.9525 11.2162C7.9525 9.56276 9.27107 8.21913 10.8898 8.21913C12.5103 8.21913 13.8289 9.56449 13.8289 11.2162C13.8289 12.8698 12.5103 14.2152 10.8898 14.2152C9.27107 14.2152 7.9525 12.8698 7.9525 11.2162Z" fill="white"/>
</svg>
