<svg width="54" height="54" viewBox="0 0 54 54" fill="none" xmlns="http://www.w3.org/2000/svg">
<path d="M14.625 47.25H6.75C5.5125 47.25 4.5 46.2375 4.5 45V22.5C4.5 21.2625 5.5125 20.25 6.75 20.25H14.625C15.8625 20.25 16.875 21.2625 16.875 22.5V45C16.875 46.2375 15.8625 47.25 14.625 47.25ZM30.9375 6.75H23.0625C21.825 6.75 20.8125 7.7625 20.8125 9V45C20.8125 46.2375 21.825 47.25 23.0625 47.25H30.9375C32.175 47.25 33.1875 46.2375 33.1875 45V9C33.1875 7.7625 32.175 6.75 30.9375 6.75ZM47.25 24.75H39.375C38.1375 24.75 37.125 25.7625 37.125 27V45C37.125 46.2375 38.1375 47.25 39.375 47.25H47.25C48.4875 47.25 49.5 46.2375 49.5 45V27C49.5 25.7625 48.4875 24.75 47.25 24.75Z" fill="black"/>
</svg>
