<svg width="24" height="25" viewBox="0 0 24 25" fill="none" xmlns="http://www.w3.org/2000/svg">
<g opacity="0.6">
<path d="M4 11.1504V19.1504H8V11.1504H4ZM10 5.15039V19.1504H14V5.15039H10ZM16 13.1504V19.1504H20V13.1504H16ZM20 21.1504H4C3.45 21.1504 2.97933 20.9547 2.588 20.5634C2.196 20.1714 2 19.7004 2 19.1504V11.1504C2 10.6004 2.196 10.1294 2.588 9.73739C2.97933 9.34606 3.45 9.15039 4 9.15039H8V5.15039C8 4.60039 8.196 4.12939 8.588 3.73739C8.97933 3.34606 9.45 3.15039 10 3.15039H14C14.55 3.15039 15.021 3.34606 15.413 3.73739C15.8043 4.12939 16 4.60039 16 5.15039V11.1504H20C20.55 11.1504 21.021 11.3461 21.413 11.7374C21.8043 12.1294 22 12.6004 22 13.1504V19.1504C22 19.7004 21.8043 20.1714 21.413 20.5634C21.021 20.9547 20.55 21.1504 20 21.1504Z" fill="white"/>
</g>
</svg>
