<svg width="23" height="23" viewBox="0 0 23 23" fill="none" xmlns="http://www.w3.org/2000/svg">
<g clip-path="url(#clip0_1114_46272)">
<path fill-rule="evenodd" clip-rule="evenodd" d="M3.5805 0.949463C2.09633 0.949463 1.12695 1.99216 1.12695 3.36105C1.12695 4.70113 2.06796 5.7724 3.52369 5.7724H3.55054C5.06309 5.7724 6.0041 4.70119 6.0041 3.36105C5.97565 1.99224 5.06309 0.949463 3.5805 0.949463ZM21.351 13.6294V21.6345H17.0153V14.1667C17.0153 12.2909 16.3901 11.01 14.819 11.01C13.6223 11.01 12.9101 11.8735 12.596 12.7084C12.4807 13.0058 12.4523 13.4198 12.4523 13.839V21.6347H8.11512C8.11512 21.6347 8.17354 8.98543 8.11512 7.67596H12.4523V9.65466C12.4483 9.66237 12.4431 9.67004 12.4379 9.67769L12.4379 9.67771V9.67772C12.4328 9.68516 12.4278 9.69259 12.4238 9.70008H12.4523V9.65466C13.0286 8.70507 14.0564 7.3479 16.36 7.3479C19.2132 7.3479 21.351 9.3437 21.351 13.6294ZM5.71845 21.6351H1.38449V7.67643H5.71845V21.6351Z" fill="white"/>
</g>
<defs>
<clipPath id="clip0_1114_46272">
<rect width="21.7923" height="21.7923" fill="white" transform="translate(0.789062 0.356934)"/>
</clipPath>
</defs>
</svg>
