<svg width="20" height="22" viewBox="0 0 20 22" fill="none" xmlns="http://www.w3.org/2000/svg">
<path d="M18.8939 12.1716H9.46405C9.08714 12.1716 8.78125 11.7729 8.78125 11.2812C8.78125 10.7896 9.08714 10.3909 9.46405 10.3909H18.8939C19.2708 10.3909 19.5749 10.7896 19.5749 11.2812C19.5749 11.7729 19.2708 12.1716 18.8939 12.1716Z" fill="#FFE252"/>
<path d="M18.8939 19.3928H9.46405C9.08714 19.3928 8.78125 18.994 8.78125 18.5024C8.78125 18.0108 9.08714 17.6121 9.46405 17.6121H18.8939C19.2708 17.6121 19.5749 18.0108 19.5749 18.5024C19.5749 18.994 19.2708 19.3928 18.8939 19.3928Z" fill="#FFE252"/>
<path d="M18.8939 4.94957H9.46405C9.08714 4.94957 8.78125 4.55264 8.78125 4.06103C8.78125 3.56941 9.08714 3.17065 9.46405 3.17065H18.8939C19.2708 3.17065 19.5749 3.56941 19.5749 4.06103C19.5749 4.55264 19.2708 4.94957 18.8939 4.94957Z" fill="#FFE252"/>
<path d="M3.55118 7.21541L0.439453 4.06265L3.55118 0.904541L6.66292 4.06265L3.55118 7.21541Z" fill="#FFE252"/>
<path d="M3.55118 14.4366L0.439453 11.2812L3.55118 8.12573L6.66292 11.2812L3.55118 14.4366Z" fill="#FFE252"/>
<path d="M3.55118 21.658L0.439453 18.5026L3.55118 15.3472L6.66292 18.5026L3.55118 21.658Z" fill="#FFE252"/>
</svg>
