<svg width="24" height="25" viewBox="0 0 24 25" fill="none" xmlns="http://www.w3.org/2000/svg">
<g opacity="0.6">
<path fill-rule="evenodd" clip-rule="evenodd" d="M4.68897 4.03907C3.0702 4.03657 2 5.40638 2 6.84441V18.1502C2 19.807 3.34315 21.1502 5 21.1502H19C20.6569 21.1502 22 19.807 22 18.1502V6.84441C22 5.40638 20.9298 4.03657 19.311 4.03907C17.8007 4.04139 15.4847 4.2804 13.448 5.51945C12.6282 6.01821 11.3718 6.01821 10.552 5.51945C8.51526 4.2804 6.19925 4.04139 4.68897 4.03907ZM4 6.84441C4 6.3271 4.3493 6.03855 4.68589 6.03906C6.03769 6.04114 7.92724 6.2637 9.51248 7.2281C9.96288 7.50211 10.4705 7.6915 11 7.79625V19.1502H5C4.44772 19.1502 4 18.7024 4 18.1502V6.84441ZM13 19.1502H19C19.5523 19.1502 20 18.7024 20 18.1502V6.84441C20 6.3271 19.6507 6.03855 19.3141 6.03906C17.9623 6.04114 16.0728 6.2637 14.4875 7.2281C14.0371 7.50211 13.5295 7.69149 13 7.79625V19.1502Z" fill="white"/>
</g>
</svg>
