<svg width="24" height="25" viewBox="0 0 24 25" fill="none" xmlns="http://www.w3.org/2000/svg">
<g opacity="0.6">
<path d="M18.5 17.1502H5.5V16.3502V10.6502C5.5 7.50518 7.73554 4.8783 10.7049 4.28054L11.593 4.10174L11.5025 3.20033C11.4955 3.1308 11.5032 3.06059 11.525 2.99422C11.5468 2.92784 11.5823 2.86677 11.6292 2.81496C11.6761 2.76314 11.7333 2.72173 11.7972 2.69338C11.861 2.66504 11.9301 2.65039 12 2.65039C12.0699 2.65039 12.139 2.66504 12.2028 2.69338C12.2667 2.72173 12.3239 2.76314 12.3708 2.81496C12.4177 2.86677 12.4532 2.92784 12.475 2.99422C12.4968 3.06059 12.5045 3.1308 12.4975 3.20033L12.4072 4.09993L13.2932 4.28014C14.7624 4.57898 16.0833 5.37634 17.0321 6.53722C17.9809 7.69803 18.4994 9.151 18.5 10.6502C18.5 10.6503 18.5 10.6504 18.5 10.6505V16.3502V17.1502ZM13.7321 20.6502C13.6454 20.8003 13.5389 20.9397 13.4142 21.0644C13.0391 21.4395 12.5304 21.6502 12 21.6502C11.4696 21.6502 10.9609 21.4395 10.5858 21.0644C10.4611 20.9397 10.3546 20.8003 10.2679 20.6502H13.7321Z" stroke="white" stroke-width="2"/>
</g>
</svg>
