<svg width="42" height="42" viewBox="0 0 42 42" fill="none" xmlns="http://www.w3.org/2000/svg">
<path d="M33.25 14V10.5H29.75V7H33.25V3.5H36.75V7H40.25V10.5H36.75V14H33.25ZM5.25 38.5C4.2875 38.5 3.46383 38.1576 2.779 37.4728C2.093 36.7868 1.75 35.9625 1.75 35V14C1.75 13.0375 2.093 12.2138 2.779 11.529C3.46383 10.843 4.2875 10.5 5.25 10.5H10.7625L14 7H24.5V10.5H15.5312L12.3375 14H5.25V35H33.25V19.25H36.75V35C36.75 35.9625 36.4076 36.7868 35.7228 37.4728C35.0368 38.1576 34.2125 38.5 33.25 38.5H5.25ZM19.25 32.375C21.4375 32.375 23.2972 31.6097 24.829 30.079C26.3597 28.5472 27.125 26.6875 27.125 24.5C27.125 22.3125 26.3597 20.4528 24.829 18.921C23.2972 17.3903 21.4375 16.625 19.25 16.625C17.0625 16.625 15.2028 17.3903 13.671 18.921C12.1403 20.4528 11.375 22.3125 11.375 24.5C11.375 26.6875 12.1403 28.5472 13.671 30.079C15.2028 31.6097 17.0625 32.375 19.25 32.375ZM19.25 28.875C18.025 28.875 16.9896 28.4521 16.1438 27.6062C15.2979 26.7604 14.875 25.725 14.875 24.5C14.875 23.275 15.2979 22.2396 16.1438 21.3938C16.9896 20.5479 18.025 20.125 19.25 20.125C20.475 20.125 21.5104 20.5479 22.3562 21.3938C23.2021 22.2396 23.625 23.275 23.625 24.5C23.625 25.725 23.2021 26.7604 22.3562 27.6062C21.5104 28.4521 20.475 28.875 19.25 28.875Z" fill="#363537"/>
</svg>
