<svg width="19" height="22" viewBox="0 0 19 22" fill="none" xmlns="http://www.w3.org/2000/svg">
<path d="M7.49219 10.6705L9.51628 7.74609L11.5424 10.6705L9.51628 13.5968L7.49219 10.6705Z" fill="#004832"/>
<path d="M2.70312 10.6705L4.72722 7.74609L6.75232 10.6705L4.72722 13.5968L2.70312 10.6705Z" fill="#004832"/>
<path d="M12.2812 10.6705L14.3053 7.74609L16.3314 10.6705L14.3053 13.5968L12.2812 10.6705Z" fill="#004832"/>
<path d="M9.9082 7.19543H13.8919L11.9001 10.0725L9.9082 7.19543Z" fill="#004832"/>
<path d="M5.14062 7.19543H9.12436L7.13148 10.0725L5.14062 7.19543Z" fill="#004832"/>
<path d="M5.14062 21.1977L7.1335 18.3217L9.12436 21.1977H5.14062Z" fill="#004832"/>
<path d="M9.9082 21.1977L11.9011 18.3217L13.8919 21.1977H9.9082Z" fill="#004832"/>
<path d="M12.6465 3.69702H16.6302L14.6373 6.57405L12.6465 3.69702Z" fill="#004832"/>
<path d="M7.49219 3.13096L9.51628 0.20459L11.5424 3.13096L9.51628 6.05532L7.49219 3.13096Z" fill="#004832"/>
<path d="M9.9082 6.60603L11.8991 3.729L13.8919 6.60603H9.9082Z" fill="#004832"/>
<path d="M5.14062 6.60613L7.13149 3.7301L9.12437 6.60613H5.14062Z" fill="#004832"/>
<path d="M2.4043 3.69702H6.38803L4.39515 6.57405L2.4043 3.69702Z" fill="#004832"/>
<path d="M9.9082 14.1961L11.9323 11.2717L13.9584 14.1961L11.9323 17.1225L9.9082 14.1961Z" fill="#004832"/>
<path d="M5.14062 14.1961L7.16472 11.2717L9.19082 14.1961L7.16472 17.1225L5.14062 14.1961Z" fill="#004832"/>
<path d="M0.375 14.1961L2.39909 11.2717L4.42519 14.1961L2.39909 17.1225L0.375 14.1961Z" fill="#004832"/>
<path d="M14.6758 14.1961L16.6999 11.2717L18.726 14.1961L16.6999 17.1225L14.6758 14.1961Z" fill="#004832"/>
<path d="M7.49219 17.7205L9.51628 14.7961L11.5424 17.7215L9.51628 20.6469L7.49219 17.7205Z" fill="#004832"/>
<path d="M2.70312 17.7205L4.72722 14.7961L6.75232 17.7215L4.72722 20.6469L2.70312 17.7205Z" fill="#004832"/>
<path d="M12.2812 17.7205L14.3053 14.7961L16.3314 17.7215L14.3053 20.6469L12.2812 17.7205Z" fill="#004832"/>
</svg>
