<svg width="25" height="27" viewBox="0 0 25 27" fill="none" xmlns="http://www.w3.org/2000/svg">
<path d="M15.136 19.7259L12.5737 23.4244L10.0117 19.7259L12.5737 16.0254L15.136 19.7259Z" fill="#FFE252"/>
<path d="M24.1549 26.3013H0.993544C0.882332 26.3013 0.775706 26.2572 0.697068 26.1785C0.618429 26.0999 0.574219 25.9932 0.574219 25.882V24.102C0.615925 20.9468 1.89851 17.9351 4.14442 15.7187C6.39033 13.5023 9.41871 12.2595 12.5741 12.2595C15.7295 12.2595 18.7581 13.5023 21.004 15.7187C23.2499 17.9351 24.5325 20.9468 24.5742 24.102V25.882C24.5742 25.9932 24.53 26.0999 24.4514 26.1785C24.3727 26.2572 24.2661 26.3013 24.1549 26.3013ZM1.41287 25.4627H23.7356V24.102C23.7558 22.6234 23.4821 21.1555 22.9303 19.7835C22.3785 18.4116 21.5597 17.163 20.5212 16.1103C19.4828 15.0575 18.2454 14.2215 16.8812 13.651C15.517 13.0804 14.0529 12.7866 12.5741 12.7866C11.0954 12.7866 9.63147 13.0804 8.26723 13.651C6.903 14.2215 5.66565 15.0575 4.62721 16.1103C3.58877 17.163 2.76996 18.4116 2.21814 19.7835C1.66633 21.1555 1.3926 22.6234 1.41287 24.102V25.4627Z" fill="#FFE252"/>
<path d="M12.5726 12.5391C11.3582 12.5395 10.1711 12.1797 9.16125 11.5054C8.15139 10.831 7.3643 9.87221 6.8994 8.75038C6.4345 7.62856 6.31268 6.39404 6.54948 5.20301C6.78628 4.01199 7.37098 2.91795 8.22965 2.05928C9.08832 1.20061 10.1823 0.615894 11.3734 0.37909C12.5644 0.142285 13.799 0.264028 14.9208 0.728928C16.0427 1.19383 17.0013 1.981 17.6757 2.99086C18.3501 4.00072 18.7099 5.18791 18.7095 6.40225C18.7078 8.02933 18.0607 9.58928 16.9102 10.7398C15.7596 11.8903 14.1996 12.5374 12.5726 12.5391ZM12.5726 1.10198C11.5242 1.10157 10.4994 1.41207 9.62746 1.99422C8.75556 2.57637 8.07585 3.40402 7.67437 4.37248C7.27288 5.34094 7.16747 6.40669 7.37175 7.43498C7.57603 8.46327 8.08081 9.40789 8.82198 10.1494C9.56316 10.8908 10.5075 11.3958 11.5357 11.6005C12.5639 11.8052 13.6297 11.7003 14.5983 11.2992C15.567 10.8981 16.3948 10.2188 16.9773 9.34712C17.5598 8.47545 17.8708 7.45063 17.8708 6.40225C17.8692 4.99741 17.3104 3.65054 16.3172 2.65697C15.324 1.6634 13.9774 1.1042 12.5726 1.10198Z" fill="#FFE252"/>
</svg>
