<svg width="25" height="24" viewBox="0 0 25 24" fill="none" xmlns="http://www.w3.org/2000/svg">
<path d="M7.5 7H7.501" stroke="#363537" stroke-width="2" stroke-linecap="round" stroke-linejoin="round"/>
<path fill-rule="evenodd" clip-rule="evenodd" d="M4.5 3C4.23478 3 3.98043 3.10536 3.79289 3.29289C3.60536 3.48043 3.5 3.73478 3.5 4V10C3.5 10.2652 3.60536 10.5196 3.79289 10.7071C3.98043 10.8946 4.23478 11 4.5 11H10.5C10.7652 11 11.0196 10.8946 11.2071 10.7071C11.3946 10.5196 11.5 10.2652 11.5 10V4C11.5 3.73478 11.3946 3.48043 11.2071 3.29289C11.0196 3.10536 10.7652 3 10.5 3H4.5ZM5.5 9V5H9.5V9H5.5ZM14.5 3C14.2348 3 13.9804 3.10536 13.7929 3.29289C13.6054 3.48043 13.5 3.73478 13.5 4V10C13.5 10.2652 13.6054 10.5196 13.7929 10.7071C13.9804 10.8946 14.2348 11 14.5 11H20.5C20.7652 11 21.0196 10.8946 21.2071 10.7071C21.3946 10.5196 21.5 10.2652 21.5 10V4C21.5 3.73478 21.3946 3.48043 21.2071 3.29289C21.0196 3.10536 20.7652 3 20.5 3H14.5ZM4.5 13C4.23478 13 3.98043 13.1054 3.79289 13.2929C3.60536 13.4804 3.5 13.7348 3.5 14V20C3.5 20.2652 3.60536 20.5196 3.79289 20.7071C3.98043 20.8946 4.23478 21 4.5 21H10.5C10.7652 21 11.0196 20.8946 11.2071 20.7071C11.3946 20.5196 11.5 20.2652 11.5 20V14C11.5 13.7348 11.3946 13.4804 11.2071 13.2929C11.0196 13.1054 10.7652 13 10.5 13H4.5ZM14.5 13C14.2348 13 13.9804 13.1054 13.7929 13.2929C13.6054 13.4804 13.5 13.7348 13.5 14V15C13.5 15.2652 13.6054 15.5196 13.7929 15.7071C13.9804 15.8946 14.2348 16 14.5 16H15.5C15.7652 16 16.0196 15.8946 16.2071 15.7071C16.3946 15.5196 16.5 15.2652 16.5 15V14C16.5 13.7348 16.3946 13.4804 16.2071 13.2929C16.0196 13.1054 15.7652 13 15.5 13H14.5ZM19.5 13C19.2348 13.0001 18.9805 13.1055 18.793 13.293L16.793 15.293C16.6108 15.4816 16.51 15.7342 16.5123 15.9964C16.5146 16.2586 16.6198 16.5094 16.8052 16.6948C16.9906 16.8802 17.2414 16.9854 17.5036 16.9877C17.7658 16.99 18.0184 16.8892 18.207 16.707L19.914 15H20.5C20.7652 15 21.0196 14.8946 21.2071 14.7071C21.3946 14.5196 21.5 14.2652 21.5 14C21.5 13.7348 21.3946 13.4804 21.2071 13.2929C21.0196 13.1054 20.7652 13 20.5 13H19.5ZM14.5 17C14.2348 17 13.9804 17.1054 13.7929 17.2929C13.6054 17.4804 13.5 17.7348 13.5 18V20C13.5 20.2652 13.6054 20.5196 13.7929 20.7071C13.9804 20.8946 14.2348 21 14.5 21C14.7652 21 15.0196 20.8946 15.2071 20.7071C15.3946 20.5196 15.5 20.2652 15.5 20V19H16.5C16.7652 19 17.0196 18.8946 17.2071 18.7071C17.3946 18.5196 17.5 18.2652 17.5 18C17.5 17.7348 17.3946 17.4804 17.2071 17.2929C17.0196 17.1054 16.7652 17 16.5 17H14.5ZM21.5 18C21.5 17.7348 21.3946 17.4804 21.2071 17.2929C21.0196 17.1054 20.7652 17 20.5 17C20.2348 17 19.9804 17.1054 19.7929 17.2929C19.6054 17.4804 19.5 17.7348 19.5 18V19H18.5C18.2348 19 17.9804 19.1054 17.7929 19.2929C17.6054 19.4804 17.5 19.7348 17.5 20C17.5 20.2652 17.6054 20.5196 17.7929 20.7071C17.9804 20.8946 18.2348 21 18.5 21H20.5C20.7652 21 21.0196 20.8946 21.2071 20.7071C21.3946 20.5196 21.5 20.2652 21.5 20V18ZM16.5 7C16.5 6.73478 16.6054 6.48043 16.7929 6.29289C16.9804 6.10536 17.2348 6 17.5 6H17.501C17.7662 6 18.0206 6.10536 18.2081 6.29289C18.3956 6.48043 18.501 6.73478 18.501 7C18.501 7.26522 18.3956 7.51957 18.2081 7.70711C18.0206 7.89464 17.7662 8 17.501 8H17.5C17.2348 8 16.9804 7.89464 16.7929 7.70711C16.6054 7.51957 16.5 7.26522 16.5 7ZM7.5 16C7.23478 16 6.98043 16.1054 6.79289 16.2929C6.60536 16.4804 6.5 16.7348 6.5 17C6.5 17.2652 6.60536 17.5196 6.79289 17.7071C6.98043 17.8946 7.23478 18 7.5 18H7.501C7.76622 18 8.02057 17.8946 8.20811 17.7071C8.39564 17.5196 8.501 17.2652 8.501 17C8.501 16.7348 8.39564 16.4804 8.20811 16.2929C8.02057 16.1054 7.76622 16 7.501 16H7.5Z" fill="#363537"/>
</svg>
