<svg width="24" height="27" viewBox="0 0 24 27" fill="none" xmlns="http://www.w3.org/2000/svg">
<path d="M12.0888 16.8337L9.99007 13.7995L12.0888 10.7674L14.1895 13.7995L12.0888 16.8337Z" stroke="#004832" stroke-width="0.7"/>
<path d="M6.11602 16.8336L4.01741 13.7995L6.11602 10.7675L8.21568 13.7995L6.11602 16.8336Z" stroke="#004832" stroke-width="0.7"/>
<path d="M18.0614 16.8337L15.9627 13.7995L18.0614 10.7674L20.1622 13.7995L18.0614 16.8337Z" stroke="#004832" stroke-width="0.7"/>
<path d="M15.0621 12.4385L13.2461 9.81558H16.878L15.0621 12.4385Z" stroke="#004832" stroke-width="0.7"/>
<path d="M9.11566 12.4385L7.30063 9.81558H10.9325L9.11566 12.4385Z" stroke="#004832" stroke-width="0.7"/>
<path d="M10.9328 26.5776H7.30115L9.11789 23.9558L10.9328 26.5776Z" stroke="#004832" stroke-width="0.7"/>
<path d="M16.8781 26.5776H13.2465L15.0632 23.9558L16.8781 26.5776Z" stroke="#004832" stroke-width="0.7"/>
<path d="M18.475 8.07572L16.66 5.45278H20.2919L18.475 8.07572Z" stroke="#004832" stroke-width="0.7"/>
<path d="M12.0887 7.4292L9.99007 4.39708L12.0887 1.36286L14.1895 4.39708L12.0887 7.4292Z" stroke="#004832" stroke-width="0.7"/>
<path d="M16.8778 8.38088H13.2459L15.061 5.75794L16.8778 8.38088Z" stroke="#004832" stroke-width="0.7"/>
<path d="M10.9324 8.38084H7.30077L9.11567 5.75901L10.9324 8.38084Z" stroke="#004832" stroke-width="0.7"/>
<path d="M5.70355 8.07572L3.88852 5.45278H7.52043L5.70355 8.07572Z" stroke="#004832" stroke-width="0.7"/>
<path d="M15.1024 21.2299L13.0037 18.1957L15.1024 15.1636L17.2032 18.1957L15.1024 21.2299Z" stroke="#004832" stroke-width="0.7"/>
<path d="M9.15711 21.2299L7.05842 18.1957L9.15711 15.1636L11.2579 18.1957L9.15711 21.2299Z" stroke="#004832" stroke-width="0.7"/>
<path d="M3.21374 21.2299L1.11507 18.1957L3.21374 15.1636L5.31451 18.1957L3.21374 21.2299Z" stroke="#004832" stroke-width="0.7"/>
<path d="M21.0477 21.2299L18.949 18.1957L21.0477 15.1636L23.1485 18.1957L21.0477 21.2299Z" stroke="#004832" stroke-width="0.7"/>
<path d="M12.0888 25.6253L9.99007 22.591L12.0887 19.5589L14.1895 22.5922L12.0888 25.6253Z" stroke="#004832" stroke-width="0.7"/>
<path d="M6.11607 25.6252L4.01741 22.591L6.11597 19.559L8.21568 22.5922L6.11607 25.6252Z" stroke="#004832" stroke-width="0.7"/>
<path d="M18.0614 25.6253L15.9627 22.591L18.0614 19.5589L20.1622 22.5922L18.0614 25.6253Z" stroke="#004832" stroke-width="0.7"/>
</svg>
