<svg width="44" height="38" viewBox="0 0 44 38" fill="none" xmlns="http://www.w3.org/2000/svg">
<path fill-rule="evenodd" clip-rule="evenodd" d="M43.5 5.56261C43.5 4.13704 42.9337 2.76986 41.9257 1.76183C40.9176 0.753804 39.5505 0.1875 38.1249 0.1875H16.6245C15.1989 0.1875 13.8317 0.753804 12.8237 1.76183C11.8156 2.76986 11.2493 4.13704 11.2493 5.56261V32.4382C11.2493 33.8637 10.683 35.2309 9.67501 36.2389C8.66698 37.247 7.2998 37.8133 5.87423 37.8133H38.1249C39.5505 37.8133 40.9176 37.247 41.9257 36.2389C42.9337 35.2309 43.5 33.8637 43.5 32.4382V5.56261ZM35.4373 8.25016H19.312V19.0004H35.4373V8.25016ZM19.312 24.3755H35.4373V29.7506H19.312V24.3755Z" fill="black"/>
<path d="M8.56348 10.9365H5.87592C4.45035 10.9365 3.08318 11.5028 2.07515 12.5109C1.06712 13.5189 0.500813 14.8861 0.500813 16.3116V31.0932C0.500813 32.1624 0.925543 33.1877 1.68156 33.9438C2.43759 34.6998 3.46297 35.1245 4.53214 35.1245C5.60132 35.1245 6.62671 34.6998 7.38273 33.9438C8.13875 33.1877 8.56348 32.1624 8.56348 31.0932V10.9365Z" fill="black"/>
</svg>
