<svg width="24" height="25" viewBox="0 0 24 25" fill="none" xmlns="http://www.w3.org/2000/svg">
<path fill-rule="evenodd" clip-rule="evenodd" d="M21.6001 6.15C21.6001 5.51348 21.3472 4.90303 20.8972 4.45294C20.4471 4.00286 19.8366 3.75 19.2001 3.75H9.6001C8.96358 3.75 8.35313 4.00286 7.90304 4.45294C7.45295 4.90303 7.2001 5.51348 7.2001 6.15V18.15C7.2001 18.7865 6.94724 19.397 6.49715 19.8471C6.04707 20.2971 5.43662 20.55 4.8001 20.55H19.2001C19.8366 20.55 20.4471 20.2971 20.8972 19.8471C21.3472 19.397 21.6001 18.7865 21.6001 18.15V6.15ZM18.0001 7.35H10.8001V12.15H18.0001V7.35ZM10.8001 14.55H18.0001V16.95H10.8001V14.55Z" stroke="white" stroke-width="1.75"/>
<path d="M6 8.5498H4.8C4.16348 8.5498 3.55303 8.80266 3.10294 9.25275C2.65286 9.70284 2.4 10.3133 2.4 10.9498V17.5498C2.4 18.0272 2.58964 18.485 2.92721 18.8226C3.26477 19.1602 3.72261 19.3498 4.2 19.3498C4.67739 19.3498 5.13523 19.1602 5.47279 18.8226C5.81036 18.485 6 18.0272 6 17.5498V8.5498Z" stroke="white" stroke-width="1.75"/>
</svg>
