<svg width="24" height="25" viewBox="0 0 24 25" fill="none" xmlns="http://www.w3.org/2000/svg">
<g opacity="0.6">
<path d="M22.0005 9.82005C21.9373 9.63714 21.8224 9.47647 21.6698 9.35755C21.5171 9.23862 21.3333 9.16654 21.1405 9.15005L15.4505 8.32005L12.9005 3.15005C12.8186 2.98098 12.6907 2.83839 12.5316 2.73862C12.3724 2.63885 12.1883 2.58594 12.0005 2.58594C11.8126 2.58594 11.6286 2.63885 11.4694 2.73862C11.3102 2.83839 11.1824 2.98098 11.1005 3.15005L8.55047 8.31005L2.86047 9.15005C2.67539 9.17635 2.50139 9.25401 2.35822 9.37421C2.21504 9.4944 2.10843 9.65232 2.05047 9.83005C1.99741 10.0037 1.99265 10.1886 2.03669 10.3647C2.08074 10.5409 2.17192 10.7018 2.30047 10.83L6.43047 14.83L5.43047 20.51C5.39009 20.6985 5.40502 20.8945 5.47345 21.0747C5.54188 21.2548 5.6609 21.4114 5.8162 21.5254C5.97149 21.6395 6.15644 21.7063 6.34879 21.7178C6.54115 21.7293 6.73272 21.6849 6.90047 21.59L12.0005 18.92L17.1005 21.59C17.2408 21.6692 17.3993 21.7106 17.5605 21.71C17.7723 21.7108 17.9789 21.6443 18.1505 21.52C18.3056 21.4089 18.4257 21.2557 18.4966 21.0785C18.5675 20.9013 18.5862 20.7075 18.5505 20.52L17.5505 14.84L21.6805 10.84C21.8248 10.7177 21.9316 10.557 21.9882 10.3764C22.0448 10.1958 22.0491 10.0029 22.0005 9.82005ZM11.0005 17.15L7.77047 18.85L8.49047 14.65C8.5167 14.4909 8.50403 14.3277 8.45353 14.1744C8.40304 14.0212 8.31621 13.8825 8.20047 13.77L5.20047 10.77L9.41047 10.16C9.57246 10.1375 9.72646 10.0756 9.85896 9.9797C9.99147 9.88381 10.0984 9.75689 10.1705 9.61005L11.0005 7.88005V17.15ZM15.8005 13.77C15.6847 13.8825 15.5979 14.0212 15.5474 14.1744C15.4969 14.3277 15.4842 14.4909 15.5105 14.65L16.2305 18.85L13.0005 17.15V7.88005L13.8805 9.67005C13.9525 9.81689 14.0595 9.94381 14.192 10.0397C14.3245 10.1356 14.4785 10.1975 14.6405 10.22L18.8505 10.83L15.8005 13.77Z" fill="white"/>
</g>
</svg>
