<svg width="25" height="25" viewBox="0 0 25 25" fill="none" xmlns="http://www.w3.org/2000/svg">
<g opacity="0.4">
<path fill-rule="evenodd" clip-rule="evenodd" d="M10.457 3.5C6.59104 3.5 3.45703 6.63401 3.45703 10.5C3.45703 14.366 6.59104 17.5 10.457 17.5C12.0294 17.5 13.4806 16.9816 14.6492 16.1064L18.75 20.2072C19.1405 20.5977 19.7737 20.5977 20.1642 20.2072C20.5547 19.8167 20.5547 19.1835 20.1642 18.793L16.0634 14.6922C16.9386 13.5236 17.457 12.0723 17.457 10.5C17.457 6.63401 14.323 3.5 10.457 3.5ZM5.45703 10.5C5.45703 7.73858 7.69561 5.5 10.457 5.5C13.2185 5.5 15.457 7.73858 15.457 10.5C15.457 13.2614 13.2185 15.5 10.457 15.5C7.69561 15.5 5.45703 13.2614 5.45703 10.5Z" fill="#040921"/>
</g>
</svg>
