<svg width="21" height="20" viewBox="0 0 21 20" fill="none" xmlns="http://www.w3.org/2000/svg">
<path d="M9.25548 17.5988C7.53965 17.5988 5.86235 17.09 4.43569 16.1368C3.00903 15.1835 1.89707 13.8286 1.24045 12.2434C0.583833 10.6582 0.412037 8.91383 0.746779 7.23096C1.08152 5.5481 1.90777 4.00229 3.12105 2.78901C4.33433 1.57574 5.88013 0.749488 7.56299 0.414746C9.24585 0.0800038 10.9902 0.251806 12.5754 0.908427C14.1606 1.56505 15.5155 2.67699 16.4688 4.10366C17.4221 5.53032 17.9309 7.20762 17.9309 8.92345C17.9282 11.2235 17.0133 13.4285 15.3869 15.0549C13.7606 16.6813 11.5555 17.5961 9.25548 17.5988ZM9.25548 1.81048C7.84704 1.81048 6.47023 2.22813 5.29916 3.01062C4.12809 3.7931 3.21536 4.90528 2.67637 6.2065C2.13739 7.50772 1.99637 8.93955 2.27114 10.3209C2.54591 11.7023 3.22414 12.9712 4.22006 13.9671C5.21597 14.963 6.48483 15.6412 7.8662 15.916C9.24757 16.1908 10.6794 16.0497 11.9806 15.5108C13.2819 14.9718 14.394 14.059 15.1765 12.888C15.959 11.7169 16.3766 10.3401 16.3766 8.93165C16.3766 7.04224 15.6266 5.2301 14.2914 3.89332C12.9562 2.55654 11.1449 1.80445 9.25548 1.80228V1.81048Z" fill="white"/>
<path d="M19.8037 19.7517C19.7016 19.7518 19.6005 19.7318 19.5062 19.6927C19.4119 19.6537 19.3263 19.5964 19.2542 19.5241L14.5382 14.8081C14.3924 14.6624 14.3105 14.4647 14.3105 14.2586C14.3105 14.0525 14.3924 13.8548 14.5382 13.7091C14.6839 13.5633 14.8816 13.4814 15.0877 13.4814C15.2938 13.4814 15.4915 13.5633 15.6372 13.7091L20.3532 18.4251C20.4619 18.5337 20.5359 18.6722 20.5659 18.823C20.5959 18.9737 20.5805 19.13 20.5217 19.272C20.4629 19.414 20.3632 19.5354 20.2354 19.6207C20.1076 19.7061 19.9574 19.7517 19.8037 19.7517Z" fill="white"/>
<path d="M7.12891 8.92126L9.26342 5.8374L11.3979 8.92126L9.26342 12.0072L7.12891 8.92126Z" fill="white"/>
</svg>
