<svg width="36" height="35" viewBox="0 0 36 35" fill="none" xmlns="http://www.w3.org/2000/svg">
<path d="M15.7056 30.8457C12.692 30.8457 9.74614 29.9521 7.24046 28.2779C4.73478 26.6036 2.78182 24.224 1.62858 21.4398C0.475344 18.6556 0.173614 15.592 0.761531 12.6363C1.34945 9.68069 2.80062 6.96575 4.93153 4.83484C7.06244 2.70393 9.77737 1.25276 12.733 0.664848C15.6887 0.0769319 18.7523 0.378673 21.5365 1.53191C24.3206 2.68515 26.7003 4.63809 28.3746 7.14378C30.0488 9.64946 30.9424 12.5953 30.9424 15.6089C30.9377 19.6485 29.3308 23.5213 26.4744 26.3777C23.618 29.2341 19.7452 30.841 15.7056 30.8457ZM15.7056 3.11622C13.2319 3.11622 10.8138 3.84975 8.75701 5.22404C6.70022 6.59834 5.09716 8.55168 4.15053 10.8371C3.20389 13.1224 2.95622 15.6372 3.43881 18.0633C3.9214 20.4895 5.11259 22.718 6.86174 24.4672C8.61089 26.2163 10.8394 27.4075 13.2656 27.8901C15.6917 28.3727 18.2065 28.125 20.4918 27.1784C22.7772 26.2317 24.7306 24.6287 26.1049 22.5719C27.4792 20.5151 28.2127 18.097 28.2127 15.6233C28.2127 12.3049 26.8954 9.12218 24.5503 6.77436C22.2052 4.42654 19.024 3.10563 15.7056 3.10181V3.11622Z" fill="white"/>
<path d="M34.2317 34.6269C34.0525 34.6271 33.8749 34.5919 33.7093 34.5233C33.5437 34.4547 33.3932 34.354 33.2666 34.2271L24.9838 25.9443C24.7278 25.6883 24.584 25.3412 24.584 24.9792C24.584 24.6172 24.7278 24.27 24.9838 24.014C25.2397 23.7581 25.5869 23.6143 25.9489 23.6143C26.3109 23.6143 26.658 23.7581 26.914 24.014L35.1969 32.2969C35.3878 32.4878 35.5177 32.731 35.5704 32.9957C35.6231 33.2605 35.5961 33.5349 35.4928 33.7843C35.3895 34.0337 35.2145 34.2469 34.99 34.3969C34.7656 34.5468 34.5017 34.6269 34.2317 34.6269Z" fill="white"/>
<path d="M11.9707 15.605L15.7196 10.1887L19.4685 15.605L15.7196 21.0248L11.9707 15.605Z" fill="white"/>
</svg>
