<svg width="24" height="25" viewBox="0 0 14 13" fill="none" xmlns="http://www.w3.org/2000/svg">
<g clip-path="url(#clip0_2689_289)">
<path d="M12.3997 9.24715C12.3995 9.97082 12.1521 10.6727 11.6986 11.2366C11.2451 11.8005 10.6126 12.1927 9.90578 12.3481L9.56817 11.3352C9.87733 11.2843 10.1713 11.1655 10.429 10.9872C10.6867 10.809 10.9016 10.5758 11.0583 10.3044H9.75391C9.47322 10.3044 9.20403 10.1929 9.00555 9.99445C8.80708 9.79597 8.69557 9.52678 8.69557 9.24609V7.12943C8.69557 6.84874 8.80708 6.57955 9.00555 6.38107C9.20403 6.1826 9.47322 6.07109 9.75391 6.07109H11.3086C11.1795 5.04816 10.6815 4.1075 9.90812 3.42562C9.13475 2.74374 8.13913 2.3675 7.10807 2.3675C6.07702 2.3675 5.0814 2.74374 4.30803 3.42562C3.53465 4.1075 3.03668 5.04816 2.90755 6.07109H4.46224C4.74293 6.07109 5.01212 6.1826 5.21059 6.38107C5.40907 6.57955 5.52057 6.84874 5.52057 7.12943V9.24609C5.52057 9.52678 5.40907 9.79597 5.21059 9.99445C5.01212 10.1929 4.74293 10.3044 4.46224 10.3044H2.87474C2.59405 10.3044 2.32486 10.1929 2.12638 9.99445C1.92791 9.79597 1.81641 9.52678 1.81641 9.24609V6.60026C1.81641 3.67767 4.18549 1.30859 7.10807 1.30859C10.0307 1.30859 12.3997 3.67767 12.3997 6.60026V9.24715ZM11.3414 9.24609V7.12943H9.75391V9.24609H11.3414ZM2.87474 7.12943V9.24609H4.46224V7.12943H2.87474Z" fill="#FFF"/>
</g>
<defs>
<clipPath id="clip0_2689_289">
<rect width="12.7" height="12.7" fill="white" transform="translate(0.757812 0.25)"/>
</clipPath>
</defs>
</svg>
