<svg width="54" height="54" viewBox="0 0 54 54" fill="none" xmlns="http://www.w3.org/2000/svg">
<path fill-rule="evenodd" clip-rule="evenodd" d="M29.2777 4.5C32.8725 4.5 35.811 7.31007 36.0163 10.8534L36.0278 11.25V11.4115L36.1676 11.3308C39.2766 9.53585 43.2198 10.4951 45.1721 13.4515L45.3883 13.8014L47.6383 17.6986C49.4332 20.8075 48.474 24.7507 45.5176 26.703L45.1676 26.9192L45.028 26.9999L45.1678 27.0806C48.2767 28.8755 49.4176 32.7701 47.8334 35.939L47.6384 36.3013L45.3884 40.1984C43.5935 43.3073 39.6989 44.4482 36.53 42.864L36.1678 42.6691L36.0277 42.5882V42.75C36.0277 46.3448 33.2177 49.2832 29.6744 49.4885L29.2777 49.5H24.7777C21.183 49.5 18.2445 46.6899 18.0392 43.1466L18.0277 42.75V42.5885L17.8878 42.6692C14.7789 44.4642 10.8357 43.5049 8.88344 40.5485L8.66717 40.1986L6.41717 36.3014C4.62225 33.1925 5.58151 29.2493 8.53791 27.297L8.88785 27.0808L9.02796 26.9999L8.88797 26.919C5.77907 25.1241 4.63819 21.2295 6.22238 18.0606L6.4173 17.6984L8.6673 13.8013C10.4622 10.6924 14.3568 9.55148 17.5257 11.1357L17.888 11.3306L18.0278 11.4113L18.0277 11.25C18.0277 7.65522 20.8378 4.71676 24.3811 4.51146L24.7778 4.5H29.2777ZM26.8867 15.75C20.6735 15.75 15.6367 20.7868 15.6367 27C15.6367 33.2132 20.6735 38.25 26.8867 38.25C33.0999 38.25 38.1367 33.2132 38.1367 27C38.1367 20.7868 33.0999 15.75 26.8867 15.75ZM26.8867 20.25C30.6146 20.25 33.6367 23.2721 33.6367 27C33.6367 30.7279 30.6146 33.75 26.8867 33.75C23.1588 33.75 20.1367 30.7279 20.1367 27C20.1367 23.2721 23.1588 20.25 26.8867 20.25Z" fill="black"/>
</svg>
