<svg width="24" height="25" viewBox="0 0 24 25" fill="none" xmlns="http://www.w3.org/2000/svg">
<g opacity="0.6">
<path fill-rule="evenodd" clip-rule="evenodd" d="M12.5627 2.15039C14.1604 2.15039 15.4663 3.39931 15.5576 4.97412L15.5627 5.15039V5.22219L15.6249 5.18629C17.0066 4.38855 18.7591 4.81488 19.6268 6.12884L19.7229 6.28437L20.7229 8.01642C21.5207 9.39815 21.0943 11.1507 19.7804 12.0184L19.6249 12.1145L19.5628 12.1503L19.6249 12.1862C21.0066 12.984 21.5137 14.7149 20.8096 16.1233L20.723 16.2843L19.723 18.0163C18.9252 19.3981 17.1943 19.9051 15.7859 19.201L15.6249 19.1144L15.5627 19.0785V19.1504C15.5627 20.7481 14.3138 22.0541 12.739 22.1453L12.5627 22.1504H10.5627C8.965 22.1504 7.65902 20.9015 7.56777 19.3267L7.56268 19.1504V19.0786L7.5005 19.1145C6.11876 19.9122 4.36621 19.4859 3.49854 18.1719L3.40242 18.0164L2.40242 16.2844C1.60468 14.9026 2.03102 13.1501 3.34497 12.2824L3.5005 12.1863L3.56277 12.1503L3.50056 12.1144C2.11882 11.3167 1.61177 9.58574 2.31585 8.17734L2.40248 8.01634L3.40248 6.28428C4.20023 4.90255 5.93115 4.39549 7.33955 5.09957L7.50056 5.18621L7.56268 5.22207L7.56268 5.15039C7.56268 3.55271 8.8116 2.24673 10.3864 2.15548L10.5627 2.15039H12.5627ZM12.5627 4.15039H10.5627C10.0104 4.15039 9.56271 4.59807 9.56268 5.15033V5.22208C9.56267 6.76163 7.8961 7.72388 6.56277 6.95417L6.50056 6.91826C6.02227 6.64212 5.41068 6.80599 5.13453 7.28429L4.13453 9.01634C3.85839 9.49463 4.02227 10.1062 4.50056 10.3824L4.56269 10.4182C5.89611 11.188 5.89615 13.1126 4.56277 13.8824L4.5005 13.9183C4.02221 14.1945 3.85833 14.8061 4.13447 15.2844L5.13448 17.0164C5.41062 17.4947 6.02221 17.6586 6.5005 17.3824L6.56269 17.3465C7.89602 16.5767 9.56267 17.539 9.56268 19.0786V19.1504C9.56268 19.7027 10.0104 20.1504 10.5627 20.1504H12.5627C13.115 20.1504 13.5627 19.7027 13.5627 19.1504V19.0785C13.5627 17.5885 15.1236 16.6393 16.4328 17.2773L16.6249 17.3824C17.1032 17.6585 17.7148 17.4946 17.9909 17.0163L18.9909 15.2843C19.2671 14.806 19.1032 14.1944 18.6249 13.9183L18.5627 13.8823C17.2295 13.1125 17.2295 11.1881 18.5628 10.4183L18.6249 10.3824C19.1032 10.1063 19.267 9.4947 18.9909 9.01642L17.9909 7.28437C17.7147 6.80607 17.1031 6.6422 16.6249 6.91834L16.5627 6.95423C15.2294 7.72404 13.5627 6.76179 13.5627 5.22218V5.15039C13.5627 4.59811 13.115 4.15039 12.5627 4.15039ZM11.5625 8.15033C13.7716 8.15033 15.5625 9.94119 15.5625 12.1503C15.5625 14.3595 13.7716 16.1503 11.5625 16.1503C9.35336 16.1503 7.5625 14.3595 7.5625 12.1503C7.5625 9.94119 9.35336 8.15033 11.5625 8.15033ZM11.5625 10.1503C10.4579 10.1503 9.5625 11.0458 9.5625 12.1503C9.5625 13.2549 10.4579 14.1503 11.5625 14.1503C12.6671 14.1503 13.5625 13.2549 13.5625 12.1503C13.5625 11.0458 12.6671 10.1503 11.5625 10.1503Z" fill="white"/>
</g>
</svg>
