<svg width="26" height="23" viewBox="0 0 26 23" fill="none" xmlns="http://www.w3.org/2000/svg">
<path d="M14.7578 10.7645L17.265 7.14502L19.7723 10.7645L17.265 14.3877L14.7578 10.7645Z" fill="#004832"/>
<path d="M25.5548 10.4544L15.0522 0.850844C14.9258 0.736466 14.7439 0.706933 14.5879 0.775667C14.4318 0.844402 14.3308 0.998518 14.3299 1.1691V5.15445C10.4085 4.89527 6.89103 6.12209 4.38269 8.63163C2.57947 10.4311 1.34619 12.7215 0.836594 15.2173C0.326815 17.7132 0.56327 20.3041 1.51642 22.6663C1.58247 22.8293 1.74052 22.9362 1.91648 22.9364C2.09279 22.9356 2.25102 22.8279 2.31618 22.6639C4.82855 16.3184 9.30692 16.2538 14.0477 16.186C14.1417 16.186 14.2368 16.1833 14.3291 16.1818L14.3293 20.3762C14.3298 20.547 14.431 20.7015 14.5874 20.7704C14.7437 20.8391 14.9259 20.8094 15.0523 20.6943L25.5549 11.0907C25.6439 11.0089 25.6945 10.8935 25.6945 10.7727C25.6945 10.6517 25.6439 10.5362 25.5549 10.4544L25.5548 10.4544ZM15.1919 19.3977V15.7431C15.1923 15.6271 15.1459 15.516 15.0634 15.4347C14.9807 15.3532 14.8688 15.3087 14.753 15.3108C14.5139 15.3151 14.2746 15.3183 14.0356 15.3219C9.47071 15.3878 4.75742 15.4556 1.95902 21.3265C1.32162 19.2262 1.26718 16.9922 1.8015 14.8632C2.33579 12.7344 3.43875 10.7907 4.99247 9.24031C7.11769 7.11509 10.0344 5.98221 13.3148 5.98221C13.7764 5.98221 14.2447 6.00476 14.7194 6.05005C14.8402 6.06133 14.9601 6.02123 15.05 5.93961C15.1398 5.8578 15.1912 5.74217 15.1914 5.62082V2.14776L24.6254 10.773L15.1919 19.3977Z" fill="#004832"/>
</svg>
