<svg width="54" height="54" viewBox="0 0 54 54" fill="none" xmlns="http://www.w3.org/2000/svg">
<path d="M27.0003 41.1189L17.6628 46.7439C17.2503 47.0064 16.8191 47.1189 16.3691 47.0814C15.9191 47.0439 15.5253 46.8939 15.1878 46.6314C14.8503 46.3689 14.5878 46.0412 14.4003 45.6482C14.2128 45.2537 14.1753 44.8127 14.2878 44.3252L16.7628 33.6939L8.49409 26.5502C8.11909 26.2127 7.88509 25.8279 7.79209 25.3959C7.69759 24.9654 7.72534 24.5439 7.87534 24.1314C8.02534 23.7189 8.25034 23.3814 8.55034 23.1189C8.85034 22.8564 9.26284 22.6877 9.78784 22.6127L20.7003 21.6564L24.9191 11.6439C25.1066 11.1939 25.3976 10.8564 25.7921 10.6314C26.1851 10.4064 26.5878 10.2939 27.0003 10.2939C27.4128 10.2939 27.8163 10.4064 28.2108 10.6314C28.6038 10.8564 28.8941 11.1939 29.0816 11.6439L33.3003 21.6564L44.2128 22.6127C44.7378 22.6877 45.1503 22.8564 45.4503 23.1189C45.7503 23.3814 45.9753 23.7189 46.1253 24.1314C46.2753 24.5439 46.3038 24.9654 46.2108 25.3959C46.1163 25.8279 45.8816 26.2127 45.5066 26.5502L37.2378 33.6939L39.7128 44.3252C39.8253 44.8127 39.7878 45.2537 39.6003 45.6482C39.4128 46.0412 39.1503 46.3689 38.8128 46.6314C38.4753 46.8939 38.0816 47.0439 37.6316 47.0814C37.1816 47.1189 36.7503 47.0064 36.3378 46.7439L27.0003 41.1189Z" fill="black"/>
</svg>
