<svg width="27" height="25" viewBox="0 0 27 25" fill="none" xmlns="http://www.w3.org/2000/svg">
<path d="M9.63004 10.246L7.35499 13.5346L5.07812 10.246L7.35499 6.95728L9.63004 10.246Z" fill="#004832"/>
<path d="M22.4777 22.0198H3.65859C3.26325 22.0198 2.88404 21.8627 2.60449 21.5832C2.32495 21.3036 2.16797 20.9245 2.16797 20.5291V5.14223C2.16797 4.74689 2.32495 4.36775 2.60449 4.0882C2.88404 3.80866 3.26325 3.65161 3.65859 3.65161H22.4777C22.873 3.65161 23.252 3.80866 23.5316 4.0882C23.8111 4.36775 23.9683 4.74689 23.9683 5.14223V20.5291C23.9683 20.9245 23.8111 21.3036 23.5316 21.5832C23.252 21.8627 22.873 22.0198 22.4777 22.0198ZM3.65859 4.39692C3.46092 4.39692 3.27122 4.47543 3.13145 4.61521C2.99168 4.75498 2.91328 4.94456 2.91328 5.14223V20.5291C2.91328 20.7268 2.99168 20.9164 3.13145 21.0562C3.27122 21.1959 3.46092 21.2744 3.65859 21.2744H22.4777C22.6753 21.2744 22.8648 21.1959 23.0046 21.0562C23.1444 20.9164 23.223 20.7268 23.223 20.5291V5.14223C23.223 4.94456 23.1444 4.75498 23.0046 4.61521C22.8648 4.47543 22.6753 4.39692 22.4777 4.39692H3.65859Z" fill="#004832"/>
<path d="M23.597 18.6402C23.5098 18.6402 23.4253 18.6097 23.3583 18.5539C23.2913 18.4981 23.2461 18.4206 23.2304 18.3348C23.2146 18.249 23.2294 18.1605 23.2722 18.0845C23.3151 18.0086 23.3832 17.95 23.4647 17.9191L24.8604 17.3881C24.9519 17.3534 25.0357 17.3009 25.1069 17.2338C25.1782 17.1667 25.2355 17.0862 25.2756 16.9969C25.3158 16.9076 25.3378 16.8113 25.3408 16.7135C25.3437 16.6156 25.3273 16.5181 25.2925 16.4266L23.2429 11.0399C23.2256 10.9942 23.2175 10.9454 23.2189 10.8965C23.2204 10.8476 23.2314 10.7994 23.2515 10.7548C23.2716 10.7102 23.3003 10.6699 23.3359 10.6363C23.3715 10.6028 23.4133 10.5766 23.4591 10.5592C23.5049 10.5418 23.5536 10.5336 23.6025 10.5351C23.6514 10.5365 23.6996 10.5476 23.7442 10.5677C23.7889 10.5878 23.8291 10.6164 23.8627 10.6521C23.8963 10.6877 23.9225 10.7296 23.9398 10.7753L25.9894 16.1621C26.059 16.3451 26.0917 16.54 26.0859 16.7357C26.0801 16.9314 26.0357 17.124 25.9554 17.3026C25.8751 17.4812 25.7606 17.6422 25.6181 17.7764C25.4755 17.9106 25.308 18.0155 25.125 18.085L23.7293 18.616C23.6871 18.632 23.6422 18.6402 23.597 18.6402Z" fill="#004832"/>
<path d="M20.9836 4.39713C20.908 4.39714 20.8342 4.37415 20.772 4.33122C20.7097 4.28829 20.662 4.22744 20.6351 4.15676L19.8321 2.04195C19.762 1.85757 19.6215 1.70852 19.4417 1.62749C19.2618 1.54646 19.0571 1.54006 18.8725 1.60968L11.589 4.37291C11.4966 4.40799 11.394 4.40494 11.3038 4.3644C11.2137 4.32387 11.1433 4.24917 11.1082 4.15676C11.0731 4.06435 11.0763 3.96178 11.1168 3.87163C11.1573 3.78148 11.232 3.71113 11.3244 3.67605L18.6079 0.912796C18.7909 0.843279 18.9859 0.810507 19.1816 0.816334C19.3773 0.822162 19.5699 0.866493 19.7484 0.946777C19.927 1.02706 20.088 1.14173 20.2223 1.28425C20.3565 1.42676 20.4614 1.59432 20.5309 1.77736L21.332 3.89219C21.3494 3.93795 21.3577 3.98668 21.3562 4.0356C21.3548 4.08452 21.3436 4.13268 21.3235 4.17732C21.3034 4.22196 21.2749 4.2622 21.2392 4.29576C21.2036 4.32932 21.1616 4.35554 21.1159 4.37291C21.0737 4.38919 21.0288 4.3974 20.9836 4.39713Z" fill="#004832"/>
<path d="M2.54732 15.1406C2.47172 15.1406 2.39776 15.1176 2.33552 15.0747C2.27329 15.0318 2.22571 14.9709 2.19887 14.9002L0.149269 9.50977C0.0094524 9.14036 0.0219211 8.73057 0.184024 8.37038C0.346126 8.0102 0.644542 7.72907 1.01376 7.58875L2.41122 7.05772C2.45697 7.04035 2.50568 7.03215 2.5546 7.03361C2.60353 7.03507 2.65171 7.04616 2.69635 7.06623C2.74099 7.0863 2.78125 7.11497 2.81481 7.15059C2.84837 7.18622 2.87458 7.22809 2.89196 7.27385C2.90933 7.3196 2.91744 7.36833 2.91598 7.41725C2.91452 7.46618 2.90348 7.51434 2.88341 7.55898C2.86333 7.60362 2.83478 7.64387 2.79916 7.67743C2.76353 7.71099 2.72155 7.73721 2.67579 7.75459L1.27833 8.28561C1.09395 8.35578 0.944859 8.49618 0.863827 8.67606C0.782796 8.85593 0.776376 9.06061 0.845995 9.2452L2.8956 14.6356C2.91298 14.6814 2.92125 14.7301 2.9198 14.7791C2.91834 14.828 2.9073 14.8761 2.88723 14.9208C2.86716 14.9654 2.83843 15.0057 2.8028 15.0392C2.76717 15.0728 2.72537 15.099 2.67961 15.1164C2.63742 15.1327 2.59255 15.1409 2.54732 15.1406Z" fill="#004832"/>
<path d="M7.00788 24.8595C6.70515 24.8579 6.40992 24.7651 6.16067 24.5933C5.91142 24.4214 5.71969 24.1786 5.61042 23.8962L4.80743 21.7796C4.77235 21.6869 4.77546 21.5841 4.81617 21.4938C4.85688 21.4034 4.93185 21.333 5.02451 21.2979C5.11717 21.2628 5.21986 21.266 5.31019 21.3067C5.40052 21.3474 5.47107 21.4223 5.50616 21.515L6.30733 23.6335C6.34224 23.7251 6.39485 23.8089 6.46218 23.8801C6.52951 23.9513 6.61034 24.0085 6.69982 24.0485C6.7893 24.0885 6.88571 24.1104 6.98368 24.1131C7.08165 24.1157 7.17913 24.099 7.27063 24.0639L14.5541 21.2988C14.5999 21.2815 14.6486 21.2733 14.6975 21.2747C14.7464 21.2762 14.7946 21.2873 14.8393 21.3073C14.8839 21.3274 14.9242 21.3561 14.9577 21.3917C14.9913 21.4273 15.0175 21.4692 15.0349 21.515C15.0523 21.5607 15.0605 21.6095 15.0591 21.6584C15.0576 21.7073 15.0464 21.7555 15.0263 21.8001C15.0063 21.8447 14.9777 21.885 14.9421 21.9185C14.9065 21.9521 14.8645 21.9783 14.8187 21.9957L7.53338 24.7608C7.36575 24.8256 7.18759 24.8591 7.00788 24.8595Z" fill="#004832"/>
<path d="M20.9087 7.79218H12.9488C12.85 7.79218 12.7552 7.75292 12.6853 7.68303C12.6155 7.61314 12.5762 7.51836 12.5762 7.41953C12.5762 7.3207 12.6155 7.22591 12.6853 7.15603C12.7552 7.08614 12.85 7.04688 12.9488 7.04688H20.9087C21.0075 7.04688 21.1025 7.08614 21.1723 7.15603C21.2422 7.22591 21.2813 7.3207 21.2813 7.41953C21.2813 7.51836 21.2422 7.61314 21.1723 7.68303C21.1025 7.75292 21.0075 7.79218 20.9087 7.79218Z" fill="#004832"/>
<path d="M20.9087 10.5722H12.9488C12.85 10.5722 12.7552 10.5329 12.6853 10.4631C12.6155 10.3932 12.5762 10.2984 12.5762 10.1996C12.5762 10.1007 12.6155 10.0059 12.6853 9.93604C12.7552 9.86615 12.85 9.8269 12.9488 9.8269H20.9087C21.0075 9.8269 21.1025 9.86615 21.1723 9.93604C21.2422 10.0059 21.2813 10.1007 21.2813 10.1996C21.2813 10.2984 21.2422 10.3932 21.1723 10.4631C21.1025 10.5329 21.0075 10.5722 20.9087 10.5722Z" fill="#004832"/>
<path d="M20.9087 13.5327H12.9488C12.85 13.5327 12.7552 13.4934 12.6853 13.4235C12.6155 13.3536 12.5762 13.2588 12.5762 13.16C12.5762 13.0612 12.6155 12.9664 12.6853 12.8965C12.7552 12.8266 12.85 12.7874 12.9488 12.7874H20.9087C21.0075 12.7874 21.1025 12.8266 21.1723 12.8965C21.2422 12.9664 21.2813 13.0612 21.2813 13.16C21.2813 13.2588 21.2422 13.3536 21.1723 13.4235C21.1025 13.4934 21.0075 13.5327 20.9087 13.5327Z" fill="#004832"/>
<path d="M20.9077 16.4934H5.06992C4.97109 16.4934 4.87633 16.4541 4.80644 16.3842C4.73656 16.3143 4.69727 16.2195 4.69727 16.1207C4.69727 16.0219 4.73656 15.9271 4.80644 15.8572C4.87633 15.7873 4.97109 15.748 5.06992 15.748H20.9077C21.0066 15.748 21.1015 15.7873 21.1714 15.8572C21.2413 15.9271 21.2804 16.0219 21.2804 16.1207C21.2804 16.2195 21.2413 16.3143 21.1714 16.3842C21.1015 16.4541 21.0066 16.4934 20.9077 16.4934Z" fill="#004832"/>
<path d="M20.9077 19.2531H5.06992C4.97109 19.2531 4.87633 19.2139 4.80644 19.144C4.73656 19.0741 4.69727 18.9793 4.69727 18.8805C4.69727 18.7816 4.73656 18.6869 4.80644 18.617C4.87633 18.5471 4.97109 18.5078 5.06992 18.5078H20.9077C21.0066 18.5078 21.1015 18.5471 21.1714 18.617C21.2413 18.6869 21.2804 18.7816 21.2804 18.8805C21.2804 18.9793 21.2413 19.0741 21.1714 19.144C21.1015 19.2139 21.0066 19.2531 20.9077 19.2531Z" fill="#004832"/>
</svg>
