<svg width="22" height="19" viewBox="0 0 22 19" fill="none" xmlns="http://www.w3.org/2000/svg">
<path d="M18.6161 12.6381L16.6526 15.4764L14.6875 12.6381L16.6526 9.7998L18.6161 12.6381Z" fill="#FFE252"/>
<path d="M14.1641 3.78223H7.5402V5.43055C7.5381 5.64315 7.45277 5.84644 7.30243 5.99678C7.15209 6.14712 6.94874 6.23251 6.73614 6.2346C6.52367 6.2321 6.32056 6.14658 6.17031 5.99633C6.02006 5.84608 5.93458 5.64302 5.93208 5.43055V3.78223H1.96487C1.70897 3.78223 1.46362 3.88388 1.28268 4.06482C1.10173 4.24577 1 4.4912 1 4.7471V16.7115C1 16.9674 1.10173 17.2128 1.28268 17.3937C1.46362 17.5747 1.70897 17.6763 1.96487 17.6763H20.0288C20.2847 17.6763 20.5301 17.5747 20.711 17.3937C20.892 17.2128 20.9937 16.9674 20.9937 16.7115V4.7471C20.9937 4.4912 20.892 4.24577 20.711 4.06482C20.5301 3.88388 20.2847 3.78223 20.0288 3.78223H15.7769" stroke="#FFE252" stroke-width="1.5" stroke-linecap="round" stroke-linejoin="round"/>
<path d="M7.53934 3.78223V2.13391C7.53934 1.91917 7.45406 1.71322 7.30221 1.56137C7.15037 1.40953 6.94438 1.32422 6.72963 1.32422C6.51489 1.32422 6.30906 1.40953 6.15721 1.56137C6.00537 1.71322 5.91992 1.91917 5.91992 2.13391V3.78223" stroke="#FFE252" stroke-width="1.5" stroke-linecap="round" stroke-linejoin="round"/>
<path d="M15.7833 2.13396C15.7833 1.68634 15.4208 1.32349 14.9736 1.32349C14.5264 1.32349 14.1641 1.68634 14.1641 2.13396V5.4306C14.1641 5.87822 14.5264 6.2411 14.9736 6.2411C15.4208 6.2411 15.7833 5.87822 15.7833 5.4306V2.13396Z" stroke="#FFE252" stroke-width="1.5" stroke-linecap="round" stroke-linejoin="round"/>
<path d="M1.00586 7.85083H20.9996" stroke="#FFE252" stroke-width="1.5" stroke-linecap="round" stroke-linejoin="round"/>
<path d="M6.50048 11.4016H3.63477V14.2673H6.50048V11.4016Z" stroke="#FFE252" stroke-width="1.5" stroke-linecap="round" stroke-linejoin="round"/>
<path d="M12.436 11.4016H9.57031V14.2673H12.436V11.4016Z" stroke="#FFE252" stroke-width="1.5" stroke-linecap="round" stroke-linejoin="round"/>
</svg>
