<svg width="20" height="29" viewBox="0 0 20 29" fill="none" xmlns="http://www.w3.org/2000/svg">
<path d="M12.9559 12.9754L9.99934 17.2432L7.04297 12.9754L9.99934 8.70288L12.9559 12.9754Z" fill="#FFE252"/>
<path d="M18.9989 10.7277C18.9989 15.6976 9.99885 27.4115 9.99885 27.4115C9.99885 27.4115 1.00107 15.6976 1.00107 10.7277C0.982625 9.53424 1.20186 8.34903 1.64581 7.24107C2.08977 6.13311 2.7495 5.12452 3.58696 4.27403C4.42441 3.42353 5.4228 2.7481 6.52377 2.28708C7.62474 1.82605 8.8063 1.58862 9.9999 1.58862C11.1935 1.58862 12.3753 1.82605 13.4762 2.28708C14.5772 2.7481 15.5754 3.42353 16.4128 4.27403C17.2503 5.12452 17.9102 6.13311 18.3542 7.24107C18.7981 8.34903 19.0174 9.53424 18.9989 10.7277Z" stroke="#FFE252" stroke-width="1.5" stroke-linecap="round" stroke-linejoin="round"/>
</svg>
