<svg width="22" height="23" viewBox="0 0 22 23" fill="none" xmlns="http://www.w3.org/2000/svg">
<path d="M13.0785 15.7511L10.9962 18.7568L8.91406 15.7511L10.9962 12.7419L13.0785 15.7511Z" fill="#FFE252"/>
<path d="M8.46134 3.57495L7.65547 6.75105L7.31469 8.10567C7.14261 8.76839 6.74412 9.35006 6.18834 9.74995C5.61218 10.1705 4.91667 10.3956 4.20337 10.3923C3.38784 10.4025 2.5979 10.1077 1.98828 9.56593V21.5751H20.0122V9.56763" stroke="#FFE252" stroke-width="1.5" stroke-linecap="round" stroke-linejoin="round"/>
<path d="M13.5306 3.57666L13.4199 3.49829" stroke="#FFE252" stroke-width="1.5" stroke-linecap="round" stroke-linejoin="round"/>
<path d="M1.98361 9.56769C0.915253 8.60328 0.608475 6.97944 1.61038 5.69128L4.44065 2.07045C4.60215 1.86818 4.80768 1.70535 5.04151 1.59434C5.27534 1.48333 5.53131 1.42706 5.79014 1.42978H9.01227L8.46698 3.58013" stroke="#FFE252" stroke-width="1.5" stroke-linecap="round" stroke-linejoin="round"/>
<path d="M17.659 2.19655L20.3853 5.69299C21.9188 7.6542 20.4023 10.3941 17.7953 10.3941C16.3129 10.3941 15.0248 9.44843 14.684 8.10915L12.9902 1.42468H16.0267C16.3394 1.42132 16.6489 1.48905 16.9317 1.62276C17.2145 1.75647 17.4632 1.95267 17.659 2.19655Z" stroke="#FFE252" stroke-width="1.5" stroke-linecap="round" stroke-linejoin="round"/>
<path d="M11.1362 10.3957H10.7664C8.70809 10.3957 7.18824 8.6134 7.65511 6.75443L8.46098 3.57832L9.00627 1.42798H12.8947L13.4195 3.50165L14.2458 6.75443C14.7195 8.6117 13.1979 10.3957 11.1362 10.3957Z" stroke="#FFE252" stroke-width="1.5" stroke-linecap="round" stroke-linejoin="round"/>
</svg>
