<svg width="24" height="25" viewBox="0 0 24 25" fill="none" xmlns="http://www.w3.org/2000/svg">
<g opacity="0.6">
<mask id="path-1-inside-1_2071_6590" fill="white">
<path d="M16 17.1504V19.1504H2V17.1504C2 17.1504 2 13.1504 9 13.1504C16 13.1504 16 17.1504 16 17.1504ZM12.5 7.65044C12.5 6.95821 12.2947 6.28152 11.9101 5.70595C11.5256 5.13038 10.9789 4.68177 10.3394 4.41686C9.69985 4.15196 8.99612 4.08265 8.31718 4.21769C7.63825 4.35274 7.01461 4.68609 6.52513 5.17557C6.03564 5.66505 5.7023 6.28869 5.56725 6.96763C5.4322 7.64656 5.50152 8.35029 5.76642 8.98983C6.03133 9.62938 6.47993 10.176 7.0555 10.5606C7.63108 10.9452 8.30777 11.1504 9 11.1504C9.92826 11.1504 10.8185 10.7817 11.4749 10.1253C12.1313 9.46894 12.5 8.5787 12.5 7.65044ZM15.94 13.1504C16.5547 13.6262 17.0578 14.2309 17.4137 14.922C17.7696 15.613 17.9697 16.3737 18 17.1504V19.1504H22V17.1504C22 17.1504 22 13.5204 15.94 13.1504ZM15 4.15044C14.3117 4.14661 13.6385 4.3524 13.07 4.74044C13.6774 5.58918 14.0041 6.60673 14.0041 7.65044C14.0041 8.69416 13.6774 9.71171 13.07 10.5604C13.6385 10.9485 14.3117 11.1543 15 11.1504C15.9283 11.1504 16.8185 10.7817 17.4749 10.1253C18.1313 9.46894 18.5 8.5787 18.5 7.65044C18.5 6.72219 18.1313 5.83195 17.4749 5.17557C16.8185 4.51919 15.9283 4.15044 15 4.15044Z"/>
</mask>
<path d="M16 19.1504V21.1504H18V19.1504H16ZM2 19.1504H0V21.1504H2V19.1504ZM18 17.1504H20V17.1115L19.9985 17.0725L18 17.1504ZM18 19.1504H16V21.1504H18V19.1504ZM22 19.1504V21.1504H24V19.1504H22ZM22 17.1504H24H22ZM13.07 4.74044L11.9425 3.08856L10.2534 4.24145L11.4436 5.90444L13.07 4.74044ZM13.07 10.5604L11.4436 9.39644L10.2534 11.0594L11.9425 12.2123L13.07 10.5604ZM15 11.1504V9.15041L14.9889 9.15047L15 11.1504ZM14 17.1504V19.1504H18V17.1504H14ZM16 17.1504H2V21.1504H16V17.1504ZM4 19.1504V17.1504H0V19.1504H4ZM2 17.1504C4 17.1504 4 17.1521 4 17.1538C4 17.1544 3.99999 17.156 3.99999 17.1571C3.99998 17.1593 3.99997 17.1614 3.99996 17.1635C3.99993 17.1676 3.99989 17.1716 3.99983 17.1753C3.99973 17.1828 3.99958 17.1895 3.99942 17.1954C3.99908 17.2072 3.99866 17.216 3.99831 17.222C3.99762 17.2339 3.9972 17.2349 3.99823 17.2266C4.00036 17.2096 4.00797 17.1588 4.02938 17.0854C4.07143 16.9412 4.16522 16.7131 4.38015 16.4675C4.76405 16.0287 5.88287 15.1504 9 15.1504V11.1504C5.11713 11.1504 2.73595 12.2722 1.36985 13.8334C0.70978 14.5878 0.366066 15.3596 0.189375 15.9654C0.101401 16.2671 0.0543277 16.5288 0.0291162 16.7305C0.0164762 16.8316 0.00921392 16.9186 0.00510311 16.9891C0.00304556 17.0243 0.00177073 17.0556 0.00100982 17.0825C0.000629306 17.096 0.000376821 17.1084 0.000219584 17.1198C0.000140905 17.1254 8.60691e-05 17.1308 5.07832e-05 17.1359C3.31402e-05 17.1385 2.0504e-05 17.141 1.21593e-05 17.1434C8.34465e-06 17.1446 4.05312e-06 17.1464 2.98023e-06 17.147C7.15256e-07 17.1487 0 17.1504 2 17.1504ZM9 15.1504C12.1171 15.1504 13.2359 16.0287 13.6198 16.4675C13.8348 16.7131 13.9286 16.9412 13.9706 17.0854C13.992 17.1588 13.9996 17.2096 14.0018 17.2266C14.0028 17.2349 14.0024 17.2339 14.0017 17.222C14.0013 17.216 14.0009 17.2072 14.0006 17.1954C14.0004 17.1895 14.0003 17.1828 14.0002 17.1753C14.0001 17.1716 14.0001 17.1676 14 17.1635C14 17.1614 14 17.1593 14 17.1571C14 17.156 14 17.1544 14 17.1538C14 17.1521 14 17.1504 16 17.1504C18 17.1504 18 17.1487 18 17.147C18 17.1464 18 17.1446 18 17.1434C18 17.141 18 17.1385 17.9999 17.1359C17.9999 17.1308 17.9999 17.1254 17.9998 17.1198C17.9996 17.1084 17.9994 17.096 17.999 17.0825C17.9982 17.0556 17.997 17.0243 17.9949 16.9891C17.9908 16.9186 17.9835 16.8316 17.9709 16.7305C17.9457 16.5288 17.8986 16.2671 17.8106 15.9654C17.6339 15.3596 17.2902 14.5878 16.6302 13.8334C15.2641 12.2722 12.8829 11.1504 9 11.1504V15.1504ZM14.5 7.65044C14.5 6.56265 14.1774 5.49928 13.5731 4.59481L10.2472 6.81709C10.412 7.06376 10.5 7.35377 10.5 7.65044H14.5ZM13.5731 4.59481C12.9687 3.69034 12.1098 2.98539 11.1048 2.56911L9.57402 6.26462C9.84811 6.37816 10.0824 6.57041 10.2472 6.81709L13.5731 4.59481ZM11.1048 2.56911C10.0998 2.15282 8.9939 2.04391 7.927 2.25612L8.70736 6.17927C8.99834 6.12139 9.29994 6.15109 9.57402 6.26462L11.1048 2.56911ZM7.927 2.25612C6.86011 2.46834 5.8801 2.99217 5.11091 3.76136L7.93934 6.58978C8.14912 6.38 8.41639 6.23714 8.70736 6.17927L7.927 2.25612ZM5.11091 3.76136C4.34172 4.53054 3.8179 5.51055 3.60568 6.57745L7.52882 7.35781C7.5867 7.06684 7.72956 6.79956 7.93934 6.58978L5.11091 3.76136ZM3.60568 6.57745C3.39346 7.64434 3.50238 8.75021 3.91866 9.7552L7.61418 8.22447C7.50065 7.95038 7.47094 7.64878 7.52882 7.35781L3.60568 6.57745ZM3.91866 9.7552C4.33494 10.7602 5.03989 11.6192 5.94436 12.2235L8.16664 8.89765C7.91997 8.73283 7.72771 8.49856 7.61418 8.22447L3.91866 9.7552ZM5.94436 12.2235C6.84883 12.8279 7.9122 13.1504 9 13.1504V9.15044C8.70333 9.15044 8.41332 9.06247 8.16664 8.89765L5.94436 12.2235ZM9 13.1504C10.4587 13.1504 11.8576 12.571 12.8891 11.5395L10.0607 8.7111C9.77936 8.99241 9.39782 9.15044 9 9.15044V13.1504ZM12.8891 11.5395C13.9205 10.5081 14.5 9.10913 14.5 7.65044H10.5C10.5 8.04827 10.342 8.4298 10.0607 8.7111L12.8891 11.5395ZM14.716 14.7321C15.0996 15.029 15.4135 15.4064 15.6356 15.8377L19.1917 14.0063C18.702 13.0554 18.0099 12.2234 17.164 11.5688L14.716 14.7321ZM15.6356 15.8377C15.8577 16.2689 15.9826 16.7436 16.0015 17.2284L19.9985 17.0725C19.9568 16.0038 19.6814 14.9571 19.1917 14.0063L15.6356 15.8377ZM16 17.1504V19.1504H20V17.1504H16ZM18 21.1504H22V17.1504H18V21.1504ZM24 19.1504V17.1504H20V19.1504H24ZM22 17.1504C24 17.1504 24 17.1488 24 17.1471C24 17.1466 24 17.1449 24 17.1437C24 17.1414 24 17.1391 24 17.1366C23.9999 17.1318 23.9999 17.1267 23.9998 17.1213C23.9997 17.1106 23.9994 17.0989 23.9991 17.0863C23.9984 17.061 23.9973 17.0317 23.9955 16.9988C23.9918 16.9331 23.9854 16.8524 23.9743 16.7586C23.9522 16.5716 23.911 16.3295 23.8344 16.0497C23.6809 15.4887 23.3828 14.7682 22.8086 14.0453C21.6145 12.5418 19.5082 11.3646 16.0619 11.1542L15.8181 15.1467C18.4318 15.3063 19.3555 16.1291 19.6764 16.5331C19.8597 16.7639 19.9403 16.9741 19.9762 17.1053C19.9943 17.1715 20.0005 17.216 20.002 17.2289C20.0028 17.2351 20.0023 17.2327 20.0016 17.2203C20.0012 17.2141 20.0008 17.2053 20.0005 17.1938C20.0004 17.188 20.0002 17.1815 20.0002 17.1743C20.0001 17.1707 20.0001 17.1669 20 17.1629C20 17.1609 20 17.1589 20 17.1568C20 17.1558 20 17.1542 20 17.1537C20 17.1521 20 17.1504 22 17.1504ZM15.0111 2.15047C13.9167 2.14438 12.8464 2.47158 11.9425 3.08856L14.1975 6.39233C14.4306 6.23322 14.7066 6.14884 14.9889 6.15041L15.0111 2.15047ZM11.4436 5.90444C11.8081 6.41369 12.0041 7.02422 12.0041 7.65044H16.0041C16.0041 6.18924 15.5468 4.76467 14.6964 3.57644L11.4436 5.90444ZM12.0041 7.65044C12.0041 8.27667 11.8081 8.8872 11.4436 9.39644L14.6964 11.7244C15.5468 10.5362 16.0041 9.11164 16.0041 7.65044H12.0041ZM11.9425 12.2123C12.8464 12.8293 13.9167 13.1565 15.0111 13.1504L14.9889 9.15047C14.7066 9.15205 14.4306 9.06767 14.1975 8.90856L11.9425 12.2123ZM15 13.1504C16.4587 13.1504 17.8576 12.571 18.8891 11.5395L16.0607 8.7111C15.7794 8.99241 15.3978 9.15044 15 9.15044V13.1504ZM18.8891 11.5395C19.9205 10.5081 20.5 9.10913 20.5 7.65044H16.5C16.5 8.04827 16.342 8.4298 16.0607 8.7111L18.8891 11.5395ZM20.5 7.65044C20.5 6.19175 19.9205 4.79281 18.8891 3.76136L16.0607 6.58978C16.342 6.87109 16.5 7.25262 16.5 7.65044H20.5ZM18.8891 3.76136C17.8576 2.72991 16.4587 2.15044 15 2.15044V6.15044C15.3978 6.15044 15.7794 6.30848 16.0607 6.58978L18.8891 3.76136Z" fill="white" mask="url(#path-1-inside-1_2071_6590)"/>
</g>
</svg>
