<svg width="18" height="18" viewBox="0 0 18 18" fill="none" xmlns="http://www.w3.org/2000/svg">
<path d="M12 12.75V14.25H1.5V12.75C1.5 12.75 1.5 9.75004 6.75 9.75004C12 9.75004 12 12.75 12 12.75ZM9.375 5.62504C9.375 5.10586 9.22105 4.59835 8.93261 4.16667C8.64417 3.73499 8.2342 3.39854 7.75454 3.19986C7.27489 3.00118 6.74709 2.94919 6.23789 3.05048C5.72869 3.15176 5.26096 3.40177 4.89384 3.76888C4.52673 4.136 4.27673 4.60373 4.17544 5.11293C4.07415 5.62213 4.12614 6.14993 4.32482 6.62958C4.5235 7.10924 4.85995 7.51921 5.29163 7.80765C5.72331 8.09609 6.23082 8.25004 6.75 8.25004C7.44619 8.25004 8.11387 7.97348 8.60616 7.48119C9.09844 6.98891 9.375 6.32123 9.375 5.62504ZM11.955 9.75004C12.4161 10.1068 12.7933 10.5604 13.0603 11.0787C13.3272 11.597 13.4773 12.1675 13.5 12.75V14.25H16.5V12.75C16.5 12.75 16.5 10.0275 11.955 9.75004ZM11.25 3.00004C10.7338 2.99716 10.2289 3.15151 9.8025 3.44254C10.2581 4.07909 10.503 4.84225 10.503 5.62504C10.503 6.40782 10.2581 7.17099 9.8025 7.80754C10.2289 8.09857 10.7338 8.25291 11.25 8.25004C11.9462 8.25004 12.6139 7.97348 13.1062 7.48119C13.5984 6.98891 13.875 6.32123 13.875 5.62504C13.875 4.92885 13.5984 4.26117 13.1062 3.76888C12.6139 3.2766 11.9462 3.00004 11.25 3.00004Z" fill="#274052"/>
</svg>
