<svg width="19" height="18" viewBox="0 0 19 18" fill="none" xmlns="http://www.w3.org/2000/svg">
<g clip-path="url(#clip0_1358_10097)">
<path d="M17.8612 13.4279L18.7162 12.6779L17.9662 11.3804L16.8787 11.7479C16.6387 11.5454 16.3687 11.3879 16.0687 11.2754L15.8438 10.1504H14.3438L14.1188 11.2679C13.8188 11.3804 13.5488 11.5379 13.3088 11.7404L12.2213 11.3729L11.4713 12.6704L12.3263 13.4204C12.2663 13.7954 12.2663 13.9904 12.3263 14.3654L11.4713 15.1154L12.2213 16.4129L13.3088 16.0454C13.5488 16.2479 13.8188 16.4054 14.1188 16.5179L14.3438 17.6504H15.8438L16.0687 16.5329C16.3687 16.4204 16.6387 16.2629 16.8787 16.0604L17.9662 16.4279L18.7162 15.1304L17.8612 14.3804C17.9213 13.9979 17.9213 13.8029 17.8612 13.4279ZM15.0938 15.4004C14.2688 15.4004 13.5938 14.7254 13.5938 13.9004C13.5938 13.0754 14.2688 12.4004 15.0938 12.4004C15.9187 12.4004 16.5938 13.0754 16.5938 13.9004C16.5938 14.7254 15.9187 15.4004 15.0938 15.4004ZM9.09375 4.90039V8.95789L10.8637 10.7279L11.6437 9.38539L10.5938 8.34289V4.90039H9.09375ZM16.5938 8.65039C16.5938 6.86018 15.8826 5.14329 14.6167 3.87742C13.3509 2.61155 11.634 1.90039 9.84375 1.90039C7.72125 1.90039 5.83125 2.89039 4.59375 4.42039V2.65039H3.09375V7.15039H7.59375V5.65039H5.53875C6.02248 4.95679 6.66638 4.3901 7.41582 3.9984C8.16526 3.60671 8.99812 3.40157 9.84375 3.40039C12.7387 3.40039 15.0938 5.75539 15.0938 8.65039H16.5938ZM8.98875 13.8329C6.74625 13.4654 4.97625 11.6579 4.65375 9.40039H3.13875C3.51375 12.7754 6.37125 15.4004 9.84375 15.4004H9.89625L8.98875 13.8329Z" fill="white"/>
</g>
<defs>
<clipPath id="clip0_1358_10097">
<rect width="18" height="18" fill="white" transform="translate(0.84375)"/>
</clipPath>
</defs>
</svg>
