<svg width="21" height="20" viewBox="0 0 21 20" fill="none" xmlns="http://www.w3.org/2000/svg">
<path d="M12.226 7.95666L10.4997 10.4486L8.77344 7.95666L10.4997 5.46191L12.226 7.95666Z" fill="white"/>
<path d="M19.5 7.83088C19.5 9.77186 17.9277 12.2482 15.9867 12.2482V18.4978H5.01328V11.9996C3.07371 11.9996 1.5 9.77468 1.5 7.8337C1.50037 6.90204 1.87063 6.00865 2.52941 5.34986C3.1882 4.69108 4.08162 4.32081 5.01328 4.32044C5.74645 4.32044 5.90184 4.50267 6.28467 4.92929C6.3666 3.06176 8.6127 1.5022 10.5 1.5022C12.3873 1.5022 14.6348 3.05611 14.7153 4.92929C15.1518 4.49137 15.2536 4.32044 15.9867 4.32044C16.918 4.32044 17.8112 4.6902 18.47 5.34845C19.1288 6.0067 19.4993 6.89959 19.5 7.83088Z" stroke="white" stroke-width="1.5" stroke-linecap="round" stroke-linejoin="round"/>
<path d="M5.01367 15.9636H15.9871" stroke="white" stroke-width="1.5" stroke-linecap="round" stroke-linejoin="round"/>
<path d="M7.8125 15.9635V13.4236" stroke="white" stroke-width="1.5" stroke-linecap="round" stroke-linejoin="round"/>
<path d="M10.5 15.9635V13.4236" stroke="white" stroke-width="1.5" stroke-linecap="round" stroke-linejoin="round"/>
<path d="M13.1309 15.9635V13.4236" stroke="white" stroke-width="1.5" stroke-linecap="round" stroke-linejoin="round"/>
</svg>
