<svg width="21" height="32" viewBox="0 0 21 32" fill="none" xmlns="http://www.w3.org/2000/svg">
<path d="M14.1105 16.3755L10.4993 21.5937L6.88281 16.3755L10.4993 11.1521L14.1105 16.3755Z" fill="white"/>
<path d="M19.4897 12.7232L10.4885 31.0717L1.5 12.7463C2.23174 12.6252 2.92974 12.3511 3.54839 11.942C4.16704 11.5329 4.69257 10.9979 5.09044 10.3719C5.48831 9.74599 5.7495 9.04317 5.85733 8.30936C5.96517 7.57555 5.91713 6.82723 5.71617 6.11328H15.3992C15.2014 6.81756 15.1522 7.55529 15.2548 8.27961C15.3574 9.00392 15.6095 9.69898 15.9952 10.3206C16.3808 10.9422 16.8915 11.4769 17.4949 11.8905C18.0983 12.3041 18.7811 12.5877 19.5 12.7232H19.4897Z" stroke="white" stroke-width="1.5" stroke-linecap="round" stroke-linejoin="round"/>
<path d="M10.4961 6.11328V12.6438" stroke="white" stroke-width="1.5" stroke-linecap="round" stroke-linejoin="round"/>
<path d="M16.8702 0.928223H4.12178C3.27248 0.928223 2.58398 1.61672 2.58398 2.46602V4.57535C2.58398 5.42465 3.27248 6.11315 4.12178 6.11315H16.8702C17.7194 6.11315 18.4079 5.42465 18.4079 4.57535V2.46602C18.4079 1.61672 17.7194 0.928223 16.8702 0.928223Z" stroke="white" stroke-width="1.5" stroke-linecap="round" stroke-linejoin="round"/>
</svg>
