<svg width="29" height="29" viewBox="0 0 29 29" fill="none" xmlns="http://www.w3.org/2000/svg">
<path d="M22.8041 6.25134C21.2442 5.52418 19.5553 4.9964 17.7961 4.69146C17.7806 4.69097 17.7653 4.69386 17.7511 4.69994C17.7369 4.70602 17.7242 4.71514 17.714 4.72665C17.5028 5.11368 17.2565 5.618 17.0923 6.00504C15.2264 5.72356 13.3287 5.72356 11.4627 6.00504C11.2985 5.60628 11.0522 5.11368 10.8294 4.72665C10.8176 4.70319 10.7825 4.69146 10.7473 4.69146C8.98801 4.9964 7.31085 5.52418 5.73924 6.25134C5.72751 6.25134 5.71578 6.26307 5.70405 6.2748C2.51393 11.0483 1.63429 15.6927 2.06825 20.2902C2.06825 20.3137 2.07997 20.3372 2.10343 20.3489C4.21455 21.897 6.24356 22.8353 8.24912 23.4569C8.28431 23.4686 8.31949 23.4569 8.33122 23.4335C8.80036 22.7884 9.22258 22.1082 9.58616 21.3927C9.60962 21.3458 9.58616 21.2989 9.53925 21.2872C8.87073 21.0291 8.23739 20.7242 7.61579 20.3723C7.56887 20.3489 7.56887 20.2785 7.60406 20.2433C7.73307 20.1495 7.86208 20.044 7.9911 19.9501C8.01455 19.9267 8.04974 19.9267 8.07319 19.9384C12.1078 21.7798 16.459 21.7798 20.4467 19.9384C20.4701 19.9267 20.5053 19.9267 20.5288 19.9501C20.6578 20.0557 20.7868 20.1495 20.9158 20.2551C20.9627 20.2902 20.9627 20.3606 20.9041 20.3841C20.2942 20.7477 19.6491 21.0409 18.9806 21.2989C18.9337 21.3106 18.922 21.3693 18.9337 21.4044C19.309 22.1199 19.7312 22.8001 20.1886 23.4452C20.2238 23.4569 20.259 23.4686 20.2942 23.4569C22.3115 22.8353 24.3405 21.897 26.4516 20.3489C26.4751 20.3372 26.4868 20.3137 26.4868 20.2902C27.0029 14.9773 25.6306 10.368 22.851 6.2748C22.8393 6.26307 22.8275 6.25134 22.8041 6.25134ZM10.196 17.4872C8.98801 17.4872 7.97937 16.373 7.97937 15.0007C7.97937 13.6285 8.96455 12.5143 10.196 12.5143C11.4392 12.5143 12.4244 13.6402 12.4127 15.0007C12.4127 16.373 11.4275 17.4872 10.196 17.4872ZM18.3707 17.4872C17.1627 17.4872 16.1541 16.373 16.1541 15.0007C16.1541 13.6285 17.1393 12.5143 18.3707 12.5143C19.614 12.5143 20.5991 13.6402 20.5874 15.0007C20.5874 16.373 19.614 17.4872 18.3707 17.4872Z" fill="white"/>
</svg>
