<svg width="21" height="20" viewBox="0 0 21 20" fill="none" xmlns="http://www.w3.org/2000/svg">
<path d="M12.5621 8.06272L10.5067 11.0298L8.45117 8.06272L10.5067 5.09229L12.5621 8.06272Z" fill="white"/>
<path d="M18.9975 0.895675H2.00921C1.75414 0.88468 1.50501 0.974802 1.31603 1.14646C1.12706 1.31811 1.0135 1.55742 1 1.81237V13.8287C1.0135 14.0836 1.12706 14.3229 1.31603 14.4946C1.50501 14.6662 1.75414 14.7564 2.00921 14.7454H11.5177L16.678 19.1051L16.7772 14.7454H18.9908C19.2459 14.7564 19.495 14.6662 19.684 14.4946C19.8729 14.3229 19.9865 14.0836 20 13.8287V1.81237C19.9865 1.55864 19.8739 1.32037 19.6864 1.1489C19.4989 0.977433 19.2515 0.886493 18.9975 0.895675Z" stroke="white" stroke-width="1.5" stroke-linecap="round" stroke-linejoin="round"/>
</svg>
