<svg width="29" height="29" viewBox="0 0 29 29" fill="none" xmlns="http://www.w3.org/2000/svg">
<path d="M20.4383 2.3457H8.70991C5.4712 2.3457 2.8457 4.9712 2.8457 8.20991V19.9383C2.8457 23.177 5.4712 25.8025 8.70991 25.8025H20.4383C23.677 25.8025 26.3025 23.177 26.3025 19.9383V8.20991C26.3025 4.9712 23.677 2.3457 20.4383 2.3457Z" stroke="white" stroke-width="2.34568" stroke-linecap="round" stroke-linejoin="round"/>
<path d="M19.2636 13.3353C19.4084 14.3113 19.2417 15.3082 18.7872 16.1841C18.3327 17.06 17.6136 17.7703 16.7322 18.2139C15.8508 18.6575 14.8519 18.812 13.8777 18.6552C12.9035 18.4984 12.0035 18.0384 11.3057 17.3407C10.608 16.6429 10.148 15.743 9.99123 14.7687C9.83446 13.7945 9.98888 12.7956 10.4325 11.9142C10.8762 11.0328 11.5864 10.3137 12.4623 9.85924C13.3382 9.40476 14.3351 9.23804 15.3112 9.38278C16.3068 9.53042 17.2286 9.99437 17.9403 10.7061C18.652 11.4178 19.116 12.3396 19.2636 13.3353Z" stroke="white" stroke-width="2.34568" stroke-linecap="round" stroke-linejoin="round"/>
<path d="M21.0234 7.62354H21.0352" stroke="white" stroke-width="2.34568" stroke-linecap="round" stroke-linejoin="round"/>
</svg>
