<svg width="21" height="28" viewBox="0 0 21 28" fill="none" xmlns="http://www.w3.org/2000/svg">
<path d="M13.4559 12.4754L10.4993 16.7432L7.54297 12.4754L10.4993 8.20288L13.4559 12.4754Z" fill="white"/>
<path d="M19.4989 10.2277C19.4989 15.1976 10.4988 26.9115 10.4988 26.9115C10.4988 26.9115 1.50107 15.1976 1.50107 10.2277C1.48262 9.03424 1.70186 7.84903 2.14581 6.74107C2.58977 5.63311 3.2495 4.62452 4.08696 3.77403C4.92441 2.92353 5.9228 2.2481 7.02377 1.78708C8.12474 1.32605 9.3063 1.08862 10.4999 1.08862C11.6935 1.08862 12.8753 1.32605 13.9762 1.78708C15.0772 2.2481 16.0754 2.92353 16.9128 3.77403C17.7503 4.62452 18.4102 5.63311 18.8542 6.74107C19.2981 7.84903 19.5174 9.03424 19.4989 10.2277Z" stroke="white" stroke-width="1.5" stroke-linecap="round" stroke-linejoin="round"/>
</svg>
