<svg width="21" height="20" viewBox="0 0 21 20" fill="none" xmlns="http://www.w3.org/2000/svg">
<path d="M18.9438 9.07397H2.05818C1.56006 9.07397 1.15625 9.47778 1.15625 9.9759V18.1609C1.15625 18.659 1.56006 19.0628 2.05818 19.0628H18.9438C19.4419 19.0628 19.8457 18.659 19.8457 18.1609V9.9759C19.8457 9.47778 19.4419 9.07397 18.9438 9.07397Z" stroke="white" stroke-width="1.5" stroke-linecap="round" stroke-linejoin="round"/>
<path d="M10.5026 3.23539C11.1501 3.23539 11.675 2.71044 11.675 2.06288C11.675 1.41533 11.1501 0.890381 10.5026 0.890381C9.855 0.890381 9.33008 1.41533 9.33008 2.06288C9.33008 2.71044 9.855 3.23539 10.5026 3.23539Z" stroke="white" stroke-width="1.5" stroke-linecap="round" stroke-linejoin="round"/>
<path d="M18.2408 9.07388L11.3711 2.85059" stroke="white" stroke-width="1.5" stroke-linecap="round" stroke-linejoin="round"/>
<path d="M9.63241 2.84912L2.74023 9.07392" stroke="white" stroke-width="1.5" stroke-linecap="round" stroke-linejoin="round"/>
<path d="M5.03623 17.1758C4.67947 17.1758 4.39687 17.1116 4.18842 16.9833C3.97998 16.8551 3.82966 16.6727 3.73746 16.4362C3.64927 16.1957 3.60518 15.9091 3.60518 15.5763V13.7605C3.60518 13.4278 3.64927 13.1431 3.73746 12.9066C3.82966 12.6701 3.97998 12.4897 4.18842 12.3655C4.39687 12.2412 4.67947 12.1791 5.03623 12.1791C5.39701 12.1791 5.68161 12.2432 5.89006 12.3715C6.10251 12.4958 6.25283 12.6761 6.34102 12.9126C6.43322 13.1451 6.47932 13.4278 6.47932 13.7605V15.5763C6.47932 15.9091 6.43322 16.1957 6.34102 16.4362C6.25283 16.6727 6.10251 16.8551 5.89006 16.9833C5.68161 17.1116 5.39701 17.1758 5.03623 17.1758ZM5.03623 16.4602C5.16451 16.4602 5.25871 16.4322 5.31884 16.3761C5.37897 16.3159 5.41905 16.2378 5.4391 16.1416C5.45914 16.0413 5.46916 15.9351 5.46916 15.8229V13.5199C5.46916 13.4077 5.45914 13.3035 5.4391 13.2073C5.41905 13.1111 5.37897 13.0349 5.31884 12.9788C5.25871 12.9187 5.16451 12.8886 5.03623 12.8886C4.91598 12.8886 4.82579 12.9187 4.76566 12.9788C4.70553 13.0349 4.66544 13.1111 4.6454 13.2073C4.62536 13.3035 4.61534 13.4077 4.61534 13.5199V15.8229C4.61534 15.9351 4.62335 16.0413 4.63939 16.1416C4.65943 16.2378 4.69952 16.3159 4.75964 16.3761C4.81977 16.4322 4.91197 16.4602 5.03623 16.4602ZM7.14177 17.1096V12.2392H8.68707C8.97969 12.2392 9.2182 12.2953 9.4026 12.4076C9.58699 12.5158 9.72328 12.6741 9.81147 12.8826C9.90367 13.091 9.94977 13.3436 9.94977 13.6402C9.94977 13.989 9.88964 14.2615 9.76938 14.458C9.65313 14.6544 9.49279 14.7947 9.28835 14.8789C9.08392 14.959 8.84942 14.9991 8.58485 14.9991H8.13389V17.1096H7.14177ZM8.13389 14.3016H8.48263C8.62694 14.3016 8.73718 14.2796 8.81334 14.2355C8.89351 14.1874 8.94762 14.1132 8.97568 14.013C9.00374 13.9128 9.01777 13.7845 9.01777 13.6282C9.01777 13.4799 9.00575 13.3556 8.9817 13.2554C8.96165 13.1552 8.91355 13.077 8.83739 13.0209C8.76123 12.9648 8.64097 12.9367 8.47662 12.9367H8.13389V14.3016ZM10.4594 17.1096V12.2392H12.5819V12.9247H11.4515V14.2174H12.3234V14.9089H11.4515V16.4362H12.594V17.1096H10.4594ZM13.0959 17.1096V12.2392H13.7874L14.8697 14.7766V12.2392H15.6874V17.1096H15.026L13.9437 14.4159V17.1096H13.0959Z" fill="white"/>
</svg>
