<svg width="21" height="22" viewBox="0 0 21 22" fill="none" xmlns="http://www.w3.org/2000/svg">
<path d="M12.49 16.0067L10.5007 18.8824L8.50977 16.0067L10.5007 13.1311L12.49 16.0067Z" fill="white"/>
<path d="M19.5 20.7902V19.4086C19.5 17.9741 19.1572 16.5603 18.5003 15.285C17.8434 14.0098 16.8913 12.9099 15.7233 12.077C14.1983 10.9904 12.3725 10.4065 10.5 10.4065C8.62751 10.4065 6.8017 10.9904 5.2767 12.077C4.10873 12.9099 3.15657 14.0098 2.49966 15.285C1.84276 16.5603 1.5 17.9741 1.5 19.4086V20.7902H19.5Z" stroke="white" stroke-width="1.5" stroke-linecap="round" stroke-linejoin="round"/>
<path d="M10.4995 10.0959C12.9533 10.0959 14.9424 8.10669 14.9424 5.65291C14.9424 3.19913 12.9533 1.20996 10.4995 1.20996C8.04574 1.20996 6.05664 3.19913 6.05664 5.65291C6.05664 8.10669 8.04574 10.0959 10.4995 10.0959Z" stroke="white" stroke-width="1.5" stroke-linecap="round" stroke-linejoin="round"/>
</svg>
