<svg width="21" height="22" viewBox="0 0 21 22" fill="none" xmlns="http://www.w3.org/2000/svg">
<path d="M15.7676 7.3573L13.663 10.3979L11.5566 7.3573L13.663 4.31323L15.7676 7.3573Z" fill="white"/>
<path d="M3.73855 1.94501C4.20567 1.683 4.70904 1.54856 5.20891 1.70886C5.66742 1.85882 6.01225 2.22597 6.33286 2.59312C6.84997 3.17573 7.38254 3.77903 7.6566 4.5116C7.93067 5.24417 7.89621 6.14222 7.36876 6.71966C7.00678 7.11439 6.43455 7.35571 6.28286 7.86937C6.22337 8.11685 6.23762 8.37635 6.3241 8.61573C6.50681 9.22075 6.87925 9.74993 7.26019 10.255C8.57709 12.0045 10.0715 13.6438 11.8573 14.909C12.2865 15.2141 12.7966 15.5105 13.3103 15.395C13.9205 15.2589 14.2618 14.6125 14.7909 14.2781C15.3891 13.8989 16.1872 13.9627 16.8284 14.2626C17.4696 14.5625 17.9936 15.0658 18.5021 15.5588C18.9572 16.0001 19.4415 16.4982 19.4949 17.1308C19.5449 17.7083 19.2174 18.2478 18.8485 18.6959C18.4021 19.2355 17.8231 19.8388 17.1922 20.1611C16.6751 20.4265 15.9959 20.3731 15.4254 20.3041C14.1826 20.1507 13.0122 19.6336 11.9211 19.0252C8.59606 17.1584 5.82424 14.3712 3.75235 11.1772C2.67332 9.5155 1.7615 7.68666 1.53915 5.71819C1.46675 5.08387 1.47192 4.41507 1.75461 3.84108C1.98041 3.38602 2.36135 3.02921 2.73884 2.68792C3.04349 2.40396 3.37877 2.15478 3.73855 1.94501Z" stroke="white" stroke-width="1.5" stroke-linecap="round" stroke-linejoin="round"/>
</svg>
