<svg width="27" height="24" viewBox="0 0 27 24" fill="none" xmlns="http://www.w3.org/2000/svg">
<path d="M15.6847 13.8195L13.4878 16.9925L11.291 13.8195L13.4878 10.6465L15.6847 13.8195Z" fill="white"/>
<path d="M12.6459 22.3191V21.4634C12.6471 20.5744 12.4356 19.698 12.029 18.9074C11.6224 18.1168 11.0327 17.435 10.3089 16.9188C9.36433 16.2451 8.2331 15.8831 7.07296 15.8831C5.91281 15.8831 4.78159 16.2451 3.83705 16.9188C3.1139 17.4356 2.52463 18.1176 2.11814 18.908C1.71166 19.6985 1.49971 20.5746 1.5 21.4634V22.3191H12.6586H12.6459Z" stroke="white" stroke-width="1.5" stroke-linecap="round" stroke-linejoin="round"/>
<path d="M7.06472 15.6884C8.58578 15.6884 9.8189 14.4553 9.8189 12.9343C9.8189 11.4132 8.58578 10.1802 7.06472 10.1802C5.54366 10.1802 4.31055 11.4132 4.31055 12.9343C4.31055 14.4553 5.54366 15.6884 7.06472 15.6884Z" stroke="white" stroke-width="1.5" stroke-linecap="round" stroke-linejoin="round"/>
<path d="M25.4877 22.3191V21.4634C25.4889 20.5744 25.2774 19.698 24.8708 18.9074C24.4642 18.1168 23.8745 17.435 23.1507 16.9188C22.2061 16.2451 21.0749 15.8831 19.9148 15.8831C18.7546 15.8831 17.6234 16.2451 16.6788 16.9188C15.9551 17.435 15.3653 18.1168 14.9587 18.9074C14.5522 19.698 14.3406 20.5744 14.3418 21.4634V22.3191H25.5004H25.4877Z" stroke="white" stroke-width="1.5" stroke-linecap="round" stroke-linejoin="round"/>
<path d="M19.9083 15.6884C21.4294 15.6884 22.6625 14.4553 22.6625 12.9343C22.6625 11.4132 21.4294 10.1802 19.9083 10.1802C18.3872 10.1802 17.1543 11.4132 17.1543 12.9343C17.1543 14.4553 18.3872 15.6884 19.9083 15.6884Z" stroke="white" stroke-width="1.5" stroke-linecap="round" stroke-linejoin="round"/>
<path d="M8.39453 10.5248C8.41251 10.4852 8.43216 10.4457 8.45194 10.4079C8.92736 9.47992 9.65363 8.7039 10.5481 8.16809C11.4426 7.63227 12.4696 7.35815 13.5121 7.37688C14.5546 7.3956 15.5708 7.70642 16.4455 8.27402C17.3202 8.84161 18.0181 9.64321 18.4599 10.5877" stroke="white" stroke-width="1.5" stroke-linecap="round" stroke-linejoin="round"/>
<path d="M9.67578 13.8201H10.3499H16.403H17.2982" stroke="white" stroke-width="1.5" stroke-linecap="round" stroke-linejoin="round"/>
<path d="M13.4124 7.18939C14.9334 7.18939 16.1666 5.95632 16.1666 4.43526C16.1666 2.9142 14.9334 1.68115 13.4124 1.68115C11.8913 1.68115 10.6582 2.9142 10.6582 4.43526C10.6582 5.95632 11.8913 7.18939 13.4124 7.18939Z" stroke="white" stroke-width="1.5" stroke-linecap="round" stroke-linejoin="round"/>
</svg>
