<svg width="29" height="29" viewBox="0 0 29 29" fill="none" xmlns="http://www.w3.org/2000/svg">
<path d="M26.4393 6.80239C25.5577 7.18485 24.6254 7.43768 23.6713 7.55301C24.6778 6.95172 25.4321 6.00578 25.7942 4.89066C24.8484 5.4537 23.813 5.85039 22.7331 6.0635C22.0112 5.28072 21.05 4.75965 20.0001 4.58203C18.9502 4.40441 17.8711 4.58028 16.932 5.08206C15.9928 5.58383 15.2467 6.38314 14.8108 7.35461C14.3749 8.32608 14.2737 9.41477 14.5232 10.4499C12.6108 10.3532 10.7401 9.85524 9.03271 8.98841C7.3253 8.12157 5.81934 6.90524 4.61267 5.41844C4.18944 6.15753 3.96704 6.99453 3.96761 7.84622C3.96611 8.63717 4.16021 9.41621 4.53263 10.114C4.90505 10.8118 5.44424 11.4066 6.10218 11.8456C5.33746 11.8248 4.58908 11.6196 3.92069 11.2475V11.3061C3.92643 12.4143 4.31476 13.4865 5.02002 14.3414C5.72527 15.1962 6.70415 15.7812 7.79107 15.9975C7.37267 16.1248 6.93827 16.1919 6.50095 16.1969C6.19822 16.1933 5.89626 16.1659 5.59786 16.1148C5.90738 17.0681 6.50637 17.9012 7.31147 18.4982C8.11657 19.0951 9.08774 19.4263 10.0898 19.4456C8.39767 20.7771 6.30846 21.5038 4.15526 21.5098C3.76322 21.5111 3.3715 21.4876 2.98242 21.4395C5.18083 22.8589 7.74277 23.6124 10.3596 23.6092C12.1654 23.628 13.9569 23.2867 15.6293 22.6054C17.3018 21.924 18.8217 20.9162 20.1003 19.6409C21.3789 18.3656 22.3906 16.8482 23.0762 15.1775C23.7618 13.5068 24.1077 11.7163 24.0936 9.91042C24.0936 9.71104 24.0936 9.49993 24.0936 9.28882C25.0139 8.60248 25.8076 7.7611 26.4393 6.80239Z" fill="white"/>
</svg>
