<svg width="19" height="18" viewBox="0 0 19 18" fill="none" xmlns="http://www.w3.org/2000/svg">
<path d="M18.067 17.9567C18.0152 17.9567 17.9638 17.9465 17.916 17.9267C17.8682 17.9068 17.8249 17.8777 17.7884 17.841L12.9204 12.9731C12.8526 12.8986 12.8162 12.8008 12.8185 12.7001C12.8208 12.5994 12.8617 12.5034 12.9329 12.4321C13.004 12.3607 13.0998 12.3194 13.2005 12.3168C13.3012 12.3141 13.399 12.3503 13.4738 12.4178L18.3437 17.2857C18.3989 17.3405 18.4365 17.4104 18.4519 17.4866C18.4673 17.5629 18.4597 17.642 18.4301 17.7139C18.4004 17.7858 18.3501 17.8472 18.2854 17.8905C18.2208 17.9337 18.1448 17.9568 18.067 17.9567Z" fill="white"/>
<path d="M5.80916 5.69963C5.70554 5.69971 5.60606 5.65881 5.53248 5.58584L0.662585 0.715987C0.594813 0.641461 0.55835 0.543725 0.560649 0.443018C0.562949 0.342311 0.603936 0.246362 0.675039 0.175007C0.746142 0.103652 0.841825 0.0623629 0.942523 0.0597069C1.04322 0.0570508 1.14118 0.0932244 1.21595 0.160732L6.08776 5.03056C6.14243 5.08555 6.17955 5.15552 6.19449 5.2316C6.20943 5.30769 6.20149 5.38648 6.17169 5.45806C6.14188 5.52964 6.09155 5.5908 6.02702 5.63379C5.96249 5.67678 5.8867 5.69969 5.80916 5.69963Z" fill="white"/>
<path d="M0.898272 5.49767C0.794198 5.49767 0.694416 5.45634 0.620824 5.38275C0.547232 5.30916 0.505859 5.20933 0.505859 5.10526V0.476759C0.505859 0.372685 0.547232 0.272879 0.620824 0.199287C0.694416 0.125696 0.794198 0.0843466 0.898272 0.0843466L5.60722 0.00585938C5.71129 0.00585938 5.81108 0.0472084 5.88467 0.1208C5.95826 0.194392 5.99963 0.294197 5.99963 0.398272C5.99963 0.502346 5.95826 0.602152 5.88467 0.675743C5.81108 0.749335 5.71129 0.790684 5.60722 0.790684L1.29068 0.863279V5.10526C1.29068 5.15679 1.28051 5.20782 1.26079 5.25543C1.24107 5.30304 1.21216 5.34631 1.17572 5.38275C1.13928 5.41919 1.0961 5.44808 1.04849 5.4678C1.00088 5.48752 0.949804 5.49767 0.898272 5.49767Z" fill="white"/>
<path d="M13.3983 17.996C13.2942 17.996 13.1944 17.9546 13.1208 17.881C13.0472 17.8074 13.0059 17.7076 13.0059 17.6035C13.0059 17.4995 13.0472 17.3996 13.1208 17.3261C13.1944 17.2525 13.2942 17.2111 13.3983 17.2111L17.7148 17.1385V12.8966C17.7148 12.7925 17.7562 12.6927 17.8298 12.6191C17.9034 12.5455 18.0031 12.5042 18.1072 12.5042C18.2113 12.5042 18.3111 12.5455 18.3847 12.6191C18.4583 12.6927 18.4996 12.7925 18.4996 12.8966V17.5231C18.4996 17.6272 18.4583 17.727 18.3847 17.8006C18.3111 17.8742 18.2113 17.9155 18.1072 17.9155L13.3983 17.994V17.996Z" fill="white"/>
<path d="M0.939581 17.9566C0.861806 17.9567 0.785798 17.9336 0.721149 17.8904C0.656499 17.8472 0.60613 17.7857 0.576485 17.7138C0.54684 17.6419 0.539249 17.5628 0.554642 17.4866C0.570034 17.4103 0.607679 17.3404 0.6629 17.2856L5.53088 12.4177C5.56734 12.3813 5.61047 12.3524 5.65811 12.3326C5.70575 12.3129 5.75677 12.3027 5.80833 12.3027C5.85989 12.3027 5.91111 12.3129 5.95874 12.3326C6.00638 12.3524 6.04951 12.3813 6.08597 12.4177C6.12243 12.4542 6.1515 12.4975 6.17123 12.5451C6.19097 12.5927 6.20113 12.6438 6.20113 12.6954C6.20113 12.7469 6.19097 12.798 6.17123 12.8456C6.1515 12.8932 6.12243 12.9365 6.08597 12.973L1.21626 17.8409C1.14301 17.9146 1.04349 17.9562 0.939581 17.9566Z" fill="white"/>
<path d="M13.1946 5.69981C13.0909 5.69989 12.9915 5.65899 12.9179 5.58602C12.8814 5.54957 12.8526 5.50628 12.8328 5.45865C12.8131 5.41101 12.8027 5.35995 12.8027 5.30838C12.8027 5.25681 12.8131 5.20575 12.8328 5.15811C12.8526 5.11047 12.8814 5.06718 12.9179 5.03074L17.7878 0.160911C17.8242 0.124452 17.8676 0.0955208 17.9152 0.0757892C17.9628 0.0560577 18.0139 0.0458985 18.0654 0.0458984C18.117 0.0458984 18.168 0.0560577 18.2156 0.0757892C18.2633 0.0955208 18.3066 0.124452 18.3431 0.160911C18.3795 0.19737 18.4084 0.240646 18.4281 0.288282C18.4479 0.335918 18.458 0.386989 18.458 0.43855C18.458 0.490111 18.4479 0.541158 18.4281 0.588795C18.4084 0.636431 18.3795 0.679707 18.3431 0.716166L13.4732 5.58602C13.4365 5.62239 13.393 5.65115 13.3452 5.67068C13.2974 5.69021 13.2462 5.70011 13.1946 5.69981Z" fill="white"/>
<path d="M18.1053 5.49768C18.0012 5.49768 17.9014 5.45635 17.8279 5.38276C17.7543 5.30917 17.7129 5.20934 17.7129 5.10527L17.6403 0.788731H13.3983C13.2942 0.788731 13.1944 0.747406 13.1208 0.673814C13.0472 0.600223 13.0059 0.500393 13.0059 0.396319C13.0059 0.292244 13.0472 0.192438 13.1208 0.118847C13.1944 0.0452553 13.2942 0.00390625 13.3983 0.00390625H18.0248C18.1289 0.00390625 18.2287 0.0452553 18.3023 0.118847C18.3759 0.192438 18.4172 0.292244 18.4172 0.396319L18.4977 5.10527C18.4977 5.20934 18.4563 5.30917 18.3828 5.38276C18.3092 5.45635 18.2094 5.49768 18.1053 5.49768Z" fill="white"/>
<path d="M5.60544 17.9961H0.972948C0.868874 17.9961 0.769092 17.9547 0.6955 17.8811C0.621908 17.8075 0.580535 17.7077 0.580535 17.6037L0.50006 12.8947C0.499158 12.8432 0.508381 12.792 0.527269 12.744C0.546156 12.6961 0.574433 12.6523 0.610235 12.6152C0.646036 12.5781 0.688665 12.5485 0.735929 12.5279C0.783194 12.5074 0.834042 12.4963 0.885575 12.4954C0.937107 12.4945 0.988415 12.5038 1.03637 12.5227C1.08432 12.5415 1.12805 12.5697 1.16513 12.6055C1.20221 12.6413 1.23195 12.684 1.2525 12.7313C1.27306 12.7786 1.28398 12.8294 1.28488 12.881L1.35942 17.1975H5.5995C5.70358 17.1975 5.80336 17.2388 5.87695 17.3124C5.95054 17.386 5.99192 17.4858 5.99192 17.5899C5.99192 17.694 5.95054 17.7938 5.87695 17.8674C5.80336 17.941 5.70358 17.9823 5.5995 17.9823L5.60544 17.9961Z" fill="white"/>
<path d="M12.2101 9.002L9.50249 12.9143L6.79297 9.002L9.50249 5.08765L12.2101 9.002Z" fill="white"/>
</svg>
