<svg width="21" height="18" viewBox="0 0 21 18" fill="none" xmlns="http://www.w3.org/2000/svg">
<path d="M12.2693 6.91174L10.5015 9.46559L8.73242 6.91174L10.5015 4.35645L12.2693 6.91174Z" fill="white"/>
<path d="M18.6313 1.16846H2.36866C1.88891 1.16846 1.5 1.55737 1.5 2.03711V11.7863C1.5 12.2661 1.88891 12.655 2.36866 12.655H18.6313C19.1111 12.655 19.5 12.2661 19.5 11.7863V2.03711C19.5 1.55737 19.1111 1.16846 18.6313 1.16846Z" stroke="white" stroke-width="1.5" stroke-linecap="round" stroke-linejoin="round"/>
<path d="M9.52344 15.0945V12.655" stroke="white" stroke-width="1.5" stroke-linecap="round" stroke-linejoin="round"/>
<path d="M11.4766 15.0945V12.655" stroke="white" stroke-width="1.5" stroke-linecap="round" stroke-linejoin="round"/>
<path d="M6.87322 15.0945H14.1278C14.5886 15.0945 15.0305 15.2775 15.3563 15.6033C15.6821 15.9291 15.8652 16.371 15.8652 16.8318H5.14453C5.14453 16.3725 5.32632 15.932 5.65026 15.6064C5.97419 15.2808 6.41396 15.0968 6.87322 15.0945Z" stroke="white" stroke-width="1.5" stroke-linecap="round" stroke-linejoin="round"/>
</svg>
