<svg width="127" height="39" viewBox="0 0 127 39" fill="none" xmlns="http://www.w3.org/2000/svg">
<path d="M28.6514 19.2862C28.6243 16.2784 31.1148 14.8151 31.2287 14.747C29.8182 12.6911 27.632 12.4103 26.8638 12.3879C25.0277 12.1947 23.2466 13.4862 22.3113 13.4862C21.3573 13.4862 19.9169 12.4065 18.3646 12.4382C16.367 12.469 14.4982 13.6253 13.4732 15.4208C11.358 19.0818 12.9356 24.4618 14.9621 27.421C15.9759 28.8713 17.1604 30.4885 18.7109 30.4316C20.2278 30.37 20.7944 29.4657 22.6249 29.4657C24.4386 29.4657 24.9707 30.4316 26.552 30.3952C28.18 30.37 29.2049 28.9394 30.1832 27.477C31.3547 25.8168 31.8251 24.18 31.8438 24.096C31.8065 24.0829 28.6831 22.8903 28.6514 19.2862ZM25.6643 10.4412C26.4801 9.42116 27.0383 8.03347 26.8834 6.62524C25.7025 6.6775 24.2258 7.44181 23.3754 8.43942C22.6231 9.31851 21.951 10.7594 22.1246 12.1144C23.451 12.2133 24.813 11.4453 25.6643 10.4412Z" fill="white"/>
<path d="M50.6222 30.2234H48.5023L47.3411 26.5755H43.3048L42.1987 30.2234H40.1348L44.1347 17.8042H46.6046L50.6222 30.2234ZM46.9911 25.045L45.9409 21.8021C45.8298 21.4708 45.6207 20.6906 45.3146 19.4625H45.2772C45.154 19.9907 44.957 20.7709 44.6873 21.8021L43.6549 25.045H46.9911ZM60.8885 25.6358C60.8885 27.1588 60.4749 28.3626 59.647 29.2464C58.9058 30.0331 57.9845 30.426 56.8858 30.426C55.6993 30.426 54.8461 30.0032 54.3281 29.1558V33.8546H52.3379V24.2117C52.3379 23.2551 52.3127 22.2743 52.2642 21.2683H54.0144L54.1255 22.6877H54.1629C54.8265 21.6183 55.8338 21.0835 57.1854 21.0835C58.2421 21.0835 59.1242 21.5007 59.8299 22.3359C60.5347 23.173 60.8885 24.2723 60.8885 25.6358ZM58.861 25.7085C58.861 24.8369 58.665 24.1183 58.271 23.5519C57.8407 22.963 57.2629 22.6681 56.5385 22.6681C56.0475 22.6681 55.6013 22.8324 55.2027 23.1562C54.8032 23.4828 54.5418 23.9093 54.4196 24.4375C54.365 24.635 54.3339 24.8383 54.3271 25.0432V26.5372C54.3271 27.1877 54.5269 27.7374 54.9264 28.1872C55.326 28.6351 55.845 28.86 56.4834 28.86C57.233 28.86 57.8164 28.5698 58.2337 27.994C58.6519 27.4163 58.861 26.6548 58.861 25.7085ZM71.1911 25.6358C71.1911 27.1588 70.7776 28.3626 69.9496 29.2464C69.2075 30.0331 68.2871 30.426 67.1875 30.426C66.001 30.426 65.1479 30.0032 64.6298 29.1558V33.8546H62.6396V24.2117C62.6396 23.2551 62.6144 22.2743 62.5659 21.2683H64.3161L64.4272 22.6877H64.4646C65.1273 21.6183 66.1345 21.0835 67.4871 21.0835C68.5429 21.0835 69.425 21.5007 70.1326 22.3359C70.8364 23.173 71.1911 24.2723 71.1911 25.6358ZM69.1627 25.7085C69.1627 24.8369 68.9657 24.1183 68.5718 23.5519C68.1415 22.963 67.5655 22.6681 66.8412 22.6681C66.3502 22.6681 65.904 22.8324 65.5035 23.1562C65.104 23.4828 64.8435 23.9093 64.7213 24.4375C64.6606 24.6839 64.6279 24.8845 64.6279 25.0432V26.5372C64.6279 27.1877 64.8286 27.7374 65.2263 28.1872C65.6258 28.6342 66.1448 28.86 66.7852 28.86C67.5357 28.86 68.1191 28.5698 68.5354 27.994C68.9536 27.4163 69.1627 26.6548 69.1627 25.7085ZM82.71 26.7397C82.71 27.7971 82.3404 28.6566 81.6058 29.3201C80.7974 30.0443 79.6688 30.4073 78.2219 30.4073C76.8852 30.4073 75.8136 30.1497 75.0052 29.6337L75.4654 27.9753C76.3382 28.4923 77.2969 28.7499 78.3405 28.7499C79.091 28.7499 79.6744 28.5801 80.0907 28.2432C80.508 27.9053 80.719 27.4537 80.719 26.89C80.719 26.3851 80.5444 25.9624 80.2018 25.618C79.8574 25.2746 79.288 24.9545 78.488 24.6605C76.313 23.8496 75.2246 22.6635 75.2246 21.1031C75.2246 20.0841 75.6092 19.2498 76.3765 18.5974C77.1438 17.9461 78.1613 17.6204 79.427 17.6204C80.5575 17.6204 81.4993 17.8173 82.247 18.2102L81.7476 19.8321C81.0438 19.4513 80.2494 19.261 79.3608 19.261C78.6588 19.261 78.1081 19.4336 77.7141 19.777C77.3828 20.0841 77.2147 20.4583 77.2147 20.9025C77.2147 21.3924 77.4061 21.7993 77.7869 22.1185C78.1174 22.4124 78.7204 22.7325 79.5923 23.0759C80.662 23.5071 81.448 24.0092 81.9511 24.5859C82.458 25.1626 82.71 25.8821 82.71 26.7397ZM89.3068 22.7614H87.1132V27.1093C87.1132 28.2152 87.4996 28.7667 88.2744 28.7667C88.6301 28.7667 88.925 28.7368 89.1584 28.6743L89.2135 30.1852C88.8214 30.3317 88.3052 30.4054 87.6658 30.4054C86.8798 30.4054 86.2656 30.1656 85.8222 29.6859C85.3807 29.2062 85.1585 28.4027 85.1585 27.2717V22.7577H83.8517V21.2646H85.1585V19.6249L87.1132 19.0351V21.2646H89.3068V22.7614ZM99.1847 25.6722C99.1847 27.0486 98.7908 28.1788 98.0048 29.0625C97.1825 29.9724 96.0884 30.426 94.7246 30.426C93.4085 30.426 92.362 29.9901 91.5817 29.1194C90.8013 28.2469 90.4111 27.1476 90.4111 25.8215C90.4111 24.4338 90.8144 23.2971 91.6181 22.4134C92.4237 21.5287 93.5083 21.0863 94.8721 21.0863C96.1865 21.0863 97.2422 21.5231 98.0412 22.3947C98.8048 23.2402 99.1847 24.3321 99.1847 25.6722ZM97.1218 25.7179C97.1218 24.8976 96.9444 24.1939 96.5888 23.6051C96.1715 22.894 95.5741 22.5384 94.8003 22.5384C94.0031 22.5384 93.3917 22.894 92.9753 23.6051C92.6188 24.1939 92.4414 24.9097 92.4414 25.7552C92.4414 26.5764 92.6188 27.2819 92.9753 27.8689C93.4057 28.5801 94.0059 28.9356 94.7835 28.9356C95.5442 28.9356 96.1407 28.5726 96.572 27.8512C96.9379 27.2484 97.1218 26.54 97.1218 25.7179ZM105.656 23.0181C105.449 22.9807 105.239 22.9623 105.029 22.963C104.329 22.963 103.788 23.2262 103.407 23.7563C103.076 24.2229 102.91 24.8127 102.91 25.5247V30.2234H100.92V24.0885C100.922 23.1484 100.903 22.2084 100.862 21.2692H102.596L102.668 22.9826H102.723C102.934 22.3938 103.265 21.9188 103.719 21.5632C104.134 21.2525 104.638 21.0843 105.157 21.0835C105.341 21.0835 105.507 21.0966 105.655 21.1199L105.656 23.0181ZM114.557 25.3222C114.562 25.6246 114.538 25.9269 114.484 26.2246H108.514C108.536 27.1093 108.826 27.7868 109.38 28.2534C109.883 28.6696 110.534 28.8787 111.333 28.8787C112.217 28.8787 113.023 28.7387 113.749 28.4559L114.06 29.8362C113.213 30.2057 112.212 30.3896 111.057 30.3896C109.668 30.3896 108.578 29.9808 107.785 29.1652C106.993 28.3486 106.596 27.2512 106.596 25.8765C106.596 24.5271 106.965 23.4026 107.704 22.5057C108.476 21.5483 109.521 21.0695 110.835 21.0695C112.126 21.0695 113.104 21.5483 113.767 22.5057C114.293 23.2645 114.557 24.2051 114.557 25.3222ZM112.659 24.8061C112.673 24.2154 112.543 23.7068 112.273 23.2766C111.928 22.7223 111.398 22.446 110.688 22.446C110.037 22.446 109.507 22.7157 109.104 23.257C108.772 23.6872 108.575 24.2042 108.515 24.8043L112.659 24.8061Z" fill="white"/>
<path d="M42.7298 13.4135C42.1763 13.4135 41.6974 13.3864 41.2988 13.3407V7.33639C41.8563 7.2503 42.4196 7.20786 42.9837 7.20948C45.266 7.20948 46.3171 8.33213 46.3171 10.1622C46.3171 12.2731 45.0756 13.4135 42.7298 13.4135ZM43.064 7.97938C42.756 7.97938 42.4937 7.99804 42.2762 8.04284V12.6072C42.3938 12.6259 42.6197 12.6343 42.9371 12.6343C44.4325 12.6343 45.2838 11.7832 45.2838 10.1892C45.2838 8.76795 44.5137 7.97938 43.064 7.97938ZM49.5926 13.4592C48.3063 13.4592 47.4728 12.4989 47.4728 11.1952C47.4728 9.83648 48.3241 8.8678 49.6655 8.8678C50.9331 8.8678 51.7854 9.78235 51.7854 11.1234C51.7854 12.4989 50.907 13.4592 49.5926 13.4592ZM49.63 9.58264C48.9234 9.58264 48.4706 10.2434 48.4706 11.1672C48.4706 12.0734 48.9327 12.7341 49.6207 12.7341C50.3086 12.7341 50.7707 12.0277 50.7707 11.1486C50.7707 10.2527 50.318 9.58264 49.63 9.58264ZM59.1205 8.95832L57.7437 13.3594H56.8466L56.2762 11.4481C56.1344 10.9806 56.0164 10.5063 55.9225 10.0269H55.9038C55.8319 10.5065 55.6956 10.9871 55.5509 11.4481L54.9442 13.3594H54.0378L52.7422 8.95832H53.7475L54.246 11.0506C54.3636 11.5489 54.4625 12.0193 54.5447 12.4635H54.5633C54.6352 12.093 54.7528 11.6301 54.9255 11.0599L55.5509 8.95926H56.3481L56.9465 11.0151C57.0912 11.5135 57.2088 12.0025 57.3003 12.4644H57.3264C57.3899 12.0118 57.4897 11.5312 57.6251 11.0151L58.16 8.95926L59.1205 8.95832ZM64.1892 13.3594H63.2109V10.8322C63.2109 10.0539 62.9122 9.66383 62.3232 9.66383C61.7435 9.66383 61.345 10.1622 61.345 10.7417V13.3594H60.3667V10.2163C60.3667 9.82715 60.3574 9.41 60.3303 8.95739H61.1909L61.2367 9.63677H61.2637C61.527 9.16643 62.0609 8.8678 62.6593 8.8678C63.5834 8.8678 64.1901 9.57425 64.1901 10.724L64.1892 13.3594ZM66.8869 13.3594H65.9077V6.93884H66.8869V13.3594ZM70.4537 13.4592C69.1683 13.4592 68.3338 12.4989 68.3338 11.1952C68.3338 9.83648 69.1851 8.8678 70.5256 8.8678C71.7941 8.8678 72.6455 9.78235 72.6455 11.1234C72.6464 12.4989 71.7671 13.4592 70.4537 13.4592ZM70.4901 9.58264C69.7835 9.58264 69.3307 10.2434 69.3307 11.1672C69.3307 12.0734 69.7937 12.7341 70.4798 12.7341C71.1687 12.7341 71.6299 12.0277 71.6299 11.1486C71.6308 10.2527 71.179 9.58264 70.4901 9.58264ZM76.5025 13.3594L76.4316 12.8526H76.4055C76.1067 13.2605 75.6708 13.4592 75.1182 13.4592C74.3294 13.4592 73.7694 12.9068 73.7694 12.1639C73.7694 11.0777 74.7112 10.5159 76.342 10.5159V10.4347C76.342 9.85514 76.0349 9.56491 75.4281 9.56491C74.9941 9.56491 74.6132 9.6741 74.2781 9.89154L74.0793 9.24855C74.4863 8.99472 74.9941 8.8678 75.5905 8.8678C76.7406 8.8678 77.3212 9.47439 77.3212 10.6885V12.3095C77.3212 12.7537 77.3408 13.0981 77.3847 13.3603L76.5025 13.3594ZM76.3681 11.1672C75.2816 11.1672 74.7364 11.4304 74.7364 12.0547C74.7364 12.5167 75.0174 12.7425 75.4076 12.7425C75.9051 12.7425 76.3681 12.3627 76.3681 11.8466V11.1672ZM82.0716 13.3594L82.0258 12.6529H81.9988C81.7178 13.1867 81.2455 13.4592 80.5855 13.4592C79.5242 13.4592 78.7382 12.526 78.7382 11.213C78.7382 9.83648 79.5531 8.86687 80.6658 8.86687C81.2548 8.86687 81.6721 9.06564 81.9073 9.46506H81.9269V6.93884H82.9061V12.1733C82.9061 12.5988 82.9164 12.9973 82.9425 13.3594H82.0716ZM81.9269 10.7697C81.9269 10.1538 81.519 9.62837 80.8963 9.62837C80.171 9.62837 79.7276 10.2714 79.7276 11.1766C79.7276 12.0641 80.1879 12.6716 80.8767 12.6716C81.4919 12.6716 81.9269 12.1369 81.9269 11.5032V10.7697ZM89.1146 13.4592C87.8292 13.4592 86.9956 12.4989 86.9956 11.1952C86.9956 9.83648 87.8469 8.8678 89.1874 8.8678C90.4559 8.8678 91.3073 9.78235 91.3073 11.1234C91.3082 12.4989 90.4298 13.4592 89.1146 13.4592ZM89.151 9.58264C88.4453 9.58264 87.9925 10.2434 87.9925 11.1672C87.9925 12.0734 88.4546 12.7341 89.1416 12.7341C89.8305 12.7341 90.2917 12.0277 90.2917 11.1486C90.2935 10.2527 89.8408 9.58264 89.151 9.58264ZM96.5683 13.3594H95.5891V10.8322C95.5891 10.0539 95.2904 9.66383 94.7013 9.66383C94.1217 9.66383 93.724 10.1622 93.724 10.7417V13.3594H92.7448V10.2163C92.7448 9.82715 92.7355 9.41 92.7084 8.95739H93.569L93.6148 9.63677H93.6419C93.9042 9.16643 94.439 8.86687 95.0365 8.86687C95.9606 8.86687 96.5683 9.57331 96.5683 10.723V13.3594ZM103.15 9.69183H102.074V11.8289C102.074 12.373 102.262 12.6445 102.643 12.6445C102.816 12.6445 102.961 12.6259 103.077 12.5988L103.104 13.3416C102.915 13.4144 102.661 13.4508 102.345 13.4508C101.574 13.4508 101.113 13.0253 101.113 11.911V9.69183H100.471V8.95832H101.113V8.15202L102.074 7.86179V8.95739H103.15V9.69183ZM108.329 13.3594H107.352V10.8509C107.352 10.0633 107.054 9.66477 106.464 9.66477C105.957 9.66477 105.485 10.0091 105.485 10.7062V13.3594H104.507V6.93884H105.485V9.58264H105.504C105.812 9.10297 106.259 8.86687 106.828 8.86687C107.76 8.86687 108.329 9.59104 108.329 10.7417V13.3594ZM113.635 11.394H110.699C110.718 12.2274 111.269 12.6977 112.086 12.6977C112.52 12.6977 112.92 12.6249 113.273 12.4896L113.425 13.169C113.008 13.35 112.518 13.4406 111.948 13.4406C110.571 13.4406 109.756 12.5708 109.756 11.2223C109.756 9.87287 110.591 8.85847 111.838 8.85847C112.963 8.85847 113.668 9.69183 113.668 10.9507C113.675 11.0993 113.663 11.2481 113.635 11.394ZM112.738 10.6969C112.738 10.0175 112.395 9.53785 111.77 9.53785C111.208 9.53785 110.763 10.0269 110.7 10.6969H112.738Z" fill="white"/>
<rect x="1.02734" y="1.2522" width="124.916" height="36.46" rx="3.5" stroke="white"/>
</svg>
