<svg width="127" height="39" viewBox="0 0 127 39" fill="none" xmlns="http://www.w3.org/2000/svg">
<g clip-path="url(#clip0_1205_16360)">
<path d="M121.696 1.57417C123.841 1.57417 125.613 3.34632 125.613 5.49156V33.4729C125.613 35.6181 123.841 37.3903 121.696 37.3903H5.10691C2.96168 37.3903 1.18953 35.6181 1.18953 33.4729V5.49156C1.18953 3.34632 2.96168 1.57417 5.10691 1.57417H121.696ZM121.696 0.828003H5.10691C2.49532 0.828003 0.443359 2.97324 0.443359 5.49156V33.4729C0.443359 36.0845 2.49532 38.1364 5.10691 38.1364H121.696C124.307 38.1364 126.359 36.0845 126.359 33.4729V5.49156C126.359 2.97324 124.307 0.828003 121.696 0.828003Z" fill="white"/>
<path d="M44.6549 10.3416C44.6549 11.0878 44.4683 11.7407 44.002 12.207C43.4423 12.7667 42.7894 13.0465 41.95 13.0465C41.1106 13.0465 40.4577 12.7667 39.898 12.207C39.3384 11.6474 39.0586 10.9945 39.0586 10.1551C39.0586 9.31564 39.3384 8.66274 39.898 8.10311C40.4577 7.54349 41.1106 7.26367 41.95 7.26367C42.3231 7.26367 42.6962 7.35694 43.0692 7.54348C43.4423 7.73003 43.7221 7.91657 43.9087 8.19638L43.4423 8.66274C43.0692 8.19638 42.6029 8.00984 41.95 8.00984C41.3904 8.00984 40.8307 8.19638 40.4577 8.66274C39.9913 9.03582 39.8048 9.59545 39.8048 10.2483C39.8048 10.9012 39.9913 11.4609 40.4577 11.834C40.924 12.207 41.3904 12.4869 41.95 12.4869C42.6029 12.4869 43.0692 12.3003 43.5356 11.834C43.8154 11.5541 44.002 11.1811 44.002 10.7147H41.95V9.96853H44.6549V10.3416ZM48.9453 8.00984H46.427V9.78199H48.7588V10.4349H46.427V12.207H48.9453V12.9532H45.6808V7.35694H48.9453V8.00984ZM52.0233 12.9532H51.2771V8.00984H49.6915V7.35694H53.6089V8.00984H52.0233V12.9532ZM56.3137 12.9532V7.35694H57.0599V12.9532H56.3137ZM60.2311 12.9532H59.485V8.00984H57.8993V7.35694H61.7235V8.00984H60.1379V12.9532H60.2311ZM69.0919 12.207C68.5323 12.7667 67.8794 13.0465 67.0399 13.0465C66.2005 13.0465 65.5476 12.7667 64.988 12.207C64.4283 11.6474 64.1485 10.9945 64.1485 10.1551C64.1485 9.31564 64.4283 8.66274 64.988 8.10311C65.5476 7.54349 66.2005 7.26367 67.0399 7.26367C67.8794 7.26367 68.5323 7.54349 69.0919 8.10311C69.6515 8.66274 69.9313 9.31564 69.9313 10.1551C69.9313 10.9945 69.6515 11.6474 69.0919 12.207ZM65.5476 11.7407C65.9207 12.1138 66.4803 12.3936 67.0399 12.3936C67.5995 12.3936 68.1592 12.207 68.5323 11.7407C68.9053 11.3676 69.1851 10.808 69.1851 10.1551C69.1851 9.50218 68.9986 8.94255 68.5323 8.56947C68.1592 8.19638 67.5995 7.91657 67.0399 7.91657C66.4803 7.91657 65.9207 8.10311 65.5476 8.56947C65.1745 8.94255 64.8947 9.50218 64.8947 10.1551C64.8947 10.808 65.0812 11.3676 65.5476 11.7407ZM70.9573 12.9532V7.35694H71.7967L74.5016 11.7407V7.35694H75.2478V12.9532H74.5016L71.6102 8.38293V12.9532H70.9573Z" fill="white" stroke="white" stroke-width="0.5" stroke-miterlimit="10"/>
<path d="M63.9605 21.1611C61.722 21.1611 59.9499 22.84 59.9499 25.1717C59.9499 27.4102 61.722 29.1824 63.9605 29.1824C66.199 29.1824 67.9712 27.5035 67.9712 25.1717C67.9712 22.7467 66.199 21.1611 63.9605 21.1611ZM63.9605 27.5035C62.748 27.5035 61.722 26.4775 61.722 25.0785C61.722 23.6794 62.748 22.6534 63.9605 22.6534C65.1731 22.6534 66.199 23.5861 66.199 25.0785C66.199 26.4775 65.1731 27.5035 63.9605 27.5035ZM55.2863 21.1611C53.0478 21.1611 51.2757 22.84 51.2757 25.1717C51.2757 27.4102 53.0478 29.1824 55.2863 29.1824C57.5248 29.1824 59.297 27.5035 59.297 25.1717C59.297 22.7467 57.5248 21.1611 55.2863 21.1611ZM55.2863 27.5035C54.0738 27.5035 53.0478 26.4775 53.0478 25.0785C53.0478 23.6794 54.0738 22.6534 55.2863 22.6534C56.4989 22.6534 57.5248 23.5861 57.5248 25.0785C57.5248 26.4775 56.4989 27.5035 55.2863 27.5035ZM44.9332 22.3736V24.0525H48.9439C48.8506 24.9852 48.4775 25.7314 48.0112 26.1977C47.4516 26.7573 46.5188 27.4102 44.9332 27.4102C42.4149 27.4102 40.5495 25.4516 40.5495 22.9332C40.5495 20.4149 42.5082 18.4562 44.9332 18.4562C46.239 18.4562 47.265 19.0159 48.0112 19.6687L49.2237 18.4562C48.1977 17.5235 46.8919 16.7773 45.0265 16.7773C41.6687 16.7773 38.7773 19.5755 38.7773 22.9332C38.7773 26.291 41.6687 29.0891 45.0265 29.0891C46.8919 29.0891 48.1977 28.5295 49.317 27.317C50.4362 26.1977 50.8093 24.6121 50.8093 23.3996C50.8093 23.0265 50.8093 22.6534 50.716 22.3736H44.9332ZM87.2783 23.6794C86.9052 22.7467 85.9725 21.1611 83.9206 21.1611C81.8686 21.1611 80.1897 22.7467 80.1897 25.1717C80.1897 27.4102 81.8686 29.1824 84.1071 29.1824C85.8792 29.1824 86.9985 28.0631 87.3716 27.4102L86.0658 26.4775C85.5994 27.1304 85.0398 27.5968 84.1071 27.5968C83.1744 27.5968 82.6148 27.2237 82.1484 26.3843L87.4649 24.1458L87.2783 23.6794ZM81.8686 24.9852C81.8686 23.4929 83.0811 22.6534 83.9206 22.6534C84.5734 22.6534 85.2263 23.0265 85.4129 23.4929L81.8686 24.9852ZM77.4848 28.8093H79.257V17.1504H77.4848V28.8093ZM74.6867 22.0005C74.2204 21.5342 73.4742 21.0678 72.5415 21.0678C70.5828 21.0678 68.7174 22.84 68.7174 25.0785C68.7174 27.317 70.4895 28.9959 72.5415 28.9959C73.4742 28.9959 74.2204 28.5295 74.5934 28.0631H74.6867V28.6228C74.6867 30.1151 73.8473 30.9545 72.5415 30.9545C71.5155 30.9545 70.7693 30.2084 70.5828 29.5555L69.0904 30.2084C69.5568 31.2344 70.6761 32.5402 72.6348 32.5402C74.6867 32.5402 76.3656 31.3276 76.3656 28.4362V21.3476H74.6867V22.0005ZM72.6348 27.5035C71.4222 27.5035 70.3962 26.4775 70.3962 25.0785C70.3962 23.6794 71.4222 22.6534 72.6348 22.6534C73.8473 22.6534 74.78 23.6794 74.78 25.0785C74.78 26.4775 73.8473 27.5035 72.6348 27.5035ZM95.3929 17.1504H91.1957V28.8093H92.9678V24.4256H95.3929C97.3516 24.4256 99.217 23.0265 99.217 20.788C99.217 18.5495 97.3516 17.1504 95.3929 17.1504ZM95.4862 22.7467H92.9678V18.736H95.4862C96.792 18.736 97.5381 19.8553 97.5381 20.6947C97.4449 21.7207 96.6987 22.7467 95.4862 22.7467ZM106.212 21.0678C104.907 21.0678 103.601 21.6274 103.134 22.84L104.72 23.4929C105.093 22.84 105.653 22.6534 106.306 22.6534C107.238 22.6534 108.078 23.213 108.171 24.1458V24.239C107.891 24.0525 107.145 23.7727 106.399 23.7727C104.72 23.7727 103.041 24.7054 103.041 26.3843C103.041 27.9699 104.44 28.9959 105.933 28.9959C107.145 28.9959 107.705 28.4362 108.171 27.8766H108.264V28.8093H109.943V24.3323C109.757 22.2803 108.171 21.0678 106.212 21.0678ZM106.026 27.5035C105.466 27.5035 104.627 27.2237 104.627 26.4775C104.627 25.5448 105.653 25.265 106.492 25.265C107.238 25.265 107.611 25.4516 108.078 25.6381C107.891 26.7573 106.959 27.5035 106.026 27.5035ZM115.819 21.3476L113.861 26.3843H113.767L111.715 21.3476H109.85L112.928 28.4362L111.156 32.3536H112.928L117.685 21.3476H115.819ZM100.15 28.8093H101.922V17.1504H100.15V28.8093Z" fill="white"/>
<path d="M10.1446 7.82336C9.86476 8.10318 9.77148 8.56953 9.77148 9.12916V29.7421C9.77148 30.3017 9.95803 30.7681 10.2378 31.0479L10.3311 31.1411L21.8967 19.5755V19.389L10.1446 7.82336Z" fill="url(#paint0_linear_1205_16360)"/>
<path d="M25.6268 23.4929L21.8027 19.6687V19.3889L25.6268 15.5648L25.7201 15.6581L30.2904 18.2697C31.5962 19.0158 31.5962 20.2284 30.2904 20.9745L25.6268 23.4929Z" fill="url(#paint1_linear_1205_16360)"/>
<path d="M25.7208 23.3996L21.8034 19.4822L10.1445 31.1411C10.6109 31.6074 11.2638 31.6074 12.1032 31.2343L25.7208 23.3996Z" fill="url(#paint2_linear_1205_16360)"/>
<path d="M25.7208 15.5648L12.1032 7.82333C11.2638 7.35697 10.6109 7.45024 10.1445 7.9166L21.8034 19.4822L25.7208 15.5648Z" fill="url(#paint3_linear_1205_16360)"/>
<path opacity="0.2" d="M25.6275 23.3064L12.1032 30.9546C11.3571 31.421 10.7042 31.3277 10.2378 30.9546L10.1445 31.0479L10.2378 31.1412C10.7042 31.5143 11.3571 31.6075 12.1032 31.1412L25.6275 23.3064Z" fill="black"/>
<path opacity="0.12" d="M10.1446 30.9545C9.86476 30.6747 9.77148 30.2084 9.77148 29.6487V29.742C9.77148 30.3016 9.95803 30.768 10.2378 31.0478V30.9545H10.1446ZM30.2911 20.6947L25.6276 23.3063L25.7208 23.3996L30.2911 20.788C30.944 20.4149 31.2238 19.9485 31.2238 19.4822C31.2238 19.9485 30.8507 20.3216 30.2911 20.6947Z" fill="black"/>
<path opacity="0.25" d="M12.1033 7.9166L30.2911 18.2697C30.8507 18.6428 31.2238 19.0159 31.2238 19.4822C31.2238 19.0159 30.944 18.5495 30.2911 18.1764L12.1033 7.82333C10.7975 7.07716 9.77148 7.63679 9.77148 9.12913V9.2224C9.77148 7.82333 10.7975 7.17043 12.1033 7.9166Z" fill="white"/>
</g>
<defs>
<linearGradient id="paint0_linear_1205_16360" x1="20.7775" y1="8.95194" x2="5.12379" y2="24.6047" gradientUnits="userSpaceOnUse">
<stop stop-color="#00A0FF"/>
<stop offset="0.007" stop-color="#00A1FF"/>
<stop offset="0.26" stop-color="#00BEFF"/>
<stop offset="0.512" stop-color="#00D2FF"/>
<stop offset="0.76" stop-color="#00DFFF"/>
<stop offset="1" stop-color="#00E3FF"/>
</linearGradient>
<linearGradient id="paint1_linear_1205_16360" x1="32.001" y1="19.4831" x2="9.43219" y2="19.4831" gradientUnits="userSpaceOnUse">
<stop stop-color="#FFE000"/>
<stop offset="0.409" stop-color="#FFBD00"/>
<stop offset="0.775" stop-color="#FFA500"/>
<stop offset="1" stop-color="#FF9C00"/>
</linearGradient>
<linearGradient id="paint2_linear_1205_16360" x1="23.6008" y1="21.6237" x2="2.37412" y2="42.8503" gradientUnits="userSpaceOnUse">
<stop stop-color="#FF3A44"/>
<stop offset="1" stop-color="#C31162"/>
</linearGradient>
<linearGradient id="paint3_linear_1205_16360" x1="7.25033" y1="0.992156" x2="16.7295" y2="10.4713" gradientUnits="userSpaceOnUse">
<stop stop-color="#32A071"/>
<stop offset="0.069" stop-color="#2DA771"/>
<stop offset="0.476" stop-color="#15CF74"/>
<stop offset="0.801" stop-color="#06E775"/>
<stop offset="1" stop-color="#00F076"/>
</linearGradient>
<clipPath id="clip0_1205_16360">
<rect width="125.916" height="37.46" fill="white" transform="translate(0.443359 0.752197)"/>
</clipPath>
</defs>
</svg>
