<svg width="331" height="27" viewBox="0 0 331 27" fill="none" xmlns="http://www.w3.org/2000/svg">
<g clip-path="url(#clip0_1326_92211)">
<path d="M96.4424 12.8825L94.0704 9.4812L91.7012 12.8825L94.0704 16.2866L96.4424 12.8825Z" fill="#78BA5A"/>
<path d="M86.2344 12.8825L88.6036 16.2866L90.9742 12.8825L88.6036 9.4812L86.2344 12.8825Z" fill="#78BA5A"/>
<path d="M101.909 12.8825L99.5372 9.4812L97.168 12.8825L99.5372 16.2866L101.909 12.8825Z" fill="#78BA5A"/>
<path d="M99.1587 8.89331H94.4258L96.7908 12.2877L99.1587 8.89331Z" fill="#78BA5A"/>
<path d="M93.7159 8.89331H88.9844L91.3494 12.2877L93.7159 8.89331Z" fill="#78BA5A"/>
<path d="M88.9844 24.8721H93.7159L91.3508 21.4763L88.9844 24.8721Z" fill="#78BA5A"/>
<path d="M94.4258 24.8721H99.1587L96.7922 21.4763L94.4258 24.8721Z" fill="#78BA5A"/>
<path d="M102.284 4.92505H97.5527L99.9178 8.32082L102.284 4.92505Z" fill="#FFE252"/>
<path d="M96.4444 4.33156L94.0724 0.92749L91.7031 4.33156L94.0724 7.73286L96.4444 4.33156Z" fill="#FFE252"/>
<path d="M99.1592 8.32082L96.7928 4.92505L94.4277 8.32082H99.1592Z" fill="#FFE252"/>
<path d="M93.7178 8.32204L91.3514 4.92627L88.9863 8.32204H93.7178Z" fill="#FFE252"/>
<path d="M90.5928 4.92505H85.8613L88.2264 8.32082L90.5928 4.92505Z" fill="#FFE252"/>
<path d="M99.2008 16.8813L96.8302 13.48L94.4609 16.8813L96.8302 20.2853L99.2008 16.8813Z" fill="#78BA5A"/>
<path d="M93.7594 16.8813L91.3887 13.48L89.0195 16.8813L91.3887 20.2853L93.7594 16.8813Z" fill="#78BA5A"/>
<path d="M85.9474 13.48L83.5781 16.8813L85.9474 20.2853L88.318 16.8813L85.9474 13.48Z" fill="#78BA5A"/>
<path d="M99.9023 16.8813L102.272 20.2853L104.644 16.8813L102.272 13.48L99.9023 16.8813Z" fill="#78BA5A"/>
<path d="M94.0704 17.4773L91.7012 20.8786L94.0704 24.2827L96.4424 20.88L94.0704 17.4773Z" fill="#78BA5A"/>
<path d="M88.6036 17.4775L86.2344 20.8788L88.6036 24.2829L90.9742 20.8802L88.6036 17.4775Z" fill="#78BA5A"/>
<path d="M97.168 20.8786L99.5372 24.2827L101.909 20.88L99.5372 17.4773L97.168 20.8786Z" fill="#78BA5A"/>
<path d="M152.175 7.75371C151.421 7.23225 150.509 6.8574 149.443 6.62778C148.376 6.39956 147.154 6.28613 145.775 6.28613H132.061C132.094 7.5573 132.118 8.91975 132.134 10.3707C132.151 11.8217 132.159 13.5175 132.159 15.4582C132.159 16.7625 132.151 17.941 132.134 18.9923C132.118 20.0435 132.105 21.0269 132.098 21.9399C132.09 22.8528 132.077 23.7491 132.061 24.6302H138.017C137.952 23.7657 137.901 22.756 137.869 21.5968C137.857 21.1708 137.847 20.724 137.837 20.2676C138.212 20.2786 138.575 20.2897 138.916 20.3008C139.416 20.3174 141.059 20.3298 141.518 20.3381C141.977 20.3464 142.433 20.3547 142.884 20.363C143.335 20.3713 143.794 20.3755 144.262 20.3755C144.729 20.3755 145.218 20.3755 145.726 20.3755C146.858 20.3755 147.896 20.2814 148.84 20.0947C149.784 19.9079 150.6 19.6299 151.289 19.2634C151.978 18.8968 152.564 18.4279 153.048 17.8566C153.533 17.2868 153.889 16.609 154.119 15.8261C154.348 15.0432 154.462 14.1552 154.462 13.1593C154.462 11.8383 154.269 10.7387 153.885 9.85757C153.5 8.97647 152.93 8.27656 152.175 7.75371ZM148.717 14.5038C148.562 14.8468 148.324 15.1234 148.003 15.3351C147.683 15.5467 147.253 15.7099 146.712 15.8247C146.17 15.9395 145.498 15.9962 144.693 15.9962C144.004 15.9962 143.335 15.9879 142.687 15.9713C142.039 15.9547 140.273 15.9464 139.717 15.9464C139.158 15.9464 138.667 15.9464 138.24 15.9464C138.066 15.9464 137.915 15.9464 137.78 15.9464C137.775 15.1248 137.772 14.2797 137.772 13.4027C137.772 12.5092 137.772 11.5976 137.772 10.6709C137.844 10.6681 137.915 10.6667 137.993 10.6626C138.419 10.646 138.895 10.6308 139.422 10.6142C139.946 10.5976 141.638 10.5934 142.171 10.6017C142.704 10.61 143.205 10.6142 143.673 10.6142C144.141 10.6142 144.522 10.6142 144.817 10.6142C145.556 10.6142 146.183 10.6598 146.7 10.7484C147.217 10.8383 147.644 10.9807 147.98 11.1771C148.315 11.3736 148.562 11.6378 148.717 11.9725C148.873 12.3072 148.951 12.7263 148.951 13.2326C148.951 13.7375 148.873 14.1621 148.717 14.5038Z" fill="#FFE252"/>
<path d="M173.144 19.7627C172.209 19.7793 171.228 19.7959 170.203 19.8111C169.177 19.8277 168.16 19.836 167.15 19.836C166.141 19.836 165.189 19.836 164.295 19.836C163.814 19.836 163.365 19.836 162.948 19.836C162.946 19.6493 162.944 19.4598 162.941 19.2606C162.933 18.6492 162.928 18.0212 162.928 17.3781C162.928 16.7335 162.928 16.0944 162.928 15.4582C162.928 14.6269 162.933 13.8191 162.941 13.0362C162.949 12.2533 162.953 11.5119 162.953 10.8106C162.953 10.1093 162.966 9.47442 162.991 8.90316C163.016 8.33328 163.031 7.81872 163.04 7.36227C163.048 6.90581 163.061 6.54756 163.076 6.28613H157.267C157.3 6.87261 157.32 7.60709 157.328 8.48681C157.337 9.36653 157.345 10.3943 157.353 11.5686C157.362 12.7429 157.366 14.039 157.366 15.4582C157.366 16.4361 157.362 17.3864 157.353 18.3076C157.345 19.2288 157.337 20.085 157.328 20.8762C157.32 21.6674 157.312 22.3811 157.303 23.016C157.295 23.6523 157.282 24.1903 157.266 24.6302H173.142C173.125 24.2235 173.112 23.8155 173.105 23.4074C173.097 23.0008 173.093 22.5927 173.093 22.1847C173.093 21.778 173.097 21.37 173.105 20.9619C173.115 20.5539 173.128 20.1541 173.144 19.7627Z" fill="#FFE252"/>
<path d="M195.147 6.28613H176C176 6.8574 176.004 7.47707 176.012 8.14516C176.021 8.81325 176.033 9.53113 176.05 10.2974C176.065 11.0637 176.075 11.8715 176.075 12.7194C176.075 13.5673 176.075 14.4802 176.075 15.4582C176.075 16.7625 176.075 17.9576 176.075 19.0407C176.075 20.1251 176.067 21.1238 176.05 22.0367C176.033 22.9496 176 23.8141 175.951 24.6288H195.149C195.132 24.3522 195.119 24.0133 195.111 23.6135C195.103 23.2138 195.098 22.8514 195.098 22.525C195.098 22.1169 195.103 21.6937 195.111 21.2524C195.119 20.8126 195.132 20.4695 195.149 20.2247C194.312 20.2247 193.584 20.2288 192.566 20.2371C191.549 20.2454 190.502 20.2496 189.427 20.2496C188.353 20.2496 187.289 20.2496 186.24 20.2496C185.189 20.2496 184.209 20.2537 183.298 20.262C182.714 20.2676 182.179 20.2703 181.686 20.2731C181.686 19.8388 181.686 19.3934 181.686 18.93C181.686 18.3421 181.686 17.7391 181.686 17.1208C182.311 17.1222 182.971 17.1263 183.667 17.1318C184.643 17.1401 185.652 17.1443 186.695 17.1443C187.736 17.1443 188.77 17.1484 189.796 17.1567C190.821 17.165 191.591 17.1692 192.501 17.1692C193.411 17.1692 194.203 17.1858 194.876 17.219C194.876 16.9091 194.876 16.5053 194.876 16.0087C194.876 15.5121 194.876 15.0225 194.876 14.5411C194.876 14.0597 194.884 13.6641 194.901 13.3543C194.212 13.3875 193.411 13.4069 192.501 13.4152C191.591 13.4235 190.821 13.4276 189.796 13.4276C188.77 13.4276 187.736 13.4318 186.695 13.4401C185.652 13.4484 184.643 13.4525 183.667 13.4525C182.971 13.4525 182.311 13.4525 181.686 13.4525C181.686 12.9988 181.686 12.5285 181.686 12.0347C181.686 11.4856 181.686 10.9475 181.686 10.4205C182.164 10.4205 182.682 10.4205 183.25 10.4205C184.143 10.4205 185.112 10.4247 186.153 10.433C187.196 10.4413 188.254 10.4413 189.329 10.433C190.403 10.4247 191.449 10.4205 192.466 10.4205C193.484 10.4205 194.244 10.4288 195.147 10.4454C195.13 10.2172 195.118 9.89076 195.11 9.4675C195.101 9.04286 195.097 8.6445 195.097 8.26965C195.097 7.92661 195.101 7.56836 195.11 7.19352C195.118 6.8159 195.13 6.51436 195.147 6.28613Z" fill="#FFE252"/>
<path d="M127.167 7.75371C126.413 7.23225 125.501 6.8574 124.435 6.62778C123.369 6.39956 122.146 6.28613 120.767 6.28613H107.053C107.086 7.5573 107.11 8.91975 107.127 10.3707C107.143 11.8217 107.152 13.5175 107.152 15.4582C107.152 16.7625 107.143 17.941 107.127 18.9923C107.11 20.0435 107.097 21.0269 107.09 21.9399C107.082 22.8528 107.069 23.7491 107.053 24.6302H113.009C112.944 23.7657 112.894 22.756 112.862 21.5968C112.849 21.1708 112.839 20.724 112.83 20.2676C113.204 20.2786 113.567 20.2897 113.908 20.3008C114.408 20.3174 116.051 20.3298 116.51 20.3381C116.97 20.3464 117.425 20.3547 117.876 20.363C118.327 20.3713 118.786 20.3755 119.254 20.3755C119.722 20.3755 120.21 20.3755 120.718 20.3755C121.85 20.3755 122.888 20.2814 123.832 20.0947C124.776 19.9079 125.592 19.6299 126.281 19.2634C126.97 18.8968 127.556 18.4279 128.04 17.8566C128.525 17.2868 128.881 16.609 129.111 15.8261C129.34 15.0432 129.455 14.1552 129.455 13.1593C129.455 11.8383 129.261 10.7387 128.877 9.85757C128.493 8.97647 127.922 8.27656 127.167 7.75371ZM123.71 14.5038C123.554 14.8468 123.316 15.1234 122.996 15.3351C122.675 15.5467 122.245 15.7099 121.704 15.8247C121.162 15.9395 120.49 15.9962 119.685 15.9962C118.996 15.9962 118.327 15.9879 117.679 15.9713C117.031 15.9547 115.266 15.9464 114.709 15.9464C114.151 15.9464 113.659 15.9464 113.232 15.9464C113.058 15.9464 112.908 15.9464 112.773 15.9464C112.767 15.1248 112.764 14.2797 112.764 13.4027C112.764 12.5092 112.764 11.5976 112.764 10.6709C112.837 10.6681 112.908 10.6667 112.986 10.6626C113.413 10.646 113.888 10.6308 114.414 10.6142C114.939 10.5976 116.63 10.5934 117.163 10.6017C117.696 10.61 118.197 10.6142 118.665 10.6142C119.133 10.6142 119.514 10.6142 119.809 10.6142C120.548 10.6142 121.175 10.6598 121.693 10.7484C122.209 10.8383 122.636 10.9807 122.972 11.1771C123.307 11.3736 123.554 11.6378 123.71 11.9725C123.866 12.3072 123.944 12.7263 123.944 13.2326C123.942 13.7375 123.864 14.1621 123.71 14.5038Z" fill="#FFE252"/>
<path d="M32.566 12.7194C32.566 11.9047 32.5702 11.1343 32.5785 10.4081C32.5869 9.68328 32.5952 8.98615 32.6036 8.31668C32.6119 7.64859 32.6245 6.97082 32.6398 6.28613H26.9297C26.9464 6.98742 26.9547 7.6721 26.9547 8.34019C26.9547 9.00966 26.9589 9.70542 26.9673 10.4316C26.9756 11.1578 26.9798 11.9324 26.9798 12.7554C26.9798 13.5784 26.9798 14.4802 26.9798 15.4582C26.9798 16.4361 26.9798 17.3338 26.9798 18.1485C26.9798 18.9646 26.9756 19.7309 26.9673 20.4474C26.9589 21.1653 26.9547 21.8652 26.9547 22.5512C26.9547 23.2359 26.9464 23.9289 26.9297 24.6302H32.6398C32.6231 23.9289 32.6105 23.2359 32.6036 22.5512C32.5952 21.8666 32.5869 21.157 32.5785 20.4239C32.5702 19.6908 32.566 18.9189 32.566 18.1125C32.566 17.3061 32.566 16.4043 32.566 15.4098C32.566 14.4304 32.566 13.5341 32.566 12.7194Z" fill="#FFE252"/>
<path d="M53.0771 7.34965C53.0938 7.7826 53.1105 8.27087 53.1258 8.81724C53.1425 9.3636 53.155 9.94593 53.1634 10.5656C53.1717 11.1853 53.1801 11.8257 53.1884 12.4855C53.1968 13.1453 53.2009 13.7857 53.2009 14.4054C53.2009 14.9766 53.2176 15.5673 53.2497 16.1787C53.2831 16.79 53.3276 17.4222 53.3847 18.0736C53.393 18.1718 53.4042 18.2701 53.4139 18.3683C53.4042 18.3517 53.3958 18.3337 53.3847 18.3185C53.1132 17.8786 52.814 17.4457 52.4868 17.0224C52.1583 16.5991 51.8298 16.1994 51.5027 15.8246C51.0266 15.3031 50.4976 14.7318 49.9144 14.1121C49.3311 13.4925 48.7367 12.8603 48.1298 12.2172C47.5229 11.5726 46.9201 10.9501 46.3202 10.3457C45.7216 9.7426 45.1718 9.16304 44.6706 8.60975C44.1695 8.05509 43.7435 7.57927 43.3914 7.17952C43.0378 6.77977 42.7956 6.48239 42.6647 6.28735H35.9941C36.0108 7.08685 36.022 7.94305 36.0317 8.85596C36.0401 9.76888 36.0443 10.7717 36.0443 11.8644C36.0443 12.9572 36.0443 14.155 36.0443 15.4594C36.0443 17.4152 36.0359 19.1235 36.0192 20.5828C36.0025 22.0421 35.9941 23.3921 35.9941 24.63H41.3841C41.3674 24.3202 41.3548 23.9122 41.3479 23.4073C41.3395 22.9024 41.3312 22.2993 41.3228 21.598C41.3145 20.8968 41.3061 20.1028 41.2977 19.2134C41.2894 18.3254 41.2852 17.3668 41.2852 16.3391C41.2685 15.6544 41.2435 14.9656 41.2114 14.2726C41.178 13.5796 41.1418 12.8908 41.1001 12.2061C41.0973 12.1715 41.0945 12.1342 41.0917 12.0996C41.4008 12.5242 41.7321 12.9503 42.0968 13.3804C42.5394 13.9019 42.9835 14.4081 43.4262 14.8964C44.0498 15.5645 44.718 16.2658 45.4321 17.0003C46.1462 17.7348 46.8686 18.4803 47.598 19.2383C48.3275 19.9963 49.0179 20.7225 49.6652 21.4155C50.3125 22.1085 50.8749 22.7323 51.3509 23.2869C51.827 23.8416 52.1708 24.2898 52.3852 24.6328H58.2429C58.2094 23.4266 58.19 22.0974 58.1816 20.6464C58.1733 19.1954 58.1691 17.4595 58.1691 15.4373C58.1691 14.4593 58.1733 13.534 58.1816 12.6612C58.19 11.7884 58.2025 10.9654 58.2178 10.1908C58.2345 9.41616 58.2456 8.70243 58.2554 8.05094C58.2637 7.39945 58.2679 6.81159 58.2679 6.29012H53.0005C53.0353 6.56399 53.0604 6.91809 53.0771 7.34965Z" fill="#FFE252"/>
<path d="M80.9753 6.28613H61.828C61.828 6.8574 61.8322 7.47707 61.8405 8.14516C61.8489 8.81325 61.86 9.53113 61.8781 10.2974C61.8934 11.0637 61.9032 11.8715 61.9032 12.7194C61.9032 13.5673 61.9032 14.4802 61.9032 15.4582C61.9032 16.7625 61.9032 17.9576 61.9032 19.0407C61.9032 20.1251 61.8948 21.1238 61.8781 22.0367C61.8614 22.9496 61.828 23.8141 61.7793 24.6288H80.9767C80.96 24.3522 80.9475 24.0133 80.9391 23.6135C80.9308 23.2138 80.9266 22.8514 80.9266 22.525C80.9266 22.1169 80.9308 21.6937 80.9391 21.2524C80.9475 20.8126 80.96 20.4695 80.9767 20.2247C80.1401 20.2247 79.4121 20.2288 78.3945 20.2371C77.3769 20.2454 76.3301 20.2496 75.2569 20.2496C74.1822 20.2496 73.1187 20.2496 72.0691 20.2496C71.0196 20.2496 70.0382 20.2537 69.1278 20.262C68.5431 20.2676 68.0086 20.2703 67.5158 20.2731C67.5158 19.8388 67.5158 19.3934 67.5158 18.93C67.5158 18.3421 67.5158 17.7391 67.5158 17.1208C68.1408 17.1222 68.8007 17.1263 69.4967 17.1318C70.4725 17.1401 71.4817 17.1443 72.5243 17.1443C73.5656 17.1443 74.5998 17.1484 75.6258 17.1567C76.6517 17.165 77.6191 17.1692 78.5309 17.1692C79.4413 17.1692 80.0343 17.1858 80.7066 17.219C80.7066 16.9091 80.7066 16.5053 80.7066 16.0087C80.7066 15.5121 80.7066 15.0225 80.7066 14.5411C80.7066 14.0597 80.715 13.6641 80.7317 13.3543C80.0426 13.3875 79.4413 13.4069 78.5309 13.4152C77.6205 13.4235 76.6517 13.4276 75.6258 13.4276C74.5998 13.4276 73.5656 13.4318 72.5243 13.4401C71.4817 13.4484 70.4725 13.4525 69.4967 13.4525C68.8007 13.4525 68.1408 13.4525 67.5158 13.4525C67.5158 12.9988 67.5158 12.5285 67.5158 12.0347C67.5158 11.4856 67.5158 10.9475 67.5158 10.4205C67.9933 10.4205 68.5111 10.4205 69.0791 10.4205C69.9727 10.4205 70.9416 10.4247 71.9828 10.433C73.0255 10.4413 74.0834 10.4413 75.158 10.433C76.2327 10.4247 77.2781 10.4205 78.2957 10.4205C79.3132 10.4205 80.0733 10.4288 80.9767 10.4454C80.96 10.2172 80.9475 9.89076 80.9391 9.4675C80.9308 9.04286 80.9266 8.6445 80.9266 8.26965C80.9266 7.92661 80.9308 7.56836 80.9391 7.19352C80.9461 6.8159 80.9586 6.51436 80.9753 6.28613Z" fill="#FFE252"/>
<path d="M21.4482 7.75371C20.6937 7.23225 19.7819 6.8574 18.7156 6.62778C17.6493 6.39956 16.4271 6.28613 15.0476 6.28613H1.33342C1.36544 7.5573 1.3905 8.91975 1.4072 10.3707C1.4239 11.8217 1.43226 13.5175 1.43226 15.4582C1.43226 16.7625 1.4239 17.941 1.4072 18.9923C1.3905 20.0435 1.37797 21.0269 1.36962 21.9399C1.36126 22.8528 1.34874 23.7491 1.33203 24.6302H7.2885C7.22307 23.7657 7.17296 22.756 7.14094 21.5968C7.12842 21.1708 7.11867 20.724 7.10893 20.2676C7.48338 20.2786 7.8467 20.2897 8.18775 20.3008C8.68748 20.3174 10.3301 20.3298 10.7894 20.3381C11.2488 20.3464 11.704 20.3547 12.155 20.363C12.606 20.3713 13.0654 20.3755 13.5331 20.3755C14.0008 20.3755 14.4894 20.3755 14.9975 20.3755C16.1292 20.3755 17.1677 20.2814 18.1115 20.0947C19.0553 19.9079 19.871 19.6299 20.56 19.2634C21.2491 18.8968 21.8351 18.4279 22.3196 17.8566C22.804 17.2868 23.1603 16.609 23.39 15.8261C23.6197 15.0432 23.7339 14.1552 23.7339 13.1593C23.7339 11.8383 23.5404 10.7387 23.1548 9.85757C22.7734 8.97647 22.2026 8.27656 21.4482 7.75371ZM17.989 14.5038C17.8331 14.8468 17.595 15.1234 17.2749 15.3351C16.9547 15.5467 16.5246 15.7099 15.9831 15.8247C15.4416 15.9395 14.7692 15.9962 13.9646 15.9962C13.2756 15.9962 12.606 15.9879 11.9587 15.9713C11.3101 15.9547 9.54497 15.9464 8.98816 15.9464C8.42996 15.9464 7.93857 15.9464 7.51122 15.9464C7.33722 15.9464 7.18688 15.9464 7.05186 15.9464C7.04629 15.1248 7.0435 14.2797 7.0435 13.4027C7.0435 12.5092 7.0435 11.5976 7.0435 10.6709C7.11589 10.6681 7.18688 10.6667 7.26483 10.6626C7.69079 10.646 8.16687 10.6308 8.69305 10.6142C9.21784 10.5976 10.9092 10.5934 11.4423 10.6017C11.9754 10.61 12.4766 10.6142 12.9443 10.6142C13.412 10.6142 13.7934 10.6142 14.0885 10.6142C14.8263 10.6142 15.4541 10.6598 15.9719 10.7484C16.4884 10.8383 16.9157 10.9807 17.2512 11.1771C17.5867 11.3736 17.8331 11.6378 17.9904 11.9725C18.1463 12.3072 18.2242 12.7263 18.2242 13.2326C18.2228 13.7375 18.1449 14.1621 17.989 14.5038Z" fill="#FFE252"/>
<path d="M254.727 19.1181C254.226 18.1152 253.718 17.0848 253.202 16.0238C252.685 14.9643 252.193 13.9283 251.725 12.9172C251.257 11.906 250.817 10.953 250.408 10.0553C249.997 9.15899 249.633 8.3595 249.312 7.65822C248.992 6.95693 248.742 6.40227 248.562 5.99561H239.947C239.783 6.42025 239.549 6.97768 239.245 7.67067C238.942 8.36365 238.577 9.16314 238.15 10.0678C237.722 10.9724 237.28 11.9351 236.82 12.9545C236.361 13.9739 235.881 15.0127 235.381 16.0723C234.88 17.1318 234.384 18.1637 233.892 19.1665C233.399 20.1693 232.935 21.1196 232.501 22.0159C232.067 22.9122 231.669 23.6868 231.307 24.3397H237.657C237.788 23.9648 237.99 23.4351 238.26 22.7504C238.481 22.1888 238.739 21.558 239.027 20.8651C239.5 20.8637 239.978 20.8609 240.463 20.854C241.152 20.8457 241.808 20.8415 242.433 20.8415C243.057 20.8415 243.607 20.8415 244.083 20.8415C244.624 20.8415 245.198 20.8415 245.806 20.8415C246.413 20.8415 247.057 20.8457 247.738 20.854C248.256 20.8609 248.77 20.8623 249.282 20.8637C249.351 21.0476 249.42 21.2288 249.485 21.4045C249.74 22.0892 249.961 22.6812 250.149 23.1778C250.337 23.6757 250.465 24.063 250.53 24.3397H257.422C257.045 23.655 256.626 22.8638 256.167 21.9675C255.707 21.0712 255.227 20.1209 254.727 19.1181ZM245.853 17.0267C245.213 17.0267 244.623 17.0267 244.081 17.0267C243.573 17.0267 242.99 17.0267 242.334 17.0267C241.796 17.0267 241.24 17.0267 240.675 17.0267C241.01 16.2604 241.345 15.4955 241.67 14.7402C242.081 13.7858 242.466 12.9019 242.827 12.0872C243.139 11.3541 243.409 10.7262 243.639 10.2033C243.85 9.72334 244.037 9.29732 244.2 8.92108C244.365 9.31806 244.55 9.75654 244.759 10.2407C244.98 10.7538 245.255 11.3458 245.583 12.0139C245.895 12.6986 246.224 13.4497 246.567 14.2644C246.911 15.0805 247.261 15.9035 247.613 16.7348C247.653 16.8302 247.691 16.9229 247.731 17.017C247.084 17.0239 246.457 17.0267 245.853 17.0267Z" fill="#FFE252"/>
<path d="M278.754 14.3488C278.114 14.3571 277.495 14.3612 276.896 14.3612C276.296 14.3612 275.743 14.3612 275.234 14.3612C274.265 14.3612 273.158 14.3654 271.911 14.3737C270.664 14.382 269.4 14.3612 268.121 14.3128C268.121 14.5576 268.121 14.8384 268.121 15.1566C268.121 15.4747 268.121 15.8205 268.121 16.1954C268.121 16.2936 268.121 16.4277 268.121 16.5993C268.121 16.7708 268.121 16.9423 268.121 17.1124C268.121 17.2839 268.121 17.4347 268.121 17.5647C268.58 17.5329 269.088 17.5163 269.646 17.5163C270.205 17.5163 270.778 17.5122 271.37 17.5039C271.96 17.4956 272.556 17.4873 273.154 17.479C273.753 17.4707 274.336 17.4707 274.901 17.479C275.092 17.4817 275.274 17.4845 275.454 17.4859C275.44 17.6048 275.426 17.7238 275.405 17.8345C275.29 18.4375 275.024 18.9272 274.605 19.302C274.187 19.6769 273.596 19.9618 272.833 20.1582C272.07 20.3533 271.097 20.4515 269.916 20.4515C268.686 20.4515 267.652 20.3381 266.815 20.1084C265.978 19.8802 265.305 19.5455 264.797 19.1056C264.289 18.6658 263.914 18.1111 263.676 17.443C263.438 16.7749 263.32 15.992 263.32 15.0957C263.32 14.1344 263.438 13.3266 263.676 12.6737C263.914 12.0222 264.295 11.4994 264.82 11.1079C265.345 10.7165 266.006 10.4315 266.803 10.2517C267.599 10.0719 268.545 9.98339 269.645 9.98339C270.958 9.98339 272.024 10.065 272.845 10.2282C273.665 10.3914 274.274 10.6446 274.667 10.9862C275.061 11.3292 275.259 11.7691 275.259 12.3072C275.259 12.3556 275.259 12.4054 275.259 12.4538C275.259 12.5022 275.255 12.552 275.247 12.6004C275.238 12.6488 275.234 12.6903 275.234 12.7221C275.563 12.6903 275.976 12.6737 276.477 12.6737C276.978 12.6737 277.499 12.6737 278.04 12.6737C278.565 12.6737 279.075 12.6779 279.566 12.6862C280.059 12.6945 280.46 12.7069 280.771 12.7235C280.771 12.6101 280.776 12.4911 280.784 12.3694C280.792 12.2477 280.797 12.1204 280.797 11.9904C280.797 11.1923 280.649 10.462 280.354 9.80081C280.059 9.14102 279.606 8.54486 278.999 8.01509C278.393 7.48532 277.645 7.03716 276.76 6.66923C275.873 6.30268 274.836 6.02881 273.646 5.85037C272.456 5.67056 271.123 5.58203 269.646 5.58203C268.121 5.58203 266.722 5.70099 265.449 5.93613C264.177 6.17266 263.058 6.53921 262.089 7.03716C261.12 7.53512 260.3 8.16171 259.628 8.92109C258.956 9.67908 258.446 10.5685 258.102 11.5865C257.757 12.6059 257.586 13.7512 257.586 15.0224C257.603 16.555 257.869 17.9285 258.386 19.1444C258.903 20.3588 259.678 21.3824 260.712 22.2137C261.747 23.045 263.018 23.6771 264.528 24.1087C266.037 24.5402 267.802 24.7574 269.82 24.7574C271.462 24.7574 272.884 24.6509 274.091 24.4393C275.297 24.2276 276.318 23.9136 277.155 23.4973C277.992 23.081 278.66 22.5719 279.161 21.9689C279.662 21.3658 280.043 20.6811 280.305 19.9148C280.567 19.1485 280.723 18.2965 280.773 17.3586C280.822 16.4208 280.813 15.4069 280.748 14.3142C280.06 14.3294 279.395 14.3405 278.754 14.3488Z" fill="#FFE252"/>
<path d="M303.616 5.99683H284.469C284.469 6.56809 284.473 7.18777 284.481 7.85585C284.49 8.52394 284.502 9.24182 284.519 10.0081C284.535 10.7744 284.544 11.5822 284.544 12.4301C284.544 13.278 284.544 14.1909 284.544 15.1689C284.544 16.4732 284.544 17.6683 284.544 18.7514C284.544 19.8358 284.535 20.8345 284.519 21.7474C284.502 22.6603 284.47 23.5248 284.42 24.3395H303.616C303.599 24.0629 303.587 23.724 303.58 23.3242C303.571 22.9245 303.567 22.5621 303.567 22.2357C303.567 21.8276 303.571 21.4043 303.58 20.9645C303.588 20.5246 303.599 20.1816 303.616 19.9368C302.779 19.9368 302.051 19.9409 301.034 19.9492C300.016 19.9575 298.969 19.9617 297.895 19.9617C296.82 19.9617 295.757 19.9617 294.707 19.9617C293.656 19.9617 292.676 19.9658 291.766 19.9741C291.181 19.9796 290.646 19.9824 290.154 19.9852C290.154 19.5509 290.154 19.1055 290.154 18.6421C290.154 18.0556 290.154 17.4511 290.154 16.8329C290.779 16.8342 291.438 16.8384 292.136 16.8439C293.112 16.8522 294.121 16.8564 295.164 16.8564C296.205 16.8564 297.239 16.8605 298.265 16.8688C299.291 16.8771 300.258 16.8813 301.169 16.8813C302.079 16.8813 302.672 16.8979 303.344 16.9297C303.344 16.6198 303.344 16.2173 303.344 15.7194C303.344 15.2214 303.344 14.7331 303.344 14.2518C303.344 13.7704 303.353 13.3762 303.37 13.065C302.68 13.0982 302.079 13.1176 301.169 13.1259C300.258 13.1342 299.29 13.1383 298.265 13.1383C297.239 13.1383 296.205 13.1425 295.164 13.1508C294.121 13.1591 293.112 13.1632 292.136 13.1632C291.44 13.1632 290.78 13.1632 290.154 13.1632C290.154 12.7095 290.154 12.2392 290.154 11.744C290.154 11.1949 290.154 10.6582 290.154 10.1298C290.633 10.1298 291.149 10.1298 291.717 10.1298C292.611 10.1298 293.579 10.134 294.621 10.1423C295.663 10.1506 296.721 10.1506 297.796 10.1423C298.87 10.134 299.916 10.1298 300.935 10.1298C301.952 10.1298 302.712 10.1381 303.616 10.1547C303.599 9.92651 303.587 9.60008 303.58 9.17681C303.571 8.75355 303.567 8.35381 303.567 7.97896C303.567 7.63592 303.571 7.27767 303.58 6.90283C303.587 6.52659 303.599 6.22505 303.616 5.99683Z" fill="#FFE252"/>
<path d="M327.658 16.4651C327.338 15.797 326.813 15.2257 326.082 14.7527C325.352 14.2796 324.376 13.9006 323.154 13.6157C321.931 13.3307 320.417 13.1067 318.613 12.9434C317.481 12.8134 316.537 12.6986 315.783 12.6004C315.028 12.5022 314.424 12.3971 313.973 12.2823C313.522 12.1688 313.189 12.0457 312.976 11.9157C312.763 11.7857 312.619 11.6432 312.545 11.4883C312.471 11.3334 312.434 11.1826 312.434 11.036C312.434 10.841 312.499 10.6612 312.631 10.4979C312.762 10.3347 312.996 10.1922 313.333 10.0705C313.668 9.9488 314.142 9.85475 314.748 9.78974C315.355 9.72473 316.143 9.69153 317.111 9.69153C318.259 9.69153 319.182 9.73164 319.88 9.81325C320.577 9.89486 321.11 10.0138 321.479 10.1674C321.848 10.3223 322.103 10.5062 322.242 10.7179C322.381 10.9295 322.451 11.166 322.451 11.4275C322.451 11.5091 322.451 11.5907 322.451 11.6723C322.451 11.7539 322.459 11.8438 322.476 11.942C322.771 11.9254 323.165 11.9102 323.657 11.8936C324.15 11.877 324.658 11.8687 325.183 11.8687C325.495 11.8687 325.807 11.8728 326.119 11.8811C326.43 11.8894 326.734 11.8936 327.029 11.8936C327.324 11.8936 327.579 11.9102 327.792 11.942C327.808 11.7954 327.808 11.6695 327.792 11.563C327.775 11.4565 327.771 11.3431 327.779 11.22C327.788 11.0982 327.792 10.9793 327.792 10.8659C327.792 10.1328 327.68 9.4799 327.459 8.90863C327.238 8.33875 326.872 7.8408 326.364 7.41616C325.854 6.9929 325.198 6.64571 324.394 6.37599C323.589 6.10764 322.597 5.90293 321.415 5.76461C320.233 5.62629 318.838 5.55713 317.23 5.55713C315.408 5.55713 313.834 5.68715 312.505 5.94858C311.175 6.21 310.096 6.589 309.268 7.08557C308.44 7.58352 307.84 8.1783 307.471 8.87129C307.102 9.56427 306.917 10.3513 306.917 11.231C306.917 11.8839 307.007 12.4953 307.187 13.0652C307.368 13.6364 307.68 14.1454 308.122 14.5936C308.565 15.0418 309.169 15.4291 309.932 15.7555C310.695 16.0819 311.639 16.3544 312.763 16.5744C313.887 16.7943 315.22 16.9617 316.763 17.0765C317.812 17.1581 318.703 17.248 319.434 17.3448C320.163 17.443 320.747 17.5523 321.181 17.6754C321.615 17.7971 321.944 17.9285 322.165 18.0668C322.387 18.2052 322.538 18.3601 322.62 18.5316C322.703 18.7031 322.743 18.8871 322.743 19.0821C322.743 19.3269 322.677 19.5386 322.547 19.7184C322.414 19.8982 322.169 20.0448 321.809 20.1582C321.448 20.273 320.93 20.3616 320.258 20.4266C319.584 20.4916 318.707 20.5248 317.624 20.5248C316.262 20.5248 315.204 20.4598 314.449 20.3298C313.695 20.1997 313.157 19.984 312.837 19.681C312.517 19.3795 312.357 18.9839 312.357 18.4942C312.357 18.4292 312.357 18.3808 312.357 18.3476C312.357 18.3158 312.365 18.2826 312.382 18.2494C311.988 18.2826 311.554 18.302 311.078 18.3103C310.602 18.3186 310.094 18.3227 309.552 18.3227C309.044 18.3227 308.547 18.3061 308.063 18.2743C307.578 18.2425 307.165 18.2176 306.82 18.201C306.82 18.3476 306.811 18.4901 306.794 18.6284C306.778 18.7667 306.761 18.9064 306.746 19.0448C306.729 19.1831 306.721 19.3186 306.721 19.4487C306.721 20.1499 306.843 20.7821 307.09 21.3436C307.336 21.9066 307.726 22.4032 308.259 22.8361C308.792 23.2691 309.494 23.619 310.364 23.8874C311.234 24.1557 312.275 24.377 313.49 24.5471C314.704 24.7187 316.115 24.8044 317.723 24.8044C319.217 24.8044 320.545 24.7104 321.711 24.5236C322.877 24.3369 323.869 24.0838 324.69 23.7656C325.51 23.4475 326.18 23.0436 326.696 22.5553C327.213 22.0657 327.582 21.5165 327.804 20.9038C328.026 20.2924 328.137 19.6119 328.137 18.8622C328.138 17.9327 327.978 17.1332 327.658 16.4651Z" fill="#FFE252"/>
<path d="M232.474 12.8727C232.474 11.5518 232.28 10.4521 231.896 9.57103C231.51 8.69131 230.94 7.99003 230.185 7.46717C229.431 6.94571 228.519 6.57086 227.453 6.34263C226.386 6.1144 225.164 6.00098 223.785 6.00098H210.07C210.104 7.27214 210.127 8.6346 210.144 10.0856C210.161 11.5366 210.169 13.2324 210.169 15.173C210.169 16.4774 210.161 17.6559 210.144 18.7071C210.127 19.7583 210.115 20.7418 210.108 21.6547C210.1 22.5676 210.087 23.4639 210.07 24.345H216.027C215.961 23.4805 215.911 22.4708 215.879 21.3117C215.867 20.8856 215.857 20.4389 215.847 19.9824C216.222 19.9935 216.585 20.0045 216.926 20.0156C217.426 20.0322 218.869 20.0447 219.329 20.053C219.788 20.0613 220.442 20.0696 220.893 20.0779C221.344 20.0862 221.804 20.0903 222.271 20.0903C222.739 20.0903 223.228 20.0903 223.736 20.0903C224.868 20.0903 225.906 19.9962 226.85 19.8095C227.794 19.6228 228.609 19.3448 229.298 18.9782C229.987 18.6117 230.573 18.1427 231.058 17.5715C231.542 17.0016 231.899 16.3238 232.128 15.5423C232.358 14.7553 232.474 13.8673 232.474 12.8727ZM226.726 14.2172C226.57 14.5602 226.332 14.8369 226.012 15.0485C225.692 15.2601 225.261 15.4234 224.72 15.5382C224.178 15.6516 223.506 15.7097 222.702 15.7097C222.012 15.7097 221.343 15.7014 220.696 15.6848C220.047 15.6682 218.282 15.6599 217.725 15.6599C217.167 15.6599 216.674 15.6599 216.248 15.6599C216.074 15.6599 215.924 15.6599 215.789 15.6599C215.783 14.8383 215.78 13.9931 215.78 13.1162C215.78 12.2226 215.78 11.3111 215.78 10.3844C215.853 10.3816 215.924 10.3802 216.002 10.3761C216.428 10.3595 216.904 10.3442 217.43 10.3276C217.955 10.311 219.646 10.3069 220.179 10.3152C220.712 10.3235 221.213 10.3276 221.681 10.3276C222.149 10.3276 222.53 10.3276 222.825 10.3276C223.563 10.3276 224.191 10.3733 224.709 10.4618C225.225 10.5517 225.653 10.6942 225.99 10.8906C226.325 11.0856 226.571 11.3512 226.727 11.6859C226.883 12.0207 226.961 12.4398 226.961 12.946C226.96 13.4509 226.882 13.8756 226.726 14.2172Z" fill="#FFE252"/>
</g>
<defs>
<clipPath id="clip0_1326_92211">
<rect width="330" height="26.4192" fill="white" transform="translate(0.439453 0.0715332)"/>
</clipPath>
</defs>
</svg>
