<svg width="106" height="50" viewBox="0 0 106 50" fill="none" xmlns="http://www.w3.org/2000/svg">
<path d="M21.5815 4.8228L29.8235 9.58228L34.0026 7.17615L21.5815 0L0.833984 11.9884L4.99193 14.3945L21.5815 4.8228Z" fill="white"/>
<path d="M38.1624 9.58203L21.5834 19.1538L13.3413 14.3943L9.17285 16.8004L21.5834 23.966L42.3415 11.9882L38.1624 9.58203Z" fill="white"/>
<path d="M4.1685 25.6864L0 23.2803V37.6115L20.7475 49.5999V44.7876L4.1685 35.2054V25.6864Z" fill="white"/>
<path d="M0 18.4685L16.579 28.0402V37.5592L20.7475 39.9758V25.6341L0 13.6562V18.4685Z" fill="white"/>
<path d="M34.8351 23.28V18.4678L22.4141 25.6334V49.5996L26.5826 47.1935V28.0395L34.8351 23.28Z" fill="white"/>
<path d="M38.994 16.0624V35.2058L30.752 39.9759V44.7881L43.173 37.6119V13.6562L38.994 16.0624Z" fill="white"/>
<path d="M53.6448 16.5478H50.5364V34.2998H61.0759V31.4342H53.6448V16.5478ZM62.225 28.2772C62.225 32.0171 64.9206 34.5912 68.6362 34.5912C72.3517 34.5912 75.0473 32.0171 75.0473 28.2772C75.0473 24.5374 72.3517 21.9632 68.6362 21.9632C64.9206 21.9632 62.225 24.5374 62.225 28.2772ZM65.1878 28.2772C65.1878 26.0916 66.5963 24.6103 68.6362 24.6103C70.6761 24.6103 72.0846 26.0916 72.0846 28.2772C72.0846 30.4628 70.6761 31.9442 68.6362 31.9442C66.5963 31.9442 65.1878 30.4628 65.1878 28.2772ZM76.7157 28.0344C76.7157 31.5071 78.9499 34.057 82.3497 34.057C84.0739 34.057 85.5553 33.3527 86.3081 32.2356V34.227C86.3081 36.2183 84.9968 37.5054 82.9569 37.5054C81.1355 37.5054 79.9456 36.5826 79.7513 35.0283H76.7886C77.1528 38.2339 79.5084 40.201 82.9569 40.201C86.8424 40.201 89.2466 37.6996 89.2466 33.6927V22.3032H86.5024L86.3324 23.9546C85.6282 22.6675 84.2196 21.9147 82.4226 21.9147C78.9985 21.9147 76.7157 24.5374 76.7157 28.0344ZM79.7027 27.9615C79.7027 25.9945 80.9655 24.5131 82.9326 24.5131C84.9968 24.5131 86.2353 25.9216 86.2353 27.9615C86.2353 30.05 84.9725 31.4828 82.9326 31.4828C80.9898 31.4828 79.7027 29.9772 79.7027 27.9615ZM91.6084 28.2772C91.6084 32.0171 94.304 34.5912 98.0195 34.5912C101.735 34.5912 104.431 32.0171 104.431 28.2772C104.431 24.5374 101.735 21.9632 98.0195 21.9632C94.304 21.9632 91.6084 24.5374 91.6084 28.2772ZM94.5711 28.2772C94.5711 26.0916 95.9796 24.6103 98.0195 24.6103C100.059 24.6103 101.468 26.0916 101.468 28.2772C101.468 30.4628 100.059 31.9442 98.0195 31.9442C95.9796 31.9442 94.5711 30.4628 94.5711 28.2772Z" fill="white"/>
</svg>
