<svg width="52" height="60" viewBox="0 0 52 60" fill="none" xmlns="http://www.w3.org/2000/svg">
<path d="M19.8574 29.8417L25.4824 21.7148L31.113 29.8417L25.4824 37.9742L19.8574 29.8417Z" fill="#FFE252"/>
<path d="M6.54688 29.8417L12.1719 21.7148L17.7997 29.8417L12.1719 37.9742L6.54688 29.8417Z" fill="#FFE252"/>
<path d="M33.1699 29.8417L38.7949 21.7148L44.4255 29.8417L38.7949 37.9742L33.1699 29.8417Z" fill="#FFE252"/>
<path d="M26.5742 20.1841H37.6451L32.1097 28.1794L26.5742 20.1841Z" fill="#FFE252"/>
<path d="M13.3262 20.1841H24.3971L18.8588 28.1794L13.3262 20.1841Z" fill="#FFE252"/>
<path d="M13.3262 59.0973L18.8644 51.1047L24.3971 59.0973H13.3262Z" fill="#FFE252"/>
<path d="M26.5742 59.0973L32.1125 51.1047L37.6451 59.0973H26.5742Z" fill="#FFE252"/>
<path d="M34.1855 10.4622H45.2565L39.7182 18.4575L34.1855 10.4622Z" fill="#78BA5A"/>
<path d="M19.8613 8.8893L25.4863 0.756836L31.1169 8.8893L25.4863 17.0162L19.8613 8.8893Z" fill="#78BA5A"/>
<path d="M26.5762 18.5469L32.1088 10.5515L37.6471 18.5469H26.5762Z" fill="#78BA5A"/>
<path d="M13.3281 18.547L18.8608 10.5544L24.399 18.547H13.3281Z" fill="#78BA5A"/>
<path d="M5.71875 10.4622H16.7896L11.2514 18.4575L5.71875 10.4622Z" fill="#78BA5A"/>
<path d="M26.5762 39.6393L32.2012 31.5125L37.8318 39.6393L32.2012 47.7718L26.5762 39.6393Z" fill="#FFE252"/>
<path d="M13.3281 39.6393L18.9531 31.5125L24.5837 39.6393L18.9531 47.7718L13.3281 39.6393Z" fill="#FFE252"/>
<path d="M0.0800781 39.6393L5.70507 31.5125L11.3357 39.6393L5.70507 47.7718L0.0800781 39.6393Z" fill="#FFE252"/>
<path d="M39.8242 39.6393L45.4492 31.5125L51.0798 39.6393L45.4492 47.7718L39.8242 39.6393Z" fill="#FFE252"/>
<path d="M19.8574 49.434L25.4824 41.3071L31.113 49.4368L25.4824 57.5665L19.8574 49.434Z" fill="#FFE252"/>
<path d="M6.54688 49.434L12.1719 41.3071L17.7997 49.4368L12.1719 57.5665L6.54688 49.434Z" fill="#FFE252"/>
<path d="M33.1699 49.434L38.7949 41.3071L44.4255 49.4368L38.7949 57.5665L33.1699 49.434Z" fill="#FFE252"/>
</svg>
