<svg width="630" height="132" viewBox="0 0 630 132" fill="none" xmlns="http://www.w3.org/2000/svg">
<g filter="url(#filter0_d_1114_41618)">
<path d="M9.00985 55.3445L21.8266 14.991L31.8873 18.885L19.0705 59.2386L9.00985 55.3445ZM22.9574 43.1759L25.6261 34.7736L40.2844 40.4472L37.6157 48.8496L22.9574 43.1759ZM28.1368 26.8687L30.8055 18.4663L46.0588 24.3702L43.3901 32.7726L28.1368 26.8687Z" fill="#FFE252"/>
<path d="M56.1855 73.6917C53.5092 72.7947 51.2389 71.586 49.3747 70.0654C47.5105 68.5448 46.0451 66.8117 44.9785 64.8662C43.9485 62.933 43.3101 60.8866 43.0631 58.7272C42.8527 56.5801 43.0449 54.4253 43.6396 52.2629L44.0087 50.9207C44.6239 48.6838 45.5831 46.725 46.8861 45.0443C48.2259 43.376 49.8289 42.0605 51.6953 41.098C53.5617 40.1355 55.6525 39.5943 57.9679 39.4745C60.2832 39.3546 62.724 39.7248 65.2904 40.5849C67.8934 41.4573 70.1087 42.6477 71.9362 44.156C73.8004 45.6766 75.2658 47.4096 76.3324 49.3551C77.3991 51.3006 78.0507 53.3717 78.2875 55.5685C78.5609 57.7775 78.39 60.0005 77.7748 62.2374L77.4057 63.5796C76.811 65.742 75.8672 67.6448 74.5744 69.2882C73.3182 70.9439 71.757 72.253 69.8906 73.2155C68.0609 74.1903 65.9884 74.7376 63.673 74.8574C61.3577 74.9773 58.8619 74.5887 56.1855 73.6917ZM58.5233 65.1913C60.0631 65.7074 61.4202 65.7958 62.5947 65.4564C63.8058 65.1294 64.832 64.4554 65.6734 63.4344C66.525 62.3761 67.161 61.0826 67.5814 59.554C68.0223 57.9509 68.1318 56.4606 67.91 55.0833C67.7351 53.6809 67.2317 52.4536 66.4 51.4012C65.5683 50.3487 64.4192 49.5768 62.9527 49.0853C61.4862 48.5938 60.1422 48.5302 58.9209 48.8945C57.6995 49.2589 56.6447 49.964 55.7564 51.01C54.915 52.031 54.2739 53.3431 53.833 54.9463C53.4126 56.4749 53.2899 57.9403 53.4648 59.3427C53.65 60.7077 54.1635 61.8978 55.0055 62.9129C55.8475 63.9281 57.0201 64.6875 58.5233 65.1913Z" fill="#FFE252"/>
<path d="M95.8051 85.6691C93.0873 84.9072 90.7626 83.8142 88.8311 82.3903C86.8996 80.9663 85.3583 79.3108 84.2072 77.4236C83.0932 75.5469 82.3664 73.5381 82.0266 71.3971C81.7241 69.2666 81.8242 67.1085 82.327 64.9229L82.6391 63.5663C83.1592 61.3054 84.0356 59.3048 85.2682 57.5645C86.5381 55.8346 88.0867 54.4436 89.914 53.3915C91.7414 52.3394 93.8115 51.6964 96.1244 51.4623C98.4373 51.2282 100.897 51.4765 103.503 52.2072C106.146 52.9482 108.415 54.0255 110.309 55.4391C112.241 56.863 113.782 58.5186 114.933 60.4057C116.085 62.2928 116.826 64.3257 117.157 66.5044C117.525 68.6935 117.449 70.9185 116.929 73.1795L116.617 74.5361C116.114 76.7216 115.251 78.6657 114.027 80.3683C112.84 82.0814 111.333 83.464 109.506 84.5161C107.716 85.5786 105.664 86.2269 103.351 86.461C101.038 86.695 98.523 86.4311 95.8051 85.6691ZM97.7816 77.0775C99.3453 77.5159 100.708 77.5369 101.869 77.1404C103.068 76.7544 104.066 76.0315 104.865 74.9718C105.672 73.8744 106.253 72.5533 106.609 71.0083C106.982 69.3879 107.028 67.8966 106.746 66.5342C106.511 65.1445 105.955 63.9456 105.077 62.9373C104.199 61.9291 103.016 61.2163 101.527 60.7987C100.037 60.3812 98.6891 60.3843 97.4819 60.808C96.2747 61.2318 95.2488 61.9871 94.4043 63.074C93.6057 64.1338 93.02 65.4738 92.6472 67.0941C92.2918 68.6391 92.2317 70.1064 92.4668 71.4961C92.7107 72.848 93.2758 74.0093 94.1622 74.9798C95.0487 75.9504 96.2551 76.6496 97.7816 77.0775Z" fill="#FFE252"/>
<path d="M133.177 94.9051C130.99 94.4103 129.065 93.5589 127.403 92.351C125.779 91.1517 124.437 89.6994 123.378 87.9941C122.364 86.2594 121.679 84.3415 121.322 82.2405C121.003 80.1481 121.056 77.9613 121.479 75.6803L121.733 74.3117C122.156 72.0307 122.869 69.9932 123.87 68.1994C124.916 66.3761 126.195 64.8829 127.708 63.7198C129.227 62.5187 130.948 61.7194 132.868 61.3221C134.796 60.8867 136.854 60.9164 139.041 61.4113C141.568 61.9829 143.612 63.0395 145.173 64.581C146.778 66.093 147.855 68.0202 148.403 70.3624C148.988 72.7132 149.036 75.4178 148.547 78.4763L146.499 76.1709L150.543 54.3871L160.839 56.7163L153.111 98.3451L144.965 96.5022L147.336 83.7285L148.467 83.9844C147.87 86.7806 146.849 89.1047 145.405 90.9568C143.968 92.7708 142.2 94.0348 140.103 94.7487C138.05 95.4332 135.742 95.4853 133.177 94.9051ZM137.537 86.9784C138.782 87.2599 139.966 87.2307 141.09 86.8908C142.252 86.5595 143.256 85.9151 144.102 84.9576C144.947 84.0002 145.515 82.7421 145.804 81.1834L146.164 79.2445C146.446 77.7238 146.343 76.3735 145.855 75.1934C145.405 74.0219 144.701 73.0506 143.744 72.2795C142.831 71.4788 141.772 70.942 140.565 70.669C139.207 70.3619 137.914 70.4457 136.686 70.9206C135.503 71.3661 134.475 72.1435 133.601 73.253C132.772 74.3331 132.205 75.6905 131.902 77.3252C131.598 78.9599 131.635 80.4538 132.013 81.8069C132.435 83.1305 133.111 84.2539 134.04 85.1771C135.014 86.0708 136.179 86.6712 137.537 86.9784Z" fill="#FFE252"/>
<path d="M185.082 104.004L179.889 60.5463L190.919 62.0809L194.464 97.9914L192.834 96.4183L197.487 97.0657L195.326 98.1113L204.822 65.5373L213.496 66.7442L200.995 106.218L185.082 104.004ZM210.014 107.473L206.201 65.7292L215.335 67L218.189 101.292L216.33 99.6873L220.696 100.295L219.051 101.412L229.523 67.4519L239.863 68.8906L226.271 109.734L210.014 107.473Z" fill="#FFE252"/>
<path d="M255.137 113.102C252.322 112.892 249.842 112.28 247.696 111.267C245.55 110.253 243.752 108.937 242.302 107.316C240.89 105.699 239.84 103.876 239.151 101.847C238.5 99.821 238.244 97.6889 238.381 95.4504L238.466 94.061C238.608 91.7453 239.145 89.6143 240.078 87.6679C241.049 85.7243 242.352 84.0575 243.987 82.6676C245.621 81.2776 247.564 80.2401 249.814 79.5552C252.063 78.8702 254.538 78.6286 257.237 78.8301C259.975 79.0346 262.397 79.642 264.505 80.6523C266.65 81.6655 268.448 82.9823 269.899 84.6027C271.349 86.2231 272.417 88.0669 273.104 90.1343C273.829 92.2045 274.121 94.3975 273.979 96.7132L273.894 98.1026C273.757 100.341 273.223 102.414 272.293 104.322C271.401 106.233 270.138 107.883 268.503 109.273C266.907 110.666 264.984 111.705 262.734 112.39C260.484 113.075 257.952 113.312 255.137 113.102ZM255.676 104.302C257.296 104.423 258.647 104.175 259.731 103.558C260.853 102.944 261.722 102.04 262.338 100.845C262.955 99.6119 263.313 98.2041 263.41 96.6217C263.512 94.9622 263.311 93.4933 262.808 92.2151C262.347 90.9011 261.598 89.8372 260.564 89.0233C259.529 88.2094 258.24 87.7448 256.698 87.6296C255.156 87.5144 253.822 87.7832 252.697 88.4358C251.573 89.0885 250.682 90.03 250.026 91.2605C249.41 92.4552 249.052 93.8823 248.95 95.5418C248.853 97.1242 249.036 98.5723 249.497 99.8863C249.961 101.162 250.712 102.187 251.749 102.962C252.786 103.738 254.095 104.184 255.676 104.302Z" fill="#FFE252"/>
<path d="M280.169 113.383L281.015 81.3779L289.362 81.6468L288.995 95.5619L288.879 95.5582C288.997 91.0744 290.018 87.5869 291.94 85.0955C293.901 82.6054 296.64 81.417 300.157 81.5302L301.432 81.5713L301.193 90.6162L298.758 90.5377C296.401 90.4618 294.548 91.0405 293.201 92.2737C291.892 93.5082 291.206 95.3236 291.142 97.7201L290.719 113.723L280.169 113.383Z" fill="#FFE252"/>
<path d="M322.73 114.483C319.25 114.491 316.465 114.072 314.375 113.226C312.324 112.38 310.833 110.972 309.901 109.002C308.97 107.032 308.501 104.365 308.495 101.001L308.502 73.6831L318.246 73.6611L318.239 101.269C318.242 102.7 318.611 103.801 319.347 104.573C320.122 105.306 321.225 105.67 322.655 105.667L327.063 105.657L327.08 114.473L322.73 114.483ZM303.834 89.7017L303.819 82.0457L327.019 81.9933L327.034 89.6493L303.834 89.7017Z" fill="#FFE252"/>
<path d="M335.726 113.853L334.195 71.5406L344.741 71.0757L345.613 95.1879L344.222 95.2492C344.105 92.0033 344.412 89.2612 345.144 87.0229C345.875 84.7846 346.993 83.071 348.498 81.8823C350.041 80.6919 351.972 80.0456 354.289 79.9434L354.753 79.923C358.23 79.7697 360.921 80.9089 362.828 83.3406C364.773 85.7705 365.833 89.4199 366.009 94.2887L366.668 112.489L356.122 112.954L355.449 94.3479C355.396 92.8795 354.908 91.7012 353.986 90.813C353.063 89.8861 351.867 89.455 350.399 89.5198C348.931 89.5845 347.751 90.1203 346.859 91.1272C345.966 92.0955 345.547 93.3524 345.603 94.8981L346.272 113.388L335.726 113.853Z" fill="#FFE252"/>
<path d="M406.727 109.864C402.808 110.311 399.447 110.071 396.642 109.146C393.876 108.216 391.703 106.771 390.122 104.811C388.576 102.808 387.673 100.421 387.414 97.6493L397.787 96.4673C397.88 97.4683 398.236 98.3616 398.853 99.1473C399.504 99.8901 400.409 100.429 401.566 100.764C402.724 101.099 404.167 101.168 405.896 100.971C407.394 100.8 408.644 100.463 409.645 99.9602C410.685 99.4526 411.441 98.8217 411.914 98.0675C412.426 97.3088 412.636 96.4483 412.546 95.4858C412.431 94.2538 411.824 93.3697 410.726 92.8334C409.624 92.2587 407.834 92.0151 405.358 92.1028L402.627 92.1804C398.25 92.2901 394.665 91.3174 391.871 89.2623C389.078 87.2072 387.499 84.2354 387.135 80.347C386.876 77.5751 387.289 75.1352 388.373 73.0273C389.496 70.9151 391.18 69.2057 393.426 67.8992C395.673 66.5927 398.39 65.7577 401.579 65.3944C405.037 65.0004 408.01 65.2452 410.5 66.1287C413.029 67.0079 415.026 68.4339 416.491 70.4069C417.954 72.3414 418.814 74.6946 419.073 77.4665L408.701 78.6485C408.614 77.7245 408.304 76.9038 407.771 76.1863C407.238 75.4689 406.51 74.9488 405.587 74.626C404.699 74.2603 403.64 74.1475 402.41 74.2876C401.258 74.4189 400.296 74.723 399.525 75.2C398.79 75.634 398.241 76.2023 397.879 76.905C397.556 77.6032 397.433 78.3566 397.508 79.1651C397.609 80.243 398.06 81.1254 398.862 81.8122C399.664 82.499 400.975 82.8165 402.795 82.7648L405.525 82.6871C408.701 82.5977 411.551 82.9733 414.076 83.8139C416.597 84.6161 418.637 85.8816 420.197 87.6105C421.756 89.3393 422.664 91.5704 422.919 94.3038C423.175 97.0372 422.687 99.5051 421.457 101.708C420.264 103.906 418.414 105.712 415.906 107.126C413.436 108.536 410.377 109.448 406.727 109.864Z" fill="#FFE252"/>
<path d="M430.995 105.671L425.352 63.7084L435.769 62.0012L438.985 85.9139L437.611 86.1391C437.178 82.92 437.216 80.1527 437.723 77.837C438.231 75.5214 439.173 73.6828 440.55 72.3214C441.965 70.9536 443.817 70.0822 446.107 69.707L446.564 69.6319C449.999 69.0691 452.78 69.8863 454.908 72.0833C457.075 74.274 458.483 77.7836 459.132 82.6122L461.559 100.662L451.142 102.369L448.661 83.917C448.465 82.4607 447.867 81.3447 446.865 80.5688C445.859 79.7546 444.631 79.4663 443.181 79.7039C441.731 79.9415 440.612 80.6144 439.825 81.7225C439.033 82.7923 438.74 84.0937 438.946 85.6265L441.412 103.963L430.995 105.671Z" fill="#FFE252"/>
<path d="M488.627 95.0584L487.015 85.8016L485.313 86.1626L483.593 76.2773C483.341 74.8297 482.814 73.8353 482.014 73.2941C481.245 72.7067 480.104 72.5735 478.591 72.8944C477.873 73.0469 476.817 73.2906 475.424 73.6256C474.031 73.9606 472.566 74.3306 471.028 74.7358C469.491 75.141 468.085 75.5181 466.813 75.8671L465.301 67.1817C466.195 66.9129 467.26 66.6081 468.495 66.2671C469.73 65.9261 471.006 65.5961 472.323 65.2772C473.678 64.9502 474.923 64.6664 476.058 64.4257C479.273 63.7436 482.079 63.6421 484.477 64.121C486.912 64.5919 488.882 65.6553 490.386 67.3113C491.928 68.9592 492.954 71.2498 493.465 74.183L496.797 93.3252L488.627 95.0584ZM478.837 97.9646C476.643 98.43 474.626 98.4433 472.784 98.0044C470.943 97.5655 469.401 96.7075 468.159 95.4305C466.948 94.1073 466.16 92.3982 465.796 90.303C465.385 87.9412 465.677 85.9041 466.673 84.1918C467.663 82.4413 469.195 80.9905 471.269 79.8395C473.344 78.6884 475.8 77.8119 478.636 77.2101L484.707 75.9223L485.642 81.2935L479.571 82.5814C478.172 82.8783 477.157 83.4688 476.526 84.3531C475.889 85.1993 475.673 86.2128 475.879 87.3937C476.078 88.5365 476.619 89.3896 477.501 89.9529C478.377 90.4781 479.515 90.5923 480.914 90.2954C481.822 90.1028 482.59 89.7819 483.218 89.3327C483.877 88.8374 484.363 88.1416 484.678 87.2454C484.993 86.3491 485.065 85.1882 484.896 83.7627L487.676 85.5428C487.865 87.7543 487.657 89.7142 487.053 91.4225C486.479 93.0847 485.505 94.4762 484.132 95.5972C482.796 96.7101 481.031 97.4992 478.837 97.9646Z" fill="#FFE252"/>
<path d="M505.373 91.2417L498.854 59.8964L506.95 57.8445L509.784 71.4729L509.672 71.5014C508.758 67.11 508.942 63.4371 510.221 60.4826C511.538 57.5186 513.902 55.6043 517.313 54.7399L518.55 54.4264L520.392 63.2849L518.031 63.8833C515.744 64.4628 514.094 65.5386 513.079 67.1109C512.102 68.6736 511.858 70.6286 512.346 72.9757L515.605 88.6484L505.373 91.2417Z" fill="#FFE252"/>
<path d="M533.401 83.9272L526.077 52.7601L536.225 49.854L543.549 81.021L533.401 83.9272ZM523.926 61.3308L522.174 53.8778L536.225 49.854L537.977 57.307L523.926 61.3308ZM529.675 49.0782C527.817 49.6105 526.331 49.5338 525.218 48.8483C524.133 48.1144 523.413 46.9947 523.059 45.489C522.706 43.9834 522.846 42.6376 523.479 41.4517C524.142 40.2176 525.383 39.3397 527.205 38.8181C529.063 38.2858 530.535 38.3866 531.62 39.1205C532.696 39.8167 533.411 40.9176 533.765 42.4232C534.119 43.9289 533.983 45.2935 533.358 46.517C532.724 47.7029 531.497 48.5566 529.675 49.0782Z" fill="#FFE252"/>
<path d="M554.032 78.032L545.716 47.1147L553.653 44.5134L557.223 57.7877L556.782 57.9322C555.919 54.721 555.61 51.9374 555.856 49.5814C556.092 47.1881 556.859 45.2098 558.158 43.6464C559.493 42.071 561.3 40.91 563.578 40.1633L564.019 40.0188C567.473 38.8867 570.453 39.1898 572.96 40.928C575.493 42.6169 577.407 45.8697 578.703 50.6865L583.463 68.3856L573.432 71.6733L568.597 53.6942C568.215 52.2753 567.481 51.2563 566.395 50.6371C565.336 49.9686 564.089 49.8691 562.656 50.3388C561.223 50.8085 560.192 51.6546 559.561 52.8771C558.957 54.0502 558.856 55.3836 559.257 56.8772L564.063 74.7443L554.032 78.032Z" fill="#FFE252"/>
<path d="M607.349 73.2329C605.868 73.7995 604.316 74.3314 602.692 74.8287C601.105 75.3122 599.65 75.7035 598.328 76.0027L595.687 67.5915C596.998 67.2555 598.447 66.8457 600.034 66.3622C601.633 65.9156 603.083 65.4436 604.383 64.9461C606.622 64.0894 608.371 63.1518 609.628 62.1333C610.922 61.101 611.756 59.9556 612.13 58.697C612.503 57.4384 612.446 56.0344 611.96 54.485L610.014 48.2873L610.488 44.3867C611.227 46.9967 611.446 49.4336 611.145 51.6974C610.833 53.9243 609.991 55.8789 608.618 57.5613C607.281 59.2299 605.421 60.5202 603.037 61.4321C601.015 62.2059 599.075 62.5348 597.219 62.4188C595.362 62.3028 593.647 61.8018 592.074 60.9159C590.526 59.9793 589.156 58.7062 587.963 57.0965C586.77 55.4869 585.831 53.5938 585.148 51.4172L584.731 50.0891C584.048 47.9125 583.741 45.7776 583.812 43.6843C583.872 41.5542 584.301 39.5717 585.1 37.7369C585.888 35.8653 586.997 34.2427 588.426 32.8693C589.88 31.4451 591.637 30.3392 593.695 29.5516C596.079 28.6396 598.311 28.4054 600.392 28.8489C602.461 29.2554 604.308 30.3052 605.931 31.998C607.555 33.6908 608.866 35.999 609.865 38.9227L608.903 39.7246L604.699 26.3331L612.499 23.3484L620.96 50.2974C622.142 54.0603 622.411 57.3663 621.769 60.2155C621.126 63.0647 619.582 65.5563 617.138 67.6901C614.729 69.8101 611.466 71.6577 607.349 73.2329ZM603.735 51.8673C604.927 51.4113 605.906 50.727 606.671 49.8144C607.472 48.8879 608 47.7977 608.253 46.5437C608.495 45.2527 608.384 43.8695 607.921 42.3938L607.504 41.0657C607.052 39.627 606.363 38.527 605.436 37.7659C604.546 36.9909 603.532 36.5317 602.395 36.3883C601.258 36.2449 600.129 36.3874 599.01 36.8158C597.71 37.3132 596.652 38.069 595.838 39.083C595.06 40.0832 594.562 41.2657 594.343 42.6304C594.16 43.9813 594.312 45.4315 594.799 46.9809C595.285 48.5303 595.973 49.7548 596.862 50.6542C597.787 51.5399 598.83 52.0913 599.991 52.3085C601.187 52.5118 602.435 52.3648 603.735 51.8673Z" fill="#FFE252"/>
</g>
<defs>
<filter id="filter0_d_1114_41618" x="5.00977" y="14.991" width="624.92" height="107.535" filterUnits="userSpaceOnUse" color-interpolation-filters="sRGB">
<feFlood flood-opacity="0" result="BackgroundImageFix"/>
<feColorMatrix in="SourceAlpha" type="matrix" values="0 0 0 0 0 0 0 0 0 0 0 0 0 0 0 0 0 0 127 0" result="hardAlpha"/>
<feOffset dy="4"/>
<feGaussianBlur stdDeviation="2"/>
<feComposite in2="hardAlpha" operator="out"/>
<feColorMatrix type="matrix" values="0 0 0 0 0.683333 0 0 0 0 0.683333 0 0 0 0 0.683333 0 0 0 0.16 0"/>
<feBlend mode="normal" in2="BackgroundImageFix" result="effect1_dropShadow_1114_41618"/>
<feBlend mode="normal" in="SourceGraphic" in2="effect1_dropShadow_1114_41618" result="shape"/>
</filter>
</defs>
</svg>
